<?xml version="1.0" encoding="utf-8" standalone="no"?>
<!DOCTYPE svg PUBLIC "-//W3C//DTD SVG 1.1//EN"
  "http://www.w3.org/Graphics/SVG/1.1/DTD/svg11.dtd">
<svg xmlns:xlink="http://www.w3.org/1999/xlink" width="576pt" height="720pt" viewBox="0 0 576 720" xmlns="http://www.w3.org/2000/svg" version="1.1">
 <metadata>
  <rdf:RDF xmlns:dc="http://purl.org/dc/elements/1.1/" xmlns:cc="http://creativecommons.org/ns#" xmlns:rdf="http://www.w3.org/1999/02/22-rdf-syntax-ns#">
   <cc:Work>
    <dc:type rdf:resource="http://purl.org/dc/dcmitype/StillImage"/>
    <dc:date>2024-10-30T14:57:52.630575</dc:date>
    <dc:format>image/svg+xml</dc:format>
    <dc:creator>
     <cc:Agent>
      <dc:title>Matplotlib v3.8.3, https://matplotlib.org/</dc:title>
     </cc:Agent>
    </dc:creator>
   </cc:Work>
  </rdf:RDF>
 </metadata>
 <defs>
  <style type="text/css">*{stroke-linejoin: round; stroke-linecap: butt}</style>
 </defs>
 <g id="figure_1">
  <g id="patch_1">
   <path d="M 0 720 
L 576 720 
L 576 0 
L 0 0 
z
" style="fill: #ffffff"/>
  </g>
  <g id="axes_1">
   <g id="patch_2">
    <path d="M 39.94 124.76 
L 557.28 124.76 
L 557.28 14.76 
L 39.94 14.76 
z
" style="fill: #ffffff"/>
   </g>
   <g id="matplotlib.axis_1">
    <g id="xtick_1">
     <g id="line2d_1">
      <defs>
       <path id="m8c274d0e4d" d="M 0 0 
L 0 3.5 
" style="stroke: #000000; stroke-width: 0.8"/>
      </defs>
      <g>
       <use xlink:href="#m8c274d0e4d" x="63.455455" y="124.76" style="stroke: #000000; stroke-width: 0.8"/>
      </g>
     </g>
     <g id="text_1">
      <!-- 0 -->
      <g transform="translate(60.274205 139.358438) scale(0.1 -0.1)">
       <defs>
        <path id="DejaVuSans-30" d="M 2034 4250 
Q 1547 4250 1301 3770 
Q 1056 3291 1056 2328 
Q 1056 1369 1301 889 
Q 1547 409 2034 409 
Q 2525 409 2770 889 
Q 3016 1369 3016 2328 
Q 3016 3291 2770 3770 
Q 2525 4250 2034 4250 
z
M 2034 4750 
Q 2819 4750 3233 4129 
Q 3647 3509 3647 2328 
Q 3647 1150 3233 529 
Q 2819 -91 2034 -91 
Q 1250 -91 836 529 
Q 422 1150 422 2328 
Q 422 3509 836 4129 
Q 1250 4750 2034 4750 
z
" transform="scale(0.015625)"/>
       </defs>
       <use xlink:href="#DejaVuSans-30"/>
      </g>
     </g>
    </g>
    <g id="xtick_2">
     <g id="line2d_2">
      <g>
       <use xlink:href="#m8c274d0e4d" x="125.33823" y="124.76" style="stroke: #000000; stroke-width: 0.8"/>
      </g>
     </g>
     <g id="text_2">
      <!-- 10 -->
      <g transform="translate(118.97573 139.358438) scale(0.1 -0.1)">
       <defs>
        <path id="DejaVuSans-31" d="M 794 531 
L 1825 531 
L 1825 4091 
L 703 3866 
L 703 4441 
L 1819 4666 
L 2450 4666 
L 2450 531 
L 3481 531 
L 3481 0 
L 794 0 
L 794 531 
z
" transform="scale(0.015625)"/>
       </defs>
       <use xlink:href="#DejaVuSans-31"/>
       <use xlink:href="#DejaVuSans-30" x="63.623047"/>
      </g>
     </g>
    </g>
    <g id="xtick_3">
     <g id="line2d_3">
      <g>
       <use xlink:href="#m8c274d0e4d" x="187.221005" y="124.76" style="stroke: #000000; stroke-width: 0.8"/>
      </g>
     </g>
     <g id="text_3">
      <!-- 20 -->
      <g transform="translate(180.858505 139.358438) scale(0.1 -0.1)">
       <defs>
        <path id="DejaVuSans-32" d="M 1228 531 
L 3431 531 
L 3431 0 
L 469 0 
L 469 531 
Q 828 903 1448 1529 
Q 2069 2156 2228 2338 
Q 2531 2678 2651 2914 
Q 2772 3150 2772 3378 
Q 2772 3750 2511 3984 
Q 2250 4219 1831 4219 
Q 1534 4219 1204 4116 
Q 875 4013 500 3803 
L 500 4441 
Q 881 4594 1212 4672 
Q 1544 4750 1819 4750 
Q 2544 4750 2975 4387 
Q 3406 4025 3406 3419 
Q 3406 3131 3298 2873 
Q 3191 2616 2906 2266 
Q 2828 2175 2409 1742 
Q 1991 1309 1228 531 
z
" transform="scale(0.015625)"/>
       </defs>
       <use xlink:href="#DejaVuSans-32"/>
       <use xlink:href="#DejaVuSans-30" x="63.623047"/>
      </g>
     </g>
    </g>
    <g id="xtick_4">
     <g id="line2d_4">
      <g>
       <use xlink:href="#m8c274d0e4d" x="249.10378" y="124.76" style="stroke: #000000; stroke-width: 0.8"/>
      </g>
     </g>
     <g id="text_4">
      <!-- 30 -->
      <g transform="translate(242.74128 139.358438) scale(0.1 -0.1)">
       <defs>
        <path id="DejaVuSans-33" d="M 2597 2516 
Q 3050 2419 3304 2112 
Q 3559 1806 3559 1356 
Q 3559 666 3084 287 
Q 2609 -91 1734 -91 
Q 1441 -91 1130 -33 
Q 819 25 488 141 
L 488 750 
Q 750 597 1062 519 
Q 1375 441 1716 441 
Q 2309 441 2620 675 
Q 2931 909 2931 1356 
Q 2931 1769 2642 2001 
Q 2353 2234 1838 2234 
L 1294 2234 
L 1294 2753 
L 1863 2753 
Q 2328 2753 2575 2939 
Q 2822 3125 2822 3475 
Q 2822 3834 2567 4026 
Q 2313 4219 1838 4219 
Q 1578 4219 1281 4162 
Q 984 4106 628 3988 
L 628 4550 
Q 988 4650 1302 4700 
Q 1616 4750 1894 4750 
Q 2613 4750 3031 4423 
Q 3450 4097 3450 3541 
Q 3450 3153 3228 2886 
Q 3006 2619 2597 2516 
z
" transform="scale(0.015625)"/>
       </defs>
       <use xlink:href="#DejaVuSans-33"/>
       <use xlink:href="#DejaVuSans-30" x="63.623047"/>
      </g>
     </g>
    </g>
    <g id="xtick_5">
     <g id="line2d_5">
      <g>
       <use xlink:href="#m8c274d0e4d" x="310.986555" y="124.76" style="stroke: #000000; stroke-width: 0.8"/>
      </g>
     </g>
     <g id="text_5">
      <!-- 40 -->
      <g transform="translate(304.624055 139.358438) scale(0.1 -0.1)">
       <defs>
        <path id="DejaVuSans-34" d="M 2419 4116 
L 825 1625 
L 2419 1625 
L 2419 4116 
z
M 2253 4666 
L 3047 4666 
L 3047 1625 
L 3713 1625 
L 3713 1100 
L 3047 1100 
L 3047 0 
L 2419 0 
L 2419 1100 
L 313 1100 
L 313 1709 
L 2253 4666 
z
" transform="scale(0.015625)"/>
       </defs>
       <use xlink:href="#DejaVuSans-34"/>
       <use xlink:href="#DejaVuSans-30" x="63.623047"/>
      </g>
     </g>
    </g>
    <g id="xtick_6">
     <g id="line2d_6">
      <g>
       <use xlink:href="#m8c274d0e4d" x="372.86933" y="124.76" style="stroke: #000000; stroke-width: 0.8"/>
      </g>
     </g>
     <g id="text_6">
      <!-- 50 -->
      <g transform="translate(366.50683 139.358438) scale(0.1 -0.1)">
       <defs>
        <path id="DejaVuSans-35" d="M 691 4666 
L 3169 4666 
L 3169 4134 
L 1269 4134 
L 1269 2991 
Q 1406 3038 1543 3061 
Q 1681 3084 1819 3084 
Q 2600 3084 3056 2656 
Q 3513 2228 3513 1497 
Q 3513 744 3044 326 
Q 2575 -91 1722 -91 
Q 1428 -91 1123 -41 
Q 819 9 494 109 
L 494 744 
Q 775 591 1075 516 
Q 1375 441 1709 441 
Q 2250 441 2565 725 
Q 2881 1009 2881 1497 
Q 2881 1984 2565 2268 
Q 2250 2553 1709 2553 
Q 1456 2553 1204 2497 
Q 953 2441 691 2322 
L 691 4666 
z
" transform="scale(0.015625)"/>
       </defs>
       <use xlink:href="#DejaVuSans-35"/>
       <use xlink:href="#DejaVuSans-30" x="63.623047"/>
      </g>
     </g>
    </g>
    <g id="xtick_7">
     <g id="line2d_7">
      <g>
       <use xlink:href="#m8c274d0e4d" x="434.752105" y="124.76" style="stroke: #000000; stroke-width: 0.8"/>
      </g>
     </g>
     <g id="text_7">
      <!-- 60 -->
      <g transform="translate(428.389605 139.358438) scale(0.1 -0.1)">
       <defs>
        <path id="DejaVuSans-36" d="M 2113 2584 
Q 1688 2584 1439 2293 
Q 1191 2003 1191 1497 
Q 1191 994 1439 701 
Q 1688 409 2113 409 
Q 2538 409 2786 701 
Q 3034 994 3034 1497 
Q 3034 2003 2786 2293 
Q 2538 2584 2113 2584 
z
M 3366 4563 
L 3366 3988 
Q 3128 4100 2886 4159 
Q 2644 4219 2406 4219 
Q 1781 4219 1451 3797 
Q 1122 3375 1075 2522 
Q 1259 2794 1537 2939 
Q 1816 3084 2150 3084 
Q 2853 3084 3261 2657 
Q 3669 2231 3669 1497 
Q 3669 778 3244 343 
Q 2819 -91 2113 -91 
Q 1303 -91 875 529 
Q 447 1150 447 2328 
Q 447 3434 972 4092 
Q 1497 4750 2381 4750 
Q 2619 4750 2861 4703 
Q 3103 4656 3366 4563 
z
" transform="scale(0.015625)"/>
       </defs>
       <use xlink:href="#DejaVuSans-36"/>
       <use xlink:href="#DejaVuSans-30" x="63.623047"/>
      </g>
     </g>
    </g>
    <g id="xtick_8">
     <g id="line2d_8">
      <g>
       <use xlink:href="#m8c274d0e4d" x="496.63488" y="124.76" style="stroke: #000000; stroke-width: 0.8"/>
      </g>
     </g>
     <g id="text_8">
      <!-- 70 -->
      <g transform="translate(490.27238 139.358438) scale(0.1 -0.1)">
       <defs>
        <path id="DejaVuSans-37" d="M 525 4666 
L 3525 4666 
L 3525 4397 
L 1831 0 
L 1172 0 
L 2766 4134 
L 525 4134 
L 525 4666 
z
" transform="scale(0.015625)"/>
       </defs>
       <use xlink:href="#DejaVuSans-37"/>
       <use xlink:href="#DejaVuSans-30" x="63.623047"/>
      </g>
     </g>
    </g>
   </g>
   <g id="matplotlib.axis_2">
    <g id="ytick_1">
     <g id="line2d_9">
      <defs>
       <path id="m22d4ae1447" d="M 0 0 
L -3.5 0 
" style="stroke: #000000; stroke-width: 0.8"/>
      </defs>
      <g>
       <use xlink:href="#m22d4ae1447" x="39.94" y="119.76" style="stroke: #000000; stroke-width: 0.8"/>
      </g>
     </g>
     <g id="text_9">
      <!-- 0 -->
      <g transform="translate(26.5775 123.559219) scale(0.1 -0.1)">
       <use xlink:href="#DejaVuSans-30"/>
      </g>
     </g>
    </g>
    <g id="ytick_2">
     <g id="line2d_10">
      <g>
       <use xlink:href="#m22d4ae1447" x="39.94" y="93.444211" style="stroke: #000000; stroke-width: 0.8"/>
      </g>
     </g>
     <g id="text_10">
      <!-- 20 -->
      <g transform="translate(20.215 97.243429) scale(0.1 -0.1)">
       <use xlink:href="#DejaVuSans-32"/>
       <use xlink:href="#DejaVuSans-30" x="63.623047"/>
      </g>
     </g>
    </g>
    <g id="ytick_3">
     <g id="line2d_11">
      <g>
       <use xlink:href="#m22d4ae1447" x="39.94" y="67.128421" style="stroke: #000000; stroke-width: 0.8"/>
      </g>
     </g>
     <g id="text_11">
      <!-- 40 -->
      <g transform="translate(20.215 70.92764) scale(0.1 -0.1)">
       <use xlink:href="#DejaVuSans-34"/>
       <use xlink:href="#DejaVuSans-30" x="63.623047"/>
      </g>
     </g>
    </g>
    <g id="ytick_4">
     <g id="line2d_12">
      <g>
       <use xlink:href="#m22d4ae1447" x="39.94" y="40.812632" style="stroke: #000000; stroke-width: 0.8"/>
      </g>
     </g>
     <g id="text_12">
      <!-- 60 -->
      <g transform="translate(20.215 44.61185) scale(0.1 -0.1)">
       <use xlink:href="#DejaVuSans-36"/>
       <use xlink:href="#DejaVuSans-30" x="63.623047"/>
      </g>
     </g>
    </g>
   </g>
   <g id="line2d_13">
    <path d="M 63.455455 119.76 
L 69.643732 118.444211 
L 75.83201 117.128421 
L 82.020287 115.812632 
L 88.208565 114.496842 
L 94.396842 113.181053 
L 100.58512 111.865263 
L 106.773397 110.549474 
L 112.961675 109.233684 
L 119.149952 107.917895 
L 125.33823 106.602105 
L 131.526507 105.286316 
L 137.714785 103.970526 
L 143.903062 102.654737 
L 150.09134 101.338947 
L 156.279617 100.023158 
L 162.467895 98.707368 
L 168.656172 97.391579 
L 174.84445 96.075789 
L 181.032727 94.76 
L 187.221005 93.444211 
L 193.409282 92.128421 
L 199.59756 90.812632 
L 205.785837 89.496842 
L 211.974115 88.181053 
L 218.162392 86.865263 
L 224.35067 85.549474 
L 230.538947 84.233684 
L 236.727225 82.917895 
L 242.915502 81.602105 
L 249.10378 80.286316 
L 255.292057 78.970526 
L 261.480335 77.654737 
L 267.668612 76.338947 
L 273.85689 75.023158 
L 280.045167 73.707368 
L 286.233445 72.391579 
L 292.421722 71.075789 
L 298.61 69.76 
L 304.798278 68.444211 
L 310.986555 67.128421 
L 317.174833 65.812632 
L 323.36311 64.496842 
L 329.551388 63.181053 
L 335.739665 61.865263 
L 341.927943 60.549474 
L 348.11622 59.233684 
L 354.304498 57.917895 
L 360.492775 56.602105 
L 366.681053 55.286316 
L 372.86933 53.970526 
L 379.057608 52.654737 
L 385.245885 51.338947 
L 391.434163 50.023158 
L 397.62244 48.707368 
L 403.810718 47.391579 
L 409.998995 46.075789 
L 416.187273 44.76 
L 422.37555 43.444211 
L 428.563828 42.128421 
L 434.752105 40.812632 
L 440.940383 39.496842 
L 447.12866 38.181053 
L 453.316938 36.865263 
L 459.505215 35.549474 
L 465.693493 34.233684 
L 471.88177 32.917895 
L 478.070048 31.602105 
L 484.258325 30.286316 
L 490.446603 28.970526 
L 496.63488 27.654737 
L 502.823158 26.338947 
L 509.011435 25.023158 
L 515.199713 23.707368 
L 521.38799 22.391579 
L 527.576268 21.075789 
L 533.764545 19.76 
" clip-path="url(#p84df3336a6)" style="fill: none; stroke: #1f77b4; stroke-width: 1.5; stroke-linecap: square"/>
   </g>
   <g id="patch_3">
    <path d="M 39.94 124.76 
L 39.94 14.76 
" style="fill: none; stroke: #000000; stroke-width: 0.8; stroke-linejoin: miter; stroke-linecap: square"/>
   </g>
   <g id="patch_4">
    <path d="M 557.28 124.76 
L 557.28 14.76 
" style="fill: none; stroke: #000000; stroke-width: 0.8; stroke-linejoin: miter; stroke-linecap: square"/>
   </g>
   <g id="patch_5">
    <path d="M 39.94 124.76 
L 557.28 124.76 
" style="fill: none; stroke: #000000; stroke-width: 0.8; stroke-linejoin: miter; stroke-linecap: square"/>
   </g>
   <g id="patch_6">
    <path d="M 39.94 14.76 
L 557.28 14.76 
" style="fill: none; stroke: #000000; stroke-width: 0.8; stroke-linejoin: miter; stroke-linecap: square"/>
   </g>
   <g id="text_13">
    <!-- epoch -->
    <g transform="translate(280.33625 8.76) scale(0.12 -0.12)">
     <defs>
      <path id="DejaVuSans-65" d="M 3597 1894 
L 3597 1613 
L 953 1613 
Q 991 1019 1311 708 
Q 1631 397 2203 397 
Q 2534 397 2845 478 
Q 3156 559 3463 722 
L 3463 178 
Q 3153 47 2828 -22 
Q 2503 -91 2169 -91 
Q 1331 -91 842 396 
Q 353 884 353 1716 
Q 353 2575 817 3079 
Q 1281 3584 2069 3584 
Q 2775 3584 3186 3129 
Q 3597 2675 3597 1894 
z
M 3022 2063 
Q 3016 2534 2758 2815 
Q 2500 3097 2075 3097 
Q 1594 3097 1305 2825 
Q 1016 2553 972 2059 
L 3022 2063 
z
" transform="scale(0.015625)"/>
      <path id="DejaVuSans-70" d="M 1159 525 
L 1159 -1331 
L 581 -1331 
L 581 3500 
L 1159 3500 
L 1159 2969 
Q 1341 3281 1617 3432 
Q 1894 3584 2278 3584 
Q 2916 3584 3314 3078 
Q 3713 2572 3713 1747 
Q 3713 922 3314 415 
Q 2916 -91 2278 -91 
Q 1894 -91 1617 61 
Q 1341 213 1159 525 
z
M 3116 1747 
Q 3116 2381 2855 2742 
Q 2594 3103 2138 3103 
Q 1681 3103 1420 2742 
Q 1159 2381 1159 1747 
Q 1159 1113 1420 752 
Q 1681 391 2138 391 
Q 2594 391 2855 752 
Q 3116 1113 3116 1747 
z
" transform="scale(0.015625)"/>
      <path id="DejaVuSans-6f" d="M 1959 3097 
Q 1497 3097 1228 2736 
Q 959 2375 959 1747 
Q 959 1119 1226 758 
Q 1494 397 1959 397 
Q 2419 397 2687 759 
Q 2956 1122 2956 1747 
Q 2956 2369 2687 2733 
Q 2419 3097 1959 3097 
z
M 1959 3584 
Q 2709 3584 3137 3096 
Q 3566 2609 3566 1747 
Q 3566 888 3137 398 
Q 2709 -91 1959 -91 
Q 1206 -91 779 398 
Q 353 888 353 1747 
Q 353 2609 779 3096 
Q 1206 3584 1959 3584 
z
" transform="scale(0.015625)"/>
      <path id="DejaVuSans-63" d="M 3122 3366 
L 3122 2828 
Q 2878 2963 2633 3030 
Q 2388 3097 2138 3097 
Q 1578 3097 1268 2742 
Q 959 2388 959 1747 
Q 959 1106 1268 751 
Q 1578 397 2138 397 
Q 2388 397 2633 464 
Q 2878 531 3122 666 
L 3122 134 
Q 2881 22 2623 -34 
Q 2366 -91 2075 -91 
Q 1284 -91 818 406 
Q 353 903 353 1747 
Q 353 2603 823 3093 
Q 1294 3584 2113 3584 
Q 2378 3584 2631 3529 
Q 2884 3475 3122 3366 
z
" transform="scale(0.015625)"/>
      <path id="DejaVuSans-68" d="M 3513 2113 
L 3513 0 
L 2938 0 
L 2938 2094 
Q 2938 2591 2744 2837 
Q 2550 3084 2163 3084 
Q 1697 3084 1428 2787 
Q 1159 2491 1159 1978 
L 1159 0 
L 581 0 
L 581 4863 
L 1159 4863 
L 1159 2956 
Q 1366 3272 1645 3428 
Q 1925 3584 2291 3584 
Q 2894 3584 3203 3211 
Q 3513 2838 3513 2113 
z
" transform="scale(0.015625)"/>
     </defs>
     <use xlink:href="#DejaVuSans-65"/>
     <use xlink:href="#DejaVuSans-70" x="61.523438"/>
     <use xlink:href="#DejaVuSans-6f" x="125"/>
     <use xlink:href="#DejaVuSans-63" x="186.181641"/>
     <use xlink:href="#DejaVuSans-68" x="241.162109"/>
    </g>
   </g>
  </g>
  <g id="axes_2">
   <g id="patch_7">
    <path d="M 39.94 266.6 
L 557.28 266.6 
L 557.28 156.6 
L 39.94 156.6 
z
" style="fill: #ffffff"/>
   </g>
   <g id="matplotlib.axis_3">
    <g id="xtick_9">
     <g id="line2d_14">
      <g>
       <use xlink:href="#m8c274d0e4d" x="63.455455" y="266.6" style="stroke: #000000; stroke-width: 0.8"/>
      </g>
     </g>
     <g id="text_14">
      <!-- 0 -->
      <g transform="translate(60.274205 281.198438) scale(0.1 -0.1)">
       <use xlink:href="#DejaVuSans-30"/>
      </g>
     </g>
    </g>
    <g id="xtick_10">
     <g id="line2d_15">
      <g>
       <use xlink:href="#m8c274d0e4d" x="125.33823" y="266.6" style="stroke: #000000; stroke-width: 0.8"/>
      </g>
     </g>
     <g id="text_15">
      <!-- 10 -->
      <g transform="translate(118.97573 281.198438) scale(0.1 -0.1)">
       <use xlink:href="#DejaVuSans-31"/>
       <use xlink:href="#DejaVuSans-30" x="63.623047"/>
      </g>
     </g>
    </g>
    <g id="xtick_11">
     <g id="line2d_16">
      <g>
       <use xlink:href="#m8c274d0e4d" x="187.221005" y="266.6" style="stroke: #000000; stroke-width: 0.8"/>
      </g>
     </g>
     <g id="text_16">
      <!-- 20 -->
      <g transform="translate(180.858505 281.198438) scale(0.1 -0.1)">
       <use xlink:href="#DejaVuSans-32"/>
       <use xlink:href="#DejaVuSans-30" x="63.623047"/>
      </g>
     </g>
    </g>
    <g id="xtick_12">
     <g id="line2d_17">
      <g>
       <use xlink:href="#m8c274d0e4d" x="249.10378" y="266.6" style="stroke: #000000; stroke-width: 0.8"/>
      </g>
     </g>
     <g id="text_17">
      <!-- 30 -->
      <g transform="translate(242.74128 281.198438) scale(0.1 -0.1)">
       <use xlink:href="#DejaVuSans-33"/>
       <use xlink:href="#DejaVuSans-30" x="63.623047"/>
      </g>
     </g>
    </g>
    <g id="xtick_13">
     <g id="line2d_18">
      <g>
       <use xlink:href="#m8c274d0e4d" x="310.986555" y="266.6" style="stroke: #000000; stroke-width: 0.8"/>
      </g>
     </g>
     <g id="text_18">
      <!-- 40 -->
      <g transform="translate(304.624055 281.198438) scale(0.1 -0.1)">
       <use xlink:href="#DejaVuSans-34"/>
       <use xlink:href="#DejaVuSans-30" x="63.623047"/>
      </g>
     </g>
    </g>
    <g id="xtick_14">
     <g id="line2d_19">
      <g>
       <use xlink:href="#m8c274d0e4d" x="372.86933" y="266.6" style="stroke: #000000; stroke-width: 0.8"/>
      </g>
     </g>
     <g id="text_19">
      <!-- 50 -->
      <g transform="translate(366.50683 281.198438) scale(0.1 -0.1)">
       <use xlink:href="#DejaVuSans-35"/>
       <use xlink:href="#DejaVuSans-30" x="63.623047"/>
      </g>
     </g>
    </g>
    <g id="xtick_15">
     <g id="line2d_20">
      <g>
       <use xlink:href="#m8c274d0e4d" x="434.752105" y="266.6" style="stroke: #000000; stroke-width: 0.8"/>
      </g>
     </g>
     <g id="text_20">
      <!-- 60 -->
      <g transform="translate(428.389605 281.198438) scale(0.1 -0.1)">
       <use xlink:href="#DejaVuSans-36"/>
       <use xlink:href="#DejaVuSans-30" x="63.623047"/>
      </g>
     </g>
    </g>
    <g id="xtick_16">
     <g id="line2d_21">
      <g>
       <use xlink:href="#m8c274d0e4d" x="496.63488" y="266.6" style="stroke: #000000; stroke-width: 0.8"/>
      </g>
     </g>
     <g id="text_21">
      <!-- 70 -->
      <g transform="translate(490.27238 281.198438) scale(0.1 -0.1)">
       <use xlink:href="#DejaVuSans-37"/>
       <use xlink:href="#DejaVuSans-30" x="63.623047"/>
      </g>
     </g>
    </g>
   </g>
   <g id="matplotlib.axis_4">
    <g id="ytick_5">
     <g id="line2d_22">
      <g>
       <use xlink:href="#m22d4ae1447" x="39.94" y="262.718651" style="stroke: #000000; stroke-width: 0.8"/>
      </g>
     </g>
     <g id="text_22">
      <!-- 0.0 -->
      <g transform="translate(17.036875 266.51787) scale(0.1 -0.1)">
       <defs>
        <path id="DejaVuSans-2e" d="M 684 794 
L 1344 794 
L 1344 0 
L 684 0 
L 684 794 
z
" transform="scale(0.015625)"/>
       </defs>
       <use xlink:href="#DejaVuSans-30"/>
       <use xlink:href="#DejaVuSans-2e" x="63.623047"/>
       <use xlink:href="#DejaVuSans-30" x="95.410156"/>
      </g>
     </g>
    </g>
    <g id="ytick_6">
     <g id="line2d_23">
      <g>
       <use xlink:href="#m22d4ae1447" x="39.94" y="235.931621" style="stroke: #000000; stroke-width: 0.8"/>
      </g>
     </g>
     <g id="text_23">
      <!-- 0.5 -->
      <g transform="translate(17.036875 239.73084) scale(0.1 -0.1)">
       <use xlink:href="#DejaVuSans-30"/>
       <use xlink:href="#DejaVuSans-2e" x="63.623047"/>
       <use xlink:href="#DejaVuSans-35" x="95.410156"/>
      </g>
     </g>
    </g>
    <g id="ytick_7">
     <g id="line2d_24">
      <g>
       <use xlink:href="#m22d4ae1447" x="39.94" y="209.144592" style="stroke: #000000; stroke-width: 0.8"/>
      </g>
     </g>
     <g id="text_24">
      <!-- 1.0 -->
      <g transform="translate(17.036875 212.94381) scale(0.1 -0.1)">
       <use xlink:href="#DejaVuSans-31"/>
       <use xlink:href="#DejaVuSans-2e" x="63.623047"/>
       <use xlink:href="#DejaVuSans-30" x="95.410156"/>
      </g>
     </g>
    </g>
    <g id="ytick_8">
     <g id="line2d_25">
      <g>
       <use xlink:href="#m22d4ae1447" x="39.94" y="182.357562" style="stroke: #000000; stroke-width: 0.8"/>
      </g>
     </g>
     <g id="text_25">
      <!-- 1.5 -->
      <g transform="translate(17.036875 186.156781) scale(0.1 -0.1)">
       <use xlink:href="#DejaVuSans-31"/>
       <use xlink:href="#DejaVuSans-2e" x="63.623047"/>
       <use xlink:href="#DejaVuSans-35" x="95.410156"/>
      </g>
     </g>
    </g>
   </g>
   <g id="line2d_26">
    <path d="M 63.455455 161.6 
L 69.643732 174.74573 
L 75.83201 186.249766 
L 82.020287 194.083223 
L 88.208565 207.832672 
L 94.396842 214.508414 
L 100.58512 215.501662 
L 106.773397 215.449948 
L 112.961675 215.737392 
L 119.149952 215.566186 
L 125.33823 216.087735 
L 131.526507 215.812661 
L 137.714785 215.812565 
L 143.903062 215.835879 
L 150.09134 216.05395 
L 156.279617 213.459098 
L 162.467895 216.35366 
L 168.656172 216.226086 
L 174.84445 216.381901 
L 181.032727 216.880539 
L 187.221005 217.111488 
L 193.409282 217.412722 
L 199.59756 222.349295 
L 205.785837 220.335442 
L 211.974115 232.156626 
L 218.162392 225.277693 
L 224.35067 246.972156 
L 230.538947 249.725292 
L 236.727225 253.705145 
L 242.915502 255.434142 
L 249.10378 254.538229 
L 255.292057 254.785643 
L 261.480335 257.542523 
L 267.668612 244.621664 
L 273.85689 259.837266 
L 280.045167 258.531149 
L 286.233445 256.473882 
L 292.421722 260.391856 
L 298.61 259.933239 
L 304.798278 260.631895 
L 310.986555 260.742494 
L 317.174833 260.84671 
L 323.36311 260.925316 
L 329.551388 260.964276 
L 335.739665 229.959393 
L 341.927943 260.558242 
L 348.11622 260.686342 
L 354.304498 253.345222 
L 360.492775 255.133764 
L 366.681053 229.230259 
L 372.86933 261.045461 
L 379.057608 261.111324 
L 385.245885 261.167213 
L 391.434163 188.903706 
L 397.62244 259.312929 
L 403.810718 257.887226 
L 409.998995 261.239292 
L 416.187273 261.281938 
L 422.37555 261.319811 
L 428.563828 259.870915 
L 434.752105 261.288305 
L 440.940383 261.389401 
L 447.12866 253.114777 
L 453.316938 261.426146 
L 459.505215 261.44297 
L 465.693493 261.38279 
L 471.88177 260.714735 
L 478.070048 261.462748 
L 484.258325 261.504272 
L 490.446603 261.447632 
L 496.63488 261.535101 
L 502.823158 181.969108 
L 509.011435 261.490125 
L 515.199713 261.568952 
L 521.38799 261.591828 
L 527.576268 261.385326 
L 533.764545 261.6 
" clip-path="url(#pababe1ed3c)" style="fill: none; stroke: #1f77b4; stroke-width: 1.5; stroke-linecap: square"/>
   </g>
   <g id="patch_8">
    <path d="M 39.94 266.6 
L 39.94 156.6 
" style="fill: none; stroke: #000000; stroke-width: 0.8; stroke-linejoin: miter; stroke-linecap: square"/>
   </g>
   <g id="patch_9">
    <path d="M 557.28 266.6 
L 557.28 156.6 
" style="fill: none; stroke: #000000; stroke-width: 0.8; stroke-linejoin: miter; stroke-linecap: square"/>
   </g>
   <g id="patch_10">
    <path d="M 39.94 266.6 
L 557.28 266.6 
" style="fill: none; stroke: #000000; stroke-width: 0.8; stroke-linejoin: miter; stroke-linecap: square"/>
   </g>
   <g id="patch_11">
    <path d="M 39.94 156.6 
L 557.28 156.6 
" style="fill: none; stroke: #000000; stroke-width: 0.8; stroke-linejoin: miter; stroke-linecap: square"/>
   </g>
   <g id="text_26">
    <!-- loss -->
    <g transform="translate(287.020625 150.6) scale(0.12 -0.12)">
     <defs>
      <path id="DejaVuSans-6c" d="M 603 4863 
L 1178 4863 
L 1178 0 
L 603 0 
L 603 4863 
z
" transform="scale(0.015625)"/>
      <path id="DejaVuSans-73" d="M 2834 3397 
L 2834 2853 
Q 2591 2978 2328 3040 
Q 2066 3103 1784 3103 
Q 1356 3103 1142 2972 
Q 928 2841 928 2578 
Q 928 2378 1081 2264 
Q 1234 2150 1697 2047 
L 1894 2003 
Q 2506 1872 2764 1633 
Q 3022 1394 3022 966 
Q 3022 478 2636 193 
Q 2250 -91 1575 -91 
Q 1294 -91 989 -36 
Q 684 19 347 128 
L 347 722 
Q 666 556 975 473 
Q 1284 391 1588 391 
Q 1994 391 2212 530 
Q 2431 669 2431 922 
Q 2431 1156 2273 1281 
Q 2116 1406 1581 1522 
L 1381 1569 
Q 847 1681 609 1914 
Q 372 2147 372 2553 
Q 372 3047 722 3315 
Q 1072 3584 1716 3584 
Q 2034 3584 2315 3537 
Q 2597 3491 2834 3397 
z
" transform="scale(0.015625)"/>
     </defs>
     <use xlink:href="#DejaVuSans-6c"/>
     <use xlink:href="#DejaVuSans-6f" x="27.783203"/>
     <use xlink:href="#DejaVuSans-73" x="88.964844"/>
     <use xlink:href="#DejaVuSans-73" x="141.064453"/>
    </g>
   </g>
  </g>
  <g id="axes_3">
   <g id="patch_12">
    <path d="M 39.94 408.44 
L 557.28 408.44 
L 557.28 298.44 
L 39.94 298.44 
z
" style="fill: #ffffff"/>
   </g>
   <g id="matplotlib.axis_5">
    <g id="xtick_17">
     <g id="line2d_27">
      <g>
       <use xlink:href="#m8c274d0e4d" x="63.455455" y="408.44" style="stroke: #000000; stroke-width: 0.8"/>
      </g>
     </g>
     <g id="text_27">
      <!-- 0 -->
      <g transform="translate(60.274205 423.038437) scale(0.1 -0.1)">
       <use xlink:href="#DejaVuSans-30"/>
      </g>
     </g>
    </g>
    <g id="xtick_18">
     <g id="line2d_28">
      <g>
       <use xlink:href="#m8c274d0e4d" x="125.33823" y="408.44" style="stroke: #000000; stroke-width: 0.8"/>
      </g>
     </g>
     <g id="text_28">
      <!-- 10 -->
      <g transform="translate(118.97573 423.038437) scale(0.1 -0.1)">
       <use xlink:href="#DejaVuSans-31"/>
       <use xlink:href="#DejaVuSans-30" x="63.623047"/>
      </g>
     </g>
    </g>
    <g id="xtick_19">
     <g id="line2d_29">
      <g>
       <use xlink:href="#m8c274d0e4d" x="187.221005" y="408.44" style="stroke: #000000; stroke-width: 0.8"/>
      </g>
     </g>
     <g id="text_29">
      <!-- 20 -->
      <g transform="translate(180.858505 423.038437) scale(0.1 -0.1)">
       <use xlink:href="#DejaVuSans-32"/>
       <use xlink:href="#DejaVuSans-30" x="63.623047"/>
      </g>
     </g>
    </g>
    <g id="xtick_20">
     <g id="line2d_30">
      <g>
       <use xlink:href="#m8c274d0e4d" x="249.10378" y="408.44" style="stroke: #000000; stroke-width: 0.8"/>
      </g>
     </g>
     <g id="text_30">
      <!-- 30 -->
      <g transform="translate(242.74128 423.038437) scale(0.1 -0.1)">
       <use xlink:href="#DejaVuSans-33"/>
       <use xlink:href="#DejaVuSans-30" x="63.623047"/>
      </g>
     </g>
    </g>
    <g id="xtick_21">
     <g id="line2d_31">
      <g>
       <use xlink:href="#m8c274d0e4d" x="310.986555" y="408.44" style="stroke: #000000; stroke-width: 0.8"/>
      </g>
     </g>
     <g id="text_31">
      <!-- 40 -->
      <g transform="translate(304.624055 423.038437) scale(0.1 -0.1)">
       <use xlink:href="#DejaVuSans-34"/>
       <use xlink:href="#DejaVuSans-30" x="63.623047"/>
      </g>
     </g>
    </g>
    <g id="xtick_22">
     <g id="line2d_32">
      <g>
       <use xlink:href="#m8c274d0e4d" x="372.86933" y="408.44" style="stroke: #000000; stroke-width: 0.8"/>
      </g>
     </g>
     <g id="text_32">
      <!-- 50 -->
      <g transform="translate(366.50683 423.038437) scale(0.1 -0.1)">
       <use xlink:href="#DejaVuSans-35"/>
       <use xlink:href="#DejaVuSans-30" x="63.623047"/>
      </g>
     </g>
    </g>
    <g id="xtick_23">
     <g id="line2d_33">
      <g>
       <use xlink:href="#m8c274d0e4d" x="434.752105" y="408.44" style="stroke: #000000; stroke-width: 0.8"/>
      </g>
     </g>
     <g id="text_33">
      <!-- 60 -->
      <g transform="translate(428.389605 423.038437) scale(0.1 -0.1)">
       <use xlink:href="#DejaVuSans-36"/>
       <use xlink:href="#DejaVuSans-30" x="63.623047"/>
      </g>
     </g>
    </g>
    <g id="xtick_24">
     <g id="line2d_34">
      <g>
       <use xlink:href="#m8c274d0e4d" x="496.63488" y="408.44" style="stroke: #000000; stroke-width: 0.8"/>
      </g>
     </g>
     <g id="text_34">
      <!-- 70 -->
      <g transform="translate(490.27238 423.038437) scale(0.1 -0.1)">
       <use xlink:href="#DejaVuSans-37"/>
       <use xlink:href="#DejaVuSans-30" x="63.623047"/>
      </g>
     </g>
    </g>
   </g>
   <g id="matplotlib.axis_6">
    <g id="ytick_9">
     <g id="line2d_35">
      <g>
       <use xlink:href="#m22d4ae1447" x="39.94" y="403.440848" style="stroke: #000000; stroke-width: 0.8"/>
      </g>
     </g>
     <g id="text_35">
      <!-- 0.0 -->
      <g transform="translate(17.036875 407.240067) scale(0.1 -0.1)">
       <use xlink:href="#DejaVuSans-30"/>
       <use xlink:href="#DejaVuSans-2e" x="63.623047"/>
       <use xlink:href="#DejaVuSans-30" x="95.410156"/>
      </g>
     </g>
    </g>
    <g id="ytick_10">
     <g id="line2d_36">
      <g>
       <use xlink:href="#m22d4ae1447" x="39.94" y="368.378815" style="stroke: #000000; stroke-width: 0.8"/>
      </g>
     </g>
     <g id="text_36">
      <!-- 0.5 -->
      <g transform="translate(17.036875 372.178034) scale(0.1 -0.1)">
       <use xlink:href="#DejaVuSans-30"/>
       <use xlink:href="#DejaVuSans-2e" x="63.623047"/>
       <use xlink:href="#DejaVuSans-35" x="95.410156"/>
      </g>
     </g>
    </g>
    <g id="ytick_11">
     <g id="line2d_37">
      <g>
       <use xlink:href="#m22d4ae1447" x="39.94" y="333.316781" style="stroke: #000000; stroke-width: 0.8"/>
      </g>
     </g>
     <g id="text_37">
      <!-- 1.0 -->
      <g transform="translate(17.036875 337.116) scale(0.1 -0.1)">
       <use xlink:href="#DejaVuSans-31"/>
       <use xlink:href="#DejaVuSans-2e" x="63.623047"/>
       <use xlink:href="#DejaVuSans-30" x="95.410156"/>
      </g>
     </g>
    </g>
   </g>
   <g id="line2d_38">
    <path d="M 63.455455 353.077177 
L 69.643732 354.715778 
L 75.83201 354.980417 
L 82.020287 356.122011 
L 88.208565 353.649506 
L 94.396842 354.55883 
L 100.58512 355.059585 
L 106.773397 354.712744 
L 112.961675 354.92272 
L 119.149952 354.589918 
L 125.33823 355.132805 
L 131.526507 354.603335 
L 137.714785 354.609003 
L 143.903062 354.695448 
L 150.09134 354.719042 
L 156.279617 351.0219 
L 162.467895 354.96843 
L 168.656172 354.712317 
L 174.84445 354.687832 
L 181.032727 355.453085 
L 187.221005 355.718882 
L 193.409282 356.018906 
L 199.59756 361.762586 
L 205.785837 359.712755 
L 211.974115 373.660389 
L 218.162392 364.857601 
L 224.35067 390.02778 
L 230.538947 393.414201 
L 236.727225 397.636615 
L 242.915502 399.228493 
L 249.10378 398.931439 
L 255.292057 397.919776 
L 261.480335 401.407305 
L 267.668612 384.834845 
L 273.85689 403.021755 
L 280.045167 402.205349 
L 286.233445 398.792755 
L 292.421722 403.322649 
L 298.61 403.047939 
L 304.798278 403.409069 
L 310.986555 403.429812 
L 317.174833 403.434171 
L 323.36311 403.434107 
L 329.551388 403.43047 
L 335.739665 366.461285 
L 341.927943 403.240916 
L 348.11622 403.293551 
L 354.304498 393.590701 
L 360.492775 397.895887 
L 366.681053 365.664312 
L 372.86933 403.43527 
L 379.057608 403.437769 
L 385.245885 403.438673 
L 391.434163 311.090117 
L 397.62244 401.215512 
L 403.810718 401.188393 
L 409.998995 403.438593 
L 416.187273 403.437911 
L 422.37555 403.438856 
L 428.563828 403.372408 
L 434.752105 403.41026 
L 440.940383 403.439695 
L 447.12866 398.219277 
L 453.316938 403.439361 
L 459.505215 403.434745 
L 465.693493 403.420975 
L 471.88177 403.061781 
L 478.070048 403.439164 
L 484.258325 403.439577 
L 490.446603 403.43294 
L 496.63488 403.436899 
L 502.823158 303.44 
L 509.011435 403.431923 
L 515.199713 403.439542 
L 521.38799 403.439612 
L 527.576268 403.421471 
L 533.764545 403.44 
" clip-path="url(#pdac0a6878c)" style="fill: none; stroke: #1f77b4; stroke-width: 1.5; stroke-linecap: square"/>
   </g>
   <g id="patch_13">
    <path d="M 39.94 408.44 
L 39.94 298.44 
" style="fill: none; stroke: #000000; stroke-width: 0.8; stroke-linejoin: miter; stroke-linecap: square"/>
   </g>
   <g id="patch_14">
    <path d="M 557.28 408.44 
L 557.28 298.44 
" style="fill: none; stroke: #000000; stroke-width: 0.8; stroke-linejoin: miter; stroke-linecap: square"/>
   </g>
   <g id="patch_15">
    <path d="M 39.94 408.44 
L 557.28 408.44 
" style="fill: none; stroke: #000000; stroke-width: 0.8; stroke-linejoin: miter; stroke-linecap: square"/>
   </g>
   <g id="patch_16">
    <path d="M 39.94 298.44 
L 557.28 298.44 
" style="fill: none; stroke: #000000; stroke-width: 0.8; stroke-linejoin: miter; stroke-linecap: square"/>
   </g>
   <g id="text_38">
    <!-- L_cls -->
    <g transform="translate(284.175312 292.44) scale(0.12 -0.12)">
     <defs>
      <path id="DejaVuSans-4c" d="M 628 4666 
L 1259 4666 
L 1259 531 
L 3531 531 
L 3531 0 
L 628 0 
L 628 4666 
z
" transform="scale(0.015625)"/>
      <path id="DejaVuSans-5f" d="M 3263 -1063 
L 3263 -1509 
L -63 -1509 
L -63 -1063 
L 3263 -1063 
z
" transform="scale(0.015625)"/>
     </defs>
     <use xlink:href="#DejaVuSans-4c"/>
     <use xlink:href="#DejaVuSans-5f" x="55.712891"/>
     <use xlink:href="#DejaVuSans-63" x="105.712891"/>
     <use xlink:href="#DejaVuSans-6c" x="160.693359"/>
     <use xlink:href="#DejaVuSans-73" x="188.476562"/>
    </g>
   </g>
  </g>
  <g id="axes_4">
   <g id="patch_17">
    <path d="M 39.94 550.28 
L 557.28 550.28 
L 557.28 440.28 
L 39.94 440.28 
z
" style="fill: #ffffff"/>
   </g>
   <g id="matplotlib.axis_7">
    <g id="xtick_25">
     <g id="line2d_39">
      <g>
       <use xlink:href="#m8c274d0e4d" x="63.455455" y="550.28" style="stroke: #000000; stroke-width: 0.8"/>
      </g>
     </g>
     <g id="text_39">
      <!-- 0 -->
      <g transform="translate(60.274205 564.878438) scale(0.1 -0.1)">
       <use xlink:href="#DejaVuSans-30"/>
      </g>
     </g>
    </g>
    <g id="xtick_26">
     <g id="line2d_40">
      <g>
       <use xlink:href="#m8c274d0e4d" x="125.33823" y="550.28" style="stroke: #000000; stroke-width: 0.8"/>
      </g>
     </g>
     <g id="text_40">
      <!-- 10 -->
      <g transform="translate(118.97573 564.878438) scale(0.1 -0.1)">
       <use xlink:href="#DejaVuSans-31"/>
       <use xlink:href="#DejaVuSans-30" x="63.623047"/>
      </g>
     </g>
    </g>
    <g id="xtick_27">
     <g id="line2d_41">
      <g>
       <use xlink:href="#m8c274d0e4d" x="187.221005" y="550.28" style="stroke: #000000; stroke-width: 0.8"/>
      </g>
     </g>
     <g id="text_41">
      <!-- 20 -->
      <g transform="translate(180.858505 564.878438) scale(0.1 -0.1)">
       <use xlink:href="#DejaVuSans-32"/>
       <use xlink:href="#DejaVuSans-30" x="63.623047"/>
      </g>
     </g>
    </g>
    <g id="xtick_28">
     <g id="line2d_42">
      <g>
       <use xlink:href="#m8c274d0e4d" x="249.10378" y="550.28" style="stroke: #000000; stroke-width: 0.8"/>
      </g>
     </g>
     <g id="text_42">
      <!-- 30 -->
      <g transform="translate(242.74128 564.878438) scale(0.1 -0.1)">
       <use xlink:href="#DejaVuSans-33"/>
       <use xlink:href="#DejaVuSans-30" x="63.623047"/>
      </g>
     </g>
    </g>
    <g id="xtick_29">
     <g id="line2d_43">
      <g>
       <use xlink:href="#m8c274d0e4d" x="310.986555" y="550.28" style="stroke: #000000; stroke-width: 0.8"/>
      </g>
     </g>
     <g id="text_43">
      <!-- 40 -->
      <g transform="translate(304.624055 564.878438) scale(0.1 -0.1)">
       <use xlink:href="#DejaVuSans-34"/>
       <use xlink:href="#DejaVuSans-30" x="63.623047"/>
      </g>
     </g>
    </g>
    <g id="xtick_30">
     <g id="line2d_44">
      <g>
       <use xlink:href="#m8c274d0e4d" x="372.86933" y="550.28" style="stroke: #000000; stroke-width: 0.8"/>
      </g>
     </g>
     <g id="text_44">
      <!-- 50 -->
      <g transform="translate(366.50683 564.878438) scale(0.1 -0.1)">
       <use xlink:href="#DejaVuSans-35"/>
       <use xlink:href="#DejaVuSans-30" x="63.623047"/>
      </g>
     </g>
    </g>
    <g id="xtick_31">
     <g id="line2d_45">
      <g>
       <use xlink:href="#m8c274d0e4d" x="434.752105" y="550.28" style="stroke: #000000; stroke-width: 0.8"/>
      </g>
     </g>
     <g id="text_45">
      <!-- 60 -->
      <g transform="translate(428.389605 564.878438) scale(0.1 -0.1)">
       <use xlink:href="#DejaVuSans-36"/>
       <use xlink:href="#DejaVuSans-30" x="63.623047"/>
      </g>
     </g>
    </g>
    <g id="xtick_32">
     <g id="line2d_46">
      <g>
       <use xlink:href="#m8c274d0e4d" x="496.63488" y="550.28" style="stroke: #000000; stroke-width: 0.8"/>
      </g>
     </g>
     <g id="text_46">
      <!-- 70 -->
      <g transform="translate(490.27238 564.878438) scale(0.1 -0.1)">
       <use xlink:href="#DejaVuSans-37"/>
       <use xlink:href="#DejaVuSans-30" x="63.623047"/>
      </g>
     </g>
    </g>
   </g>
   <g id="matplotlib.axis_8">
    <g id="ytick_12">
     <g id="line2d_47">
      <g>
       <use xlink:href="#m22d4ae1447" x="39.94" y="547.097201" style="stroke: #000000; stroke-width: 0.8"/>
      </g>
     </g>
     <g id="text_47">
      <!-- 0 -->
      <g transform="translate(26.5775 550.89642) scale(0.1 -0.1)">
       <use xlink:href="#DejaVuSans-30"/>
      </g>
     </g>
    </g>
    <g id="ytick_13">
     <g id="line2d_48">
      <g>
       <use xlink:href="#m22d4ae1447" x="39.94" y="512.265494" style="stroke: #000000; stroke-width: 0.8"/>
      </g>
     </g>
     <g id="text_48">
      <!-- 2 -->
      <g transform="translate(26.5775 516.064713) scale(0.1 -0.1)">
       <use xlink:href="#DejaVuSans-32"/>
      </g>
     </g>
    </g>
    <g id="ytick_14">
     <g id="line2d_49">
      <g>
       <use xlink:href="#m22d4ae1447" x="39.94" y="477.433788" style="stroke: #000000; stroke-width: 0.8"/>
      </g>
     </g>
     <g id="text_49">
      <!-- 4 -->
      <g transform="translate(26.5775 481.233006) scale(0.1 -0.1)">
       <use xlink:href="#DejaVuSans-34"/>
      </g>
     </g>
    </g>
    <g id="ytick_15">
     <g id="line2d_50">
      <g>
       <use xlink:href="#m22d4ae1447" x="39.94" y="442.602081" style="stroke: #000000; stroke-width: 0.8"/>
      </g>
     </g>
     <g id="text_50">
      <!-- 6 -->
      <g transform="translate(26.5775 446.4013) scale(0.1 -0.1)">
       <use xlink:href="#DejaVuSans-36"/>
      </g>
     </g>
    </g>
   </g>
   <g id="line2d_51">
    <path d="M 63.455455 445.28 
L 69.643732 464.612264 
L 75.83201 482.982307 
L 82.020287 494.297178 
L 88.208565 519.715858 
L 94.396842 529.437423 
L 100.58512 530.430016 
L 106.773397 530.776665 
L 112.961675 530.983129 
L 119.149952 531.118119 
L 125.33823 531.291694 
L 131.526507 531.502083 
L 137.714785 531.494889 
L 143.903062 531.425433 
L 150.09134 531.75059 
L 156.279617 532.123985 
L 162.467895 531.928052 
L 168.656172 532.038728 
L 174.84445 532.322397 
L 181.032727 532.182603 
L 187.221005 532.227919 
L 193.409282 532.344982 
L 199.59756 533.236451 
L 205.785837 532.508587 
L 211.974115 534.402726 
L 218.162392 534.152911 
L 224.35067 538.159047 
L 230.538947 538.428774 
L 236.727225 539.65428 
L 242.915502 540.487818 
L 249.10378 539.400476 
L 255.292057 541.058897 
L 261.480335 541.209155 
L 267.668612 540.787086 
L 273.85689 542.934224 
L 280.045167 541.825065 
L 286.233445 542.718905 
L 292.421722 543.462007 
L 298.61 543.057705 
L 304.798278 543.744852 
L 310.986555 543.898862 
L 317.174833 544.06284 
L 323.36311 544.190688 
L 329.551388 544.258529 
L 335.739665 539.771111 
L 341.927943 543.833947 
L 348.11622 543.976799 
L 354.304498 544.093433 
L 360.492775 541.654398 
L 366.681053 539.575645 
L 372.86933 544.384525 
L 379.057608 544.488477 
L 385.245885 544.578196 
L 391.434163 541.79849 
L 397.62244 544.324939 
L 403.810718 542.041279 
L 409.998995 544.695453 
L 416.187273 544.765616 
L 422.37555 544.826002 
L 428.563828 542.55348 
L 434.752105 544.810303 
L 440.940383 544.938071 
L 447.12866 537.971154 
L 453.316938 544.998212 
L 459.505215 545.031289 
L 465.693493 544.950571 
L 471.88177 544.310758 
L 478.070048 545.057948 
L 484.258325 545.124929 
L 490.446603 545.041108 
L 496.63488 545.178364 
L 502.823158 540.026819 
L 509.011435 545.11144 
L 515.199713 545.230104 
L 521.38799 545.267199 
L 527.576268 544.954079 
L 533.764545 545.28 
" clip-path="url(#pb3d4d6f791)" style="fill: none; stroke: #1f77b4; stroke-width: 1.5; stroke-linecap: square"/>
   </g>
   <g id="patch_18">
    <path d="M 39.94 550.28 
L 39.94 440.28 
" style="fill: none; stroke: #000000; stroke-width: 0.8; stroke-linejoin: miter; stroke-linecap: square"/>
   </g>
   <g id="patch_19">
    <path d="M 557.28 550.28 
L 557.28 440.28 
" style="fill: none; stroke: #000000; stroke-width: 0.8; stroke-linejoin: miter; stroke-linecap: square"/>
   </g>
   <g id="patch_20">
    <path d="M 39.94 550.28 
L 557.28 550.28 
" style="fill: none; stroke: #000000; stroke-width: 0.8; stroke-linejoin: miter; stroke-linecap: square"/>
   </g>
   <g id="patch_21">
    <path d="M 39.94 440.28 
L 557.28 440.28 
" style="fill: none; stroke: #000000; stroke-width: 0.8; stroke-linejoin: miter; stroke-linecap: square"/>
   </g>
   <g id="text_51">
    <!-- L_logic -->
    <g transform="translate(278.15375 434.28) scale(0.12 -0.12)">
     <defs>
      <path id="DejaVuSans-67" d="M 2906 1791 
Q 2906 2416 2648 2759 
Q 2391 3103 1925 3103 
Q 1463 3103 1205 2759 
Q 947 2416 947 1791 
Q 947 1169 1205 825 
Q 1463 481 1925 481 
Q 2391 481 2648 825 
Q 2906 1169 2906 1791 
z
M 3481 434 
Q 3481 -459 3084 -895 
Q 2688 -1331 1869 -1331 
Q 1566 -1331 1297 -1286 
Q 1028 -1241 775 -1147 
L 775 -588 
Q 1028 -725 1275 -790 
Q 1522 -856 1778 -856 
Q 2344 -856 2625 -561 
Q 2906 -266 2906 331 
L 2906 616 
Q 2728 306 2450 153 
Q 2172 0 1784 0 
Q 1141 0 747 490 
Q 353 981 353 1791 
Q 353 2603 747 3093 
Q 1141 3584 1784 3584 
Q 2172 3584 2450 3431 
Q 2728 3278 2906 2969 
L 2906 3500 
L 3481 3500 
L 3481 434 
z
" transform="scale(0.015625)"/>
      <path id="DejaVuSans-69" d="M 603 3500 
L 1178 3500 
L 1178 0 
L 603 0 
L 603 3500 
z
M 603 4863 
L 1178 4863 
L 1178 4134 
L 603 4134 
L 603 4863 
z
" transform="scale(0.015625)"/>
     </defs>
     <use xlink:href="#DejaVuSans-4c"/>
     <use xlink:href="#DejaVuSans-5f" x="55.712891"/>
     <use xlink:href="#DejaVuSans-6c" x="105.712891"/>
     <use xlink:href="#DejaVuSans-6f" x="133.496094"/>
     <use xlink:href="#DejaVuSans-67" x="194.677734"/>
     <use xlink:href="#DejaVuSans-69" x="258.154297"/>
     <use xlink:href="#DejaVuSans-63" x="285.9375"/>
    </g>
   </g>
  </g>
  <g id="axes_5">
   <g id="patch_22">
    <path d="M 39.94 692.12 
L 557.28 692.12 
L 557.28 582.12 
L 39.94 582.12 
z
" style="fill: #ffffff"/>
   </g>
   <g id="matplotlib.axis_9">
    <g id="xtick_33">
     <g id="line2d_52">
      <g>
       <use xlink:href="#m8c274d0e4d" x="63.455455" y="692.12" style="stroke: #000000; stroke-width: 0.8"/>
      </g>
     </g>
     <g id="text_52">
      <!-- 0 -->
      <g transform="translate(60.274205 706.718438) scale(0.1 -0.1)">
       <use xlink:href="#DejaVuSans-30"/>
      </g>
     </g>
    </g>
    <g id="xtick_34">
     <g id="line2d_53">
      <g>
       <use xlink:href="#m8c274d0e4d" x="125.33823" y="692.12" style="stroke: #000000; stroke-width: 0.8"/>
      </g>
     </g>
     <g id="text_53">
      <!-- 10 -->
      <g transform="translate(118.97573 706.718438) scale(0.1 -0.1)">
       <use xlink:href="#DejaVuSans-31"/>
       <use xlink:href="#DejaVuSans-30" x="63.623047"/>
      </g>
     </g>
    </g>
    <g id="xtick_35">
     <g id="line2d_54">
      <g>
       <use xlink:href="#m8c274d0e4d" x="187.221005" y="692.12" style="stroke: #000000; stroke-width: 0.8"/>
      </g>
     </g>
     <g id="text_54">
      <!-- 20 -->
      <g transform="translate(180.858505 706.718438) scale(0.1 -0.1)">
       <use xlink:href="#DejaVuSans-32"/>
       <use xlink:href="#DejaVuSans-30" x="63.623047"/>
      </g>
     </g>
    </g>
    <g id="xtick_36">
     <g id="line2d_55">
      <g>
       <use xlink:href="#m8c274d0e4d" x="249.10378" y="692.12" style="stroke: #000000; stroke-width: 0.8"/>
      </g>
     </g>
     <g id="text_55">
      <!-- 30 -->
      <g transform="translate(242.74128 706.718438) scale(0.1 -0.1)">
       <use xlink:href="#DejaVuSans-33"/>
       <use xlink:href="#DejaVuSans-30" x="63.623047"/>
      </g>
     </g>
    </g>
    <g id="xtick_37">
     <g id="line2d_56">
      <g>
       <use xlink:href="#m8c274d0e4d" x="310.986555" y="692.12" style="stroke: #000000; stroke-width: 0.8"/>
      </g>
     </g>
     <g id="text_56">
      <!-- 40 -->
      <g transform="translate(304.624055 706.718438) scale(0.1 -0.1)">
       <use xlink:href="#DejaVuSans-34"/>
       <use xlink:href="#DejaVuSans-30" x="63.623047"/>
      </g>
     </g>
    </g>
    <g id="xtick_38">
     <g id="line2d_57">
      <g>
       <use xlink:href="#m8c274d0e4d" x="372.86933" y="692.12" style="stroke: #000000; stroke-width: 0.8"/>
      </g>
     </g>
     <g id="text_57">
      <!-- 50 -->
      <g transform="translate(366.50683 706.718438) scale(0.1 -0.1)">
       <use xlink:href="#DejaVuSans-35"/>
       <use xlink:href="#DejaVuSans-30" x="63.623047"/>
      </g>
     </g>
    </g>
    <g id="xtick_39">
     <g id="line2d_58">
      <g>
       <use xlink:href="#m8c274d0e4d" x="434.752105" y="692.12" style="stroke: #000000; stroke-width: 0.8"/>
      </g>
     </g>
     <g id="text_58">
      <!-- 60 -->
      <g transform="translate(428.389605 706.718438) scale(0.1 -0.1)">
       <use xlink:href="#DejaVuSans-36"/>
       <use xlink:href="#DejaVuSans-30" x="63.623047"/>
      </g>
     </g>
    </g>
    <g id="xtick_40">
     <g id="line2d_59">
      <g>
       <use xlink:href="#m8c274d0e4d" x="496.63488" y="692.12" style="stroke: #000000; stroke-width: 0.8"/>
      </g>
     </g>
     <g id="text_59">
      <!-- 70 -->
      <g transform="translate(490.27238 706.718438) scale(0.1 -0.1)">
       <use xlink:href="#DejaVuSans-37"/>
       <use xlink:href="#DejaVuSans-30" x="63.623047"/>
      </g>
     </g>
    </g>
   </g>
   <g id="matplotlib.axis_10">
    <g id="ytick_16">
     <g id="line2d_60">
      <g>
       <use xlink:href="#m22d4ae1447" x="39.94" y="675.13018" style="stroke: #000000; stroke-width: 0.8"/>
      </g>
     </g>
     <g id="text_60">
      <!-- 0.00046 -->
      <g transform="translate(-8.413125 678.929399) scale(0.1 -0.1)">
       <use xlink:href="#DejaVuSans-30"/>
       <use xlink:href="#DejaVuSans-2e" x="63.623047"/>
       <use xlink:href="#DejaVuSans-30" x="95.410156"/>
       <use xlink:href="#DejaVuSans-30" x="159.033203"/>
       <use xlink:href="#DejaVuSans-30" x="222.65625"/>
       <use xlink:href="#DejaVuSans-34" x="286.279297"/>
       <use xlink:href="#DejaVuSans-36" x="349.902344"/>
      </g>
     </g>
    </g>
    <g id="ytick_17">
     <g id="line2d_61">
      <g>
       <use xlink:href="#m22d4ae1447" x="39.94" y="653.119149" style="stroke: #000000; stroke-width: 0.8"/>
      </g>
     </g>
     <g id="text_61">
      <!-- 0.00047 -->
      <g transform="translate(-8.413125 656.918368) scale(0.1 -0.1)">
       <use xlink:href="#DejaVuSans-30"/>
       <use xlink:href="#DejaVuSans-2e" x="63.623047"/>
       <use xlink:href="#DejaVuSans-30" x="95.410156"/>
       <use xlink:href="#DejaVuSans-30" x="159.033203"/>
       <use xlink:href="#DejaVuSans-30" x="222.65625"/>
       <use xlink:href="#DejaVuSans-34" x="286.279297"/>
       <use xlink:href="#DejaVuSans-37" x="349.902344"/>
      </g>
     </g>
    </g>
    <g id="ytick_18">
     <g id="line2d_62">
      <g>
       <use xlink:href="#m22d4ae1447" x="39.94" y="631.108118" style="stroke: #000000; stroke-width: 0.8"/>
      </g>
     </g>
     <g id="text_62">
      <!-- 0.00048 -->
      <g transform="translate(-8.413125 634.907337) scale(0.1 -0.1)">
       <defs>
        <path id="DejaVuSans-38" d="M 2034 2216 
Q 1584 2216 1326 1975 
Q 1069 1734 1069 1313 
Q 1069 891 1326 650 
Q 1584 409 2034 409 
Q 2484 409 2743 651 
Q 3003 894 3003 1313 
Q 3003 1734 2745 1975 
Q 2488 2216 2034 2216 
z
M 1403 2484 
Q 997 2584 770 2862 
Q 544 3141 544 3541 
Q 544 4100 942 4425 
Q 1341 4750 2034 4750 
Q 2731 4750 3128 4425 
Q 3525 4100 3525 3541 
Q 3525 3141 3298 2862 
Q 3072 2584 2669 2484 
Q 3125 2378 3379 2068 
Q 3634 1759 3634 1313 
Q 3634 634 3220 271 
Q 2806 -91 2034 -91 
Q 1263 -91 848 271 
Q 434 634 434 1313 
Q 434 1759 690 2068 
Q 947 2378 1403 2484 
z
M 1172 3481 
Q 1172 3119 1398 2916 
Q 1625 2713 2034 2713 
Q 2441 2713 2670 2916 
Q 2900 3119 2900 3481 
Q 2900 3844 2670 4047 
Q 2441 4250 2034 4250 
Q 1625 4250 1398 4047 
Q 1172 3844 1172 3481 
z
" transform="scale(0.015625)"/>
       </defs>
       <use xlink:href="#DejaVuSans-30"/>
       <use xlink:href="#DejaVuSans-2e" x="63.623047"/>
       <use xlink:href="#DejaVuSans-30" x="95.410156"/>
       <use xlink:href="#DejaVuSans-30" x="159.033203"/>
       <use xlink:href="#DejaVuSans-30" x="222.65625"/>
       <use xlink:href="#DejaVuSans-34" x="286.279297"/>
       <use xlink:href="#DejaVuSans-38" x="349.902344"/>
      </g>
     </g>
    </g>
    <g id="ytick_19">
     <g id="line2d_63">
      <g>
       <use xlink:href="#m22d4ae1447" x="39.94" y="609.097087" style="stroke: #000000; stroke-width: 0.8"/>
      </g>
     </g>
     <g id="text_63">
      <!-- 0.00049 -->
      <g transform="translate(-8.413125 612.896306) scale(0.1 -0.1)">
       <defs>
        <path id="DejaVuSans-39" d="M 703 97 
L 703 672 
Q 941 559 1184 500 
Q 1428 441 1663 441 
Q 2288 441 2617 861 
Q 2947 1281 2994 2138 
Q 2813 1869 2534 1725 
Q 2256 1581 1919 1581 
Q 1219 1581 811 2004 
Q 403 2428 403 3163 
Q 403 3881 828 4315 
Q 1253 4750 1959 4750 
Q 2769 4750 3195 4129 
Q 3622 3509 3622 2328 
Q 3622 1225 3098 567 
Q 2575 -91 1691 -91 
Q 1453 -91 1209 -44 
Q 966 3 703 97 
z
M 1959 2075 
Q 2384 2075 2632 2365 
Q 2881 2656 2881 3163 
Q 2881 3666 2632 3958 
Q 2384 4250 1959 4250 
Q 1534 4250 1286 3958 
Q 1038 3666 1038 3163 
Q 1038 2656 1286 2365 
Q 1534 2075 1959 2075 
z
" transform="scale(0.015625)"/>
       </defs>
       <use xlink:href="#DejaVuSans-30"/>
       <use xlink:href="#DejaVuSans-2e" x="63.623047"/>
       <use xlink:href="#DejaVuSans-30" x="95.410156"/>
       <use xlink:href="#DejaVuSans-30" x="159.033203"/>
       <use xlink:href="#DejaVuSans-30" x="222.65625"/>
       <use xlink:href="#DejaVuSans-34" x="286.279297"/>
       <use xlink:href="#DejaVuSans-39" x="349.902344"/>
      </g>
     </g>
    </g>
    <g id="ytick_20">
     <g id="line2d_64">
      <g>
       <use xlink:href="#m22d4ae1447" x="39.94" y="587.086057" style="stroke: #000000; stroke-width: 0.8"/>
      </g>
     </g>
     <g id="text_64">
      <!-- 0.00050 -->
      <g transform="translate(-8.413125 590.885275) scale(0.1 -0.1)">
       <use xlink:href="#DejaVuSans-30"/>
       <use xlink:href="#DejaVuSans-2e" x="63.623047"/>
       <use xlink:href="#DejaVuSans-30" x="95.410156"/>
       <use xlink:href="#DejaVuSans-30" x="159.033203"/>
       <use xlink:href="#DejaVuSans-30" x="222.65625"/>
       <use xlink:href="#DejaVuSans-35" x="286.279297"/>
       <use xlink:href="#DejaVuSans-30" x="349.902344"/>
      </g>
     </g>
    </g>
   </g>
   <g id="line2d_65">
    <path d="M 63.455455 587.12 
L 69.643732 587.204855 
L 75.83201 587.323644 
L 82.020287 587.47636 
L 88.208565 587.662993 
L 94.396842 587.883532 
L 100.58512 588.137964 
L 106.773397 588.426272 
L 112.961675 588.748439 
L 119.149952 589.104445 
L 125.33823 589.494268 
L 131.526507 589.917884 
L 137.714785 590.375266 
L 143.903062 590.866388 
L 150.09134 591.391217 
L 156.279617 591.949723 
L 162.467895 592.54187 
L 168.656172 593.167622 
L 174.84445 593.826941 
L 181.032727 594.519785 
L 187.221005 595.246112 
L 193.409282 596.005877 
L 199.59756 596.799034 
L 205.785837 597.625533 
L 211.974115 598.485323 
L 218.162392 599.378352 
L 224.35067 600.304564 
L 230.538947 601.263902 
L 236.727225 602.256307 
L 242.915502 603.281717 
L 249.10378 604.340071 
L 255.292057 605.431301 
L 261.480335 606.555341 
L 267.668612 607.712122 
L 273.85689 608.901572 
L 280.045167 610.123618 
L 286.233445 611.378185 
L 292.421722 612.665194 
L 298.61 613.984567 
L 304.798278 615.336222 
L 310.986555 616.720077 
L 317.174833 618.136045 
L 323.36311 619.584039 
L 329.551388 621.063969 
L 335.739665 622.575746 
L 341.927943 624.119275 
L 348.11622 625.694461 
L 354.304498 627.301207 
L 360.492775 628.939414 
L 366.681053 630.60898 
L 372.86933 632.309803 
L 379.057608 634.041779 
L 385.245885 635.804799 
L 391.434163 637.598756 
L 397.62244 639.423538 
L 403.810718 641.279034 
L 409.998995 643.165128 
L 416.187273 645.081704 
L 422.37555 647.028644 
L 428.563828 649.005829 
L 434.752105 651.013135 
L 440.940383 653.05044 
L 447.12866 655.117617 
L 453.316938 657.214539 
L 459.505215 659.341077 
L 465.693493 661.497099 
L 471.88177 663.682473 
L 478.070048 665.897063 
L 484.258325 668.140734 
L 490.446603 670.413346 
L 496.63488 672.71476 
L 502.823158 675.044833 
L 509.011435 677.403422 
L 515.199713 679.790381 
L 521.38799 682.205564 
L 527.576268 684.64882 
L 533.764545 687.12 
" clip-path="url(#p38df9e265e)" style="fill: none; stroke: #1f77b4; stroke-width: 1.5; stroke-linecap: square"/>
   </g>
   <g id="patch_23">
    <path d="M 39.94 692.12 
L 39.94 582.12 
" style="fill: none; stroke: #000000; stroke-width: 0.8; stroke-linejoin: miter; stroke-linecap: square"/>
   </g>
   <g id="patch_24">
    <path d="M 557.28 692.12 
L 557.28 582.12 
" style="fill: none; stroke: #000000; stroke-width: 0.8; stroke-linejoin: miter; stroke-linecap: square"/>
   </g>
   <g id="patch_25">
    <path d="M 39.94 692.12 
L 557.28 692.12 
" style="fill: none; stroke: #000000; stroke-width: 0.8; stroke-linejoin: miter; stroke-linecap: square"/>
   </g>
   <g id="patch_26">
    <path d="M 39.94 582.12 
L 557.28 582.12 
" style="fill: none; stroke: #000000; stroke-width: 0.8; stroke-linejoin: miter; stroke-linecap: square"/>
   </g>
   <g id="text_65">
    <!-- lr -->
    <g transform="translate(294.476562 576.12) scale(0.12 -0.12)">
     <defs>
      <path id="DejaVuSans-72" d="M 2631 2963 
Q 2534 3019 2420 3045 
Q 2306 3072 2169 3072 
Q 1681 3072 1420 2755 
Q 1159 2438 1159 1844 
L 1159 0 
L 581 0 
L 581 3500 
L 1159 3500 
L 1159 2956 
Q 1341 3275 1631 3429 
Q 1922 3584 2338 3584 
Q 2397 3584 2469 3576 
Q 2541 3569 2628 3553 
L 2631 2963 
z
" transform="scale(0.015625)"/>
     </defs>
     <use xlink:href="#DejaVuSans-6c"/>
     <use xlink:href="#DejaVuSans-72" x="27.783203"/>
    </g>
   </g>
  </g>
 </g>
 <defs>
  <clipPath id="p84df3336a6">
   <rect x="39.94" y="14.76" width="517.34" height="110"/>
  </clipPath>
  <clipPath id="pababe1ed3c">
   <rect x="39.94" y="156.6" width="517.34" height="110"/>
  </clipPath>
  <clipPath id="pdac0a6878c">
   <rect x="39.94" y="298.44" width="517.34" height="110"/>
  </clipPath>
  <clipPath id="pb3d4d6f791">
   <rect x="39.94" y="440.28" width="517.34" height="110"/>
  </clipPath>
  <clipPath id="p38df9e265e">
   <rect x="39.94" y="582.12" width="517.34" height="110"/>
  </clipPath>
 </defs>
</svg>
