<?xml version="1.0" encoding="utf-8" standalone="no"?>
<!DOCTYPE svg PUBLIC "-//W3C//DTD SVG 1.1//EN"
  "http://www.w3.org/Graphics/SVG/1.1/DTD/svg11.dtd">
<svg xmlns:xlink="http://www.w3.org/1999/xlink" width="576pt" height="720pt" viewBox="0 0 576 720" xmlns="http://www.w3.org/2000/svg" version="1.1">
 <metadata>
  <rdf:RDF xmlns:dc="http://purl.org/dc/elements/1.1/" xmlns:cc="http://creativecommons.org/ns#" xmlns:rdf="http://www.w3.org/1999/02/22-rdf-syntax-ns#">
   <cc:Work>
    <dc:type rdf:resource="http://purl.org/dc/dcmitype/StillImage"/>
    <dc:date>2025-03-02T16:06:47.329416</dc:date>
    <dc:format>image/svg+xml</dc:format>
    <dc:creator>
     <cc:Agent>
      <dc:title>Matplotlib v3.8.3, https://matplotlib.org/</dc:title>
     </cc:Agent>
    </dc:creator>
   </cc:Work>
  </rdf:RDF>
 </metadata>
 <defs>
  <style type="text/css">*{stroke-linejoin: round; stroke-linecap: butt}</style>
 </defs>
 <g id="figure_1">
  <g id="patch_1">
   <path d="M 0 720 
L 576 720 
L 576 0 
L 0 0 
z
" style="fill: #ffffff"/>
  </g>
  <g id="axes_1">
   <g id="patch_2">
    <path d="M 39.94 124.76 
L 557.28 124.76 
L 557.28 14.76 
L 39.94 14.76 
z
" style="fill: #ffffff"/>
   </g>
   <g id="matplotlib.axis_1">
    <g id="xtick_1">
     <g id="line2d_1">
      <defs>
       <path id="m609ff0c016" d="M 0 0 
L 0 3.5 
" style="stroke: #000000; stroke-width: 0.8"/>
      </defs>
      <g>
       <use xlink:href="#m609ff0c016" x="63.455455" y="124.76" style="stroke: #000000; stroke-width: 0.8"/>
      </g>
     </g>
     <g id="text_1">
      <!-- 0 -->
      <g transform="translate(60.274205 139.358438) scale(0.1 -0.1)">
       <defs>
        <path id="DejaVuSans-30" d="M 2034 4250 
Q 1547 4250 1301 3770 
Q 1056 3291 1056 2328 
Q 1056 1369 1301 889 
Q 1547 409 2034 409 
Q 2525 409 2770 889 
Q 3016 1369 3016 2328 
Q 3016 3291 2770 3770 
Q 2525 4250 2034 4250 
z
M 2034 4750 
Q 2819 4750 3233 4129 
Q 3647 3509 3647 2328 
Q 3647 1150 3233 529 
Q 2819 -91 2034 -91 
Q 1250 -91 836 529 
Q 422 1150 422 2328 
Q 422 3509 836 4129 
Q 1250 4750 2034 4750 
z
" transform="scale(0.015625)"/>
       </defs>
       <use xlink:href="#DejaVuSans-30"/>
      </g>
     </g>
    </g>
    <g id="xtick_2">
     <g id="line2d_2">
      <g>
       <use xlink:href="#m609ff0c016" x="161.436515" y="124.76" style="stroke: #000000; stroke-width: 0.8"/>
      </g>
     </g>
     <g id="text_2">
      <!-- 20 -->
      <g transform="translate(155.074015 139.358438) scale(0.1 -0.1)">
       <defs>
        <path id="DejaVuSans-32" d="M 1228 531 
L 3431 531 
L 3431 0 
L 469 0 
L 469 531 
Q 828 903 1448 1529 
Q 2069 2156 2228 2338 
Q 2531 2678 2651 2914 
Q 2772 3150 2772 3378 
Q 2772 3750 2511 3984 
Q 2250 4219 1831 4219 
Q 1534 4219 1204 4116 
Q 875 4013 500 3803 
L 500 4441 
Q 881 4594 1212 4672 
Q 1544 4750 1819 4750 
Q 2544 4750 2975 4387 
Q 3406 4025 3406 3419 
Q 3406 3131 3298 2873 
Q 3191 2616 2906 2266 
Q 2828 2175 2409 1742 
Q 1991 1309 1228 531 
z
" transform="scale(0.015625)"/>
       </defs>
       <use xlink:href="#DejaVuSans-32"/>
       <use xlink:href="#DejaVuSans-30" x="63.623047"/>
      </g>
     </g>
    </g>
    <g id="xtick_3">
     <g id="line2d_3">
      <g>
       <use xlink:href="#m609ff0c016" x="259.417576" y="124.76" style="stroke: #000000; stroke-width: 0.8"/>
      </g>
     </g>
     <g id="text_3">
      <!-- 40 -->
      <g transform="translate(253.055076 139.358438) scale(0.1 -0.1)">
       <defs>
        <path id="DejaVuSans-34" d="M 2419 4116 
L 825 1625 
L 2419 1625 
L 2419 4116 
z
M 2253 4666 
L 3047 4666 
L 3047 1625 
L 3713 1625 
L 3713 1100 
L 3047 1100 
L 3047 0 
L 2419 0 
L 2419 1100 
L 313 1100 
L 313 1709 
L 2253 4666 
z
" transform="scale(0.015625)"/>
       </defs>
       <use xlink:href="#DejaVuSans-34"/>
       <use xlink:href="#DejaVuSans-30" x="63.623047"/>
      </g>
     </g>
    </g>
    <g id="xtick_4">
     <g id="line2d_4">
      <g>
       <use xlink:href="#m609ff0c016" x="357.398636" y="124.76" style="stroke: #000000; stroke-width: 0.8"/>
      </g>
     </g>
     <g id="text_4">
      <!-- 60 -->
      <g transform="translate(351.036136 139.358438) scale(0.1 -0.1)">
       <defs>
        <path id="DejaVuSans-36" d="M 2113 2584 
Q 1688 2584 1439 2293 
Q 1191 2003 1191 1497 
Q 1191 994 1439 701 
Q 1688 409 2113 409 
Q 2538 409 2786 701 
Q 3034 994 3034 1497 
Q 3034 2003 2786 2293 
Q 2538 2584 2113 2584 
z
M 3366 4563 
L 3366 3988 
Q 3128 4100 2886 4159 
Q 2644 4219 2406 4219 
Q 1781 4219 1451 3797 
Q 1122 3375 1075 2522 
Q 1259 2794 1537 2939 
Q 1816 3084 2150 3084 
Q 2853 3084 3261 2657 
Q 3669 2231 3669 1497 
Q 3669 778 3244 343 
Q 2819 -91 2113 -91 
Q 1303 -91 875 529 
Q 447 1150 447 2328 
Q 447 3434 972 4092 
Q 1497 4750 2381 4750 
Q 2619 4750 2861 4703 
Q 3103 4656 3366 4563 
z
" transform="scale(0.015625)"/>
       </defs>
       <use xlink:href="#DejaVuSans-36"/>
       <use xlink:href="#DejaVuSans-30" x="63.623047"/>
      </g>
     </g>
    </g>
    <g id="xtick_5">
     <g id="line2d_5">
      <g>
       <use xlink:href="#m609ff0c016" x="455.379697" y="124.76" style="stroke: #000000; stroke-width: 0.8"/>
      </g>
     </g>
     <g id="text_5">
      <!-- 80 -->
      <g transform="translate(449.017197 139.358438) scale(0.1 -0.1)">
       <defs>
        <path id="DejaVuSans-38" d="M 2034 2216 
Q 1584 2216 1326 1975 
Q 1069 1734 1069 1313 
Q 1069 891 1326 650 
Q 1584 409 2034 409 
Q 2484 409 2743 651 
Q 3003 894 3003 1313 
Q 3003 1734 2745 1975 
Q 2488 2216 2034 2216 
z
M 1403 2484 
Q 997 2584 770 2862 
Q 544 3141 544 3541 
Q 544 4100 942 4425 
Q 1341 4750 2034 4750 
Q 2731 4750 3128 4425 
Q 3525 4100 3525 3541 
Q 3525 3141 3298 2862 
Q 3072 2584 2669 2484 
Q 3125 2378 3379 2068 
Q 3634 1759 3634 1313 
Q 3634 634 3220 271 
Q 2806 -91 2034 -91 
Q 1263 -91 848 271 
Q 434 634 434 1313 
Q 434 1759 690 2068 
Q 947 2378 1403 2484 
z
M 1172 3481 
Q 1172 3119 1398 2916 
Q 1625 2713 2034 2713 
Q 2441 2713 2670 2916 
Q 2900 3119 2900 3481 
Q 2900 3844 2670 4047 
Q 2441 4250 2034 4250 
Q 1625 4250 1398 4047 
Q 1172 3844 1172 3481 
z
" transform="scale(0.015625)"/>
       </defs>
       <use xlink:href="#DejaVuSans-38"/>
       <use xlink:href="#DejaVuSans-30" x="63.623047"/>
      </g>
     </g>
    </g>
    <g id="xtick_6">
     <g id="line2d_6">
      <g>
       <use xlink:href="#m609ff0c016" x="553.360758" y="124.76" style="stroke: #000000; stroke-width: 0.8"/>
      </g>
     </g>
     <g id="text_6">
      <!-- 100 -->
      <g transform="translate(543.817008 139.358438) scale(0.1 -0.1)">
       <defs>
        <path id="DejaVuSans-31" d="M 794 531 
L 1825 531 
L 1825 4091 
L 703 3866 
L 703 4441 
L 1819 4666 
L 2450 4666 
L 2450 531 
L 3481 531 
L 3481 0 
L 794 0 
L 794 531 
z
" transform="scale(0.015625)"/>
       </defs>
       <use xlink:href="#DejaVuSans-31"/>
       <use xlink:href="#DejaVuSans-30" x="63.623047"/>
       <use xlink:href="#DejaVuSans-30" x="127.246094"/>
      </g>
     </g>
    </g>
   </g>
   <g id="matplotlib.axis_2">
    <g id="ytick_1">
     <g id="line2d_7">
      <defs>
       <path id="m6ea8f74e31" d="M 0 0 
L -3.5 0 
" style="stroke: #000000; stroke-width: 0.8"/>
      </defs>
      <g>
       <use xlink:href="#m6ea8f74e31" x="39.94" y="119.76" style="stroke: #000000; stroke-width: 0.8"/>
      </g>
     </g>
     <g id="text_7">
      <!-- 0 -->
      <g transform="translate(26.5775 123.559219) scale(0.1 -0.1)">
       <use xlink:href="#DejaVuSans-30"/>
      </g>
     </g>
    </g>
    <g id="ytick_2">
     <g id="line2d_8">
      <g>
       <use xlink:href="#m6ea8f74e31" x="39.94" y="93.718333" style="stroke: #000000; stroke-width: 0.8"/>
      </g>
     </g>
     <g id="text_8">
      <!-- 25 -->
      <g transform="translate(20.215 97.517552) scale(0.1 -0.1)">
       <defs>
        <path id="DejaVuSans-35" d="M 691 4666 
L 3169 4666 
L 3169 4134 
L 1269 4134 
L 1269 2991 
Q 1406 3038 1543 3061 
Q 1681 3084 1819 3084 
Q 2600 3084 3056 2656 
Q 3513 2228 3513 1497 
Q 3513 744 3044 326 
Q 2575 -91 1722 -91 
Q 1428 -91 1123 -41 
Q 819 9 494 109 
L 494 744 
Q 775 591 1075 516 
Q 1375 441 1709 441 
Q 2250 441 2565 725 
Q 2881 1009 2881 1497 
Q 2881 1984 2565 2268 
Q 2250 2553 1709 2553 
Q 1456 2553 1204 2497 
Q 953 2441 691 2322 
L 691 4666 
z
" transform="scale(0.015625)"/>
       </defs>
       <use xlink:href="#DejaVuSans-32"/>
       <use xlink:href="#DejaVuSans-35" x="63.623047"/>
      </g>
     </g>
    </g>
    <g id="ytick_3">
     <g id="line2d_9">
      <g>
       <use xlink:href="#m6ea8f74e31" x="39.94" y="67.676667" style="stroke: #000000; stroke-width: 0.8"/>
      </g>
     </g>
     <g id="text_9">
      <!-- 50 -->
      <g transform="translate(20.215 71.475885) scale(0.1 -0.1)">
       <use xlink:href="#DejaVuSans-35"/>
       <use xlink:href="#DejaVuSans-30" x="63.623047"/>
      </g>
     </g>
    </g>
    <g id="ytick_4">
     <g id="line2d_10">
      <g>
       <use xlink:href="#m6ea8f74e31" x="39.94" y="41.635" style="stroke: #000000; stroke-width: 0.8"/>
      </g>
     </g>
     <g id="text_10">
      <!-- 75 -->
      <g transform="translate(20.215 45.434219) scale(0.1 -0.1)">
       <defs>
        <path id="DejaVuSans-37" d="M 525 4666 
L 3525 4666 
L 3525 4397 
L 1831 0 
L 1172 0 
L 2766 4134 
L 525 4134 
L 525 4666 
z
" transform="scale(0.015625)"/>
       </defs>
       <use xlink:href="#DejaVuSans-37"/>
       <use xlink:href="#DejaVuSans-35" x="63.623047"/>
      </g>
     </g>
    </g>
    <g id="ytick_5">
     <g id="line2d_11">
      <g>
       <use xlink:href="#m6ea8f74e31" x="39.94" y="15.593333" style="stroke: #000000; stroke-width: 0.8"/>
      </g>
     </g>
     <g id="text_11">
      <!-- 100 -->
      <g transform="translate(13.8525 19.392552) scale(0.1 -0.1)">
       <use xlink:href="#DejaVuSans-31"/>
       <use xlink:href="#DejaVuSans-30" x="63.623047"/>
       <use xlink:href="#DejaVuSans-30" x="127.246094"/>
      </g>
     </g>
    </g>
   </g>
   <g id="line2d_12">
    <path d="M 63.455455 119.76 
L 68.354508 118.718333 
L 73.253561 117.676667 
L 78.152614 116.635 
L 83.051667 115.593333 
L 87.95072 114.551667 
L 92.849773 113.51 
L 97.748826 112.468333 
L 102.647879 111.426667 
L 107.546932 110.385 
L 112.445985 109.343333 
L 117.345038 108.301667 
L 122.244091 107.26 
L 127.143144 106.218333 
L 132.042197 105.176667 
L 136.94125 104.135 
L 141.840303 103.093333 
L 146.739356 102.051667 
L 151.638409 101.01 
L 156.537462 99.968333 
L 161.436515 98.926667 
L 166.335568 97.885 
L 171.234621 96.843333 
L 176.133674 95.801667 
L 181.032727 94.76 
L 185.93178 93.718333 
L 190.830833 92.676667 
L 195.729886 91.635 
L 200.628939 90.593333 
L 205.527992 89.551667 
L 210.427045 88.51 
L 215.326098 87.468333 
L 220.225152 86.426667 
L 225.124205 85.385 
L 230.023258 84.343333 
L 234.922311 83.301667 
L 239.821364 82.26 
L 244.720417 81.218333 
L 249.61947 80.176667 
L 254.518523 79.135 
L 259.417576 78.093333 
L 264.316629 77.051667 
L 269.215682 76.01 
L 274.114735 74.968333 
L 279.013788 73.926667 
L 283.912841 72.885 
L 288.811894 71.843333 
L 293.710947 70.801667 
L 298.61 69.76 
L 303.509053 68.718333 
L 308.408106 67.676667 
L 313.307159 66.635 
L 318.206212 65.593333 
L 323.105265 64.551667 
L 328.004318 63.51 
L 332.903371 62.468333 
L 337.802424 61.426667 
L 342.701477 60.385 
L 347.60053 59.343333 
L 352.499583 58.301667 
L 357.398636 57.26 
L 362.297689 56.218333 
L 367.196742 55.176667 
L 372.095795 54.135 
L 376.994848 53.093333 
L 381.893902 52.051667 
L 386.792955 51.01 
L 391.692008 49.968333 
L 396.591061 48.926667 
L 401.490114 47.885 
L 406.389167 46.843333 
L 411.28822 45.801667 
L 416.187273 44.76 
L 421.086326 43.718333 
L 425.985379 42.676667 
L 430.884432 41.635 
L 435.783485 40.593333 
L 440.682538 39.551667 
L 445.581591 38.51 
L 450.480644 37.468333 
L 455.379697 36.426667 
L 460.27875 35.385 
L 465.177803 34.343333 
L 470.076856 33.301667 
L 474.975909 32.26 
L 479.874962 31.218333 
L 484.774015 30.176667 
L 489.673068 29.135 
L 494.572121 28.093333 
L 499.471174 27.051667 
L 504.370227 26.01 
L 509.26928 24.968333 
L 514.168333 23.926667 
L 519.067386 22.885 
L 523.966439 21.843333 
L 528.865492 20.801667 
L 533.764545 19.76 
" clip-path="url(#p9858baaac1)" style="fill: none; stroke: #1f77b4; stroke-width: 1.5; stroke-linecap: square"/>
   </g>
   <g id="patch_3">
    <path d="M 39.94 124.76 
L 39.94 14.76 
" style="fill: none; stroke: #000000; stroke-width: 0.8; stroke-linejoin: miter; stroke-linecap: square"/>
   </g>
   <g id="patch_4">
    <path d="M 557.28 124.76 
L 557.28 14.76 
" style="fill: none; stroke: #000000; stroke-width: 0.8; stroke-linejoin: miter; stroke-linecap: square"/>
   </g>
   <g id="patch_5">
    <path d="M 39.94 124.76 
L 557.28 124.76 
" style="fill: none; stroke: #000000; stroke-width: 0.8; stroke-linejoin: miter; stroke-linecap: square"/>
   </g>
   <g id="patch_6">
    <path d="M 39.94 14.76 
L 557.28 14.76 
" style="fill: none; stroke: #000000; stroke-width: 0.8; stroke-linejoin: miter; stroke-linecap: square"/>
   </g>
   <g id="text_12">
    <!-- epoch -->
    <g transform="translate(280.33625 8.76) scale(0.12 -0.12)">
     <defs>
      <path id="DejaVuSans-65" d="M 3597 1894 
L 3597 1613 
L 953 1613 
Q 991 1019 1311 708 
Q 1631 397 2203 397 
Q 2534 397 2845 478 
Q 3156 559 3463 722 
L 3463 178 
Q 3153 47 2828 -22 
Q 2503 -91 2169 -91 
Q 1331 -91 842 396 
Q 353 884 353 1716 
Q 353 2575 817 3079 
Q 1281 3584 2069 3584 
Q 2775 3584 3186 3129 
Q 3597 2675 3597 1894 
z
M 3022 2063 
Q 3016 2534 2758 2815 
Q 2500 3097 2075 3097 
Q 1594 3097 1305 2825 
Q 1016 2553 972 2059 
L 3022 2063 
z
" transform="scale(0.015625)"/>
      <path id="DejaVuSans-70" d="M 1159 525 
L 1159 -1331 
L 581 -1331 
L 581 3500 
L 1159 3500 
L 1159 2969 
Q 1341 3281 1617 3432 
Q 1894 3584 2278 3584 
Q 2916 3584 3314 3078 
Q 3713 2572 3713 1747 
Q 3713 922 3314 415 
Q 2916 -91 2278 -91 
Q 1894 -91 1617 61 
Q 1341 213 1159 525 
z
M 3116 1747 
Q 3116 2381 2855 2742 
Q 2594 3103 2138 3103 
Q 1681 3103 1420 2742 
Q 1159 2381 1159 1747 
Q 1159 1113 1420 752 
Q 1681 391 2138 391 
Q 2594 391 2855 752 
Q 3116 1113 3116 1747 
z
" transform="scale(0.015625)"/>
      <path id="DejaVuSans-6f" d="M 1959 3097 
Q 1497 3097 1228 2736 
Q 959 2375 959 1747 
Q 959 1119 1226 758 
Q 1494 397 1959 397 
Q 2419 397 2687 759 
Q 2956 1122 2956 1747 
Q 2956 2369 2687 2733 
Q 2419 3097 1959 3097 
z
M 1959 3584 
Q 2709 3584 3137 3096 
Q 3566 2609 3566 1747 
Q 3566 888 3137 398 
Q 2709 -91 1959 -91 
Q 1206 -91 779 398 
Q 353 888 353 1747 
Q 353 2609 779 3096 
Q 1206 3584 1959 3584 
z
" transform="scale(0.015625)"/>
      <path id="DejaVuSans-63" d="M 3122 3366 
L 3122 2828 
Q 2878 2963 2633 3030 
Q 2388 3097 2138 3097 
Q 1578 3097 1268 2742 
Q 959 2388 959 1747 
Q 959 1106 1268 751 
Q 1578 397 2138 397 
Q 2388 397 2633 464 
Q 2878 531 3122 666 
L 3122 134 
Q 2881 22 2623 -34 
Q 2366 -91 2075 -91 
Q 1284 -91 818 406 
Q 353 903 353 1747 
Q 353 2603 823 3093 
Q 1294 3584 2113 3584 
Q 2378 3584 2631 3529 
Q 2884 3475 3122 3366 
z
" transform="scale(0.015625)"/>
      <path id="DejaVuSans-68" d="M 3513 2113 
L 3513 0 
L 2938 0 
L 2938 2094 
Q 2938 2591 2744 2837 
Q 2550 3084 2163 3084 
Q 1697 3084 1428 2787 
Q 1159 2491 1159 1978 
L 1159 0 
L 581 0 
L 581 4863 
L 1159 4863 
L 1159 2956 
Q 1366 3272 1645 3428 
Q 1925 3584 2291 3584 
Q 2894 3584 3203 3211 
Q 3513 2838 3513 2113 
z
" transform="scale(0.015625)"/>
     </defs>
     <use xlink:href="#DejaVuSans-65"/>
     <use xlink:href="#DejaVuSans-70" x="61.523438"/>
     <use xlink:href="#DejaVuSans-6f" x="125"/>
     <use xlink:href="#DejaVuSans-63" x="186.181641"/>
     <use xlink:href="#DejaVuSans-68" x="241.162109"/>
    </g>
   </g>
  </g>
  <g id="axes_2">
   <g id="patch_7">
    <path d="M 39.94 266.6 
L 557.28 266.6 
L 557.28 156.6 
L 39.94 156.6 
z
" style="fill: #ffffff"/>
   </g>
   <g id="matplotlib.axis_3">
    <g id="xtick_7">
     <g id="line2d_13">
      <g>
       <use xlink:href="#m609ff0c016" x="63.455455" y="266.6" style="stroke: #000000; stroke-width: 0.8"/>
      </g>
     </g>
     <g id="text_13">
      <!-- 0 -->
      <g transform="translate(60.274205 281.198438) scale(0.1 -0.1)">
       <use xlink:href="#DejaVuSans-30"/>
      </g>
     </g>
    </g>
    <g id="xtick_8">
     <g id="line2d_14">
      <g>
       <use xlink:href="#m609ff0c016" x="161.436515" y="266.6" style="stroke: #000000; stroke-width: 0.8"/>
      </g>
     </g>
     <g id="text_14">
      <!-- 20 -->
      <g transform="translate(155.074015 281.198438) scale(0.1 -0.1)">
       <use xlink:href="#DejaVuSans-32"/>
       <use xlink:href="#DejaVuSans-30" x="63.623047"/>
      </g>
     </g>
    </g>
    <g id="xtick_9">
     <g id="line2d_15">
      <g>
       <use xlink:href="#m609ff0c016" x="259.417576" y="266.6" style="stroke: #000000; stroke-width: 0.8"/>
      </g>
     </g>
     <g id="text_15">
      <!-- 40 -->
      <g transform="translate(253.055076 281.198438) scale(0.1 -0.1)">
       <use xlink:href="#DejaVuSans-34"/>
       <use xlink:href="#DejaVuSans-30" x="63.623047"/>
      </g>
     </g>
    </g>
    <g id="xtick_10">
     <g id="line2d_16">
      <g>
       <use xlink:href="#m609ff0c016" x="357.398636" y="266.6" style="stroke: #000000; stroke-width: 0.8"/>
      </g>
     </g>
     <g id="text_16">
      <!-- 60 -->
      <g transform="translate(351.036136 281.198438) scale(0.1 -0.1)">
       <use xlink:href="#DejaVuSans-36"/>
       <use xlink:href="#DejaVuSans-30" x="63.623047"/>
      </g>
     </g>
    </g>
    <g id="xtick_11">
     <g id="line2d_17">
      <g>
       <use xlink:href="#m609ff0c016" x="455.379697" y="266.6" style="stroke: #000000; stroke-width: 0.8"/>
      </g>
     </g>
     <g id="text_17">
      <!-- 80 -->
      <g transform="translate(449.017197 281.198438) scale(0.1 -0.1)">
       <use xlink:href="#DejaVuSans-38"/>
       <use xlink:href="#DejaVuSans-30" x="63.623047"/>
      </g>
     </g>
    </g>
    <g id="xtick_12">
     <g id="line2d_18">
      <g>
       <use xlink:href="#m609ff0c016" x="553.360758" y="266.6" style="stroke: #000000; stroke-width: 0.8"/>
      </g>
     </g>
     <g id="text_18">
      <!-- 100 -->
      <g transform="translate(543.817008 281.198438) scale(0.1 -0.1)">
       <use xlink:href="#DejaVuSans-31"/>
       <use xlink:href="#DejaVuSans-30" x="63.623047"/>
       <use xlink:href="#DejaVuSans-30" x="127.246094"/>
      </g>
     </g>
    </g>
   </g>
   <g id="matplotlib.axis_4">
    <g id="ytick_6">
     <g id="line2d_19">
      <g>
       <use xlink:href="#m6ea8f74e31" x="39.94" y="262.297774" style="stroke: #000000; stroke-width: 0.8"/>
      </g>
     </g>
     <g id="text_19">
      <!-- 0.0 -->
      <g transform="translate(17.036875 266.096993) scale(0.1 -0.1)">
       <defs>
        <path id="DejaVuSans-2e" d="M 684 794 
L 1344 794 
L 1344 0 
L 684 0 
L 684 794 
z
" transform="scale(0.015625)"/>
       </defs>
       <use xlink:href="#DejaVuSans-30"/>
       <use xlink:href="#DejaVuSans-2e" x="63.623047"/>
       <use xlink:href="#DejaVuSans-30" x="95.410156"/>
      </g>
     </g>
    </g>
    <g id="ytick_7">
     <g id="line2d_20">
      <g>
       <use xlink:href="#m6ea8f74e31" x="39.94" y="232.041914" style="stroke: #000000; stroke-width: 0.8"/>
      </g>
     </g>
     <g id="text_20">
      <!-- 0.5 -->
      <g transform="translate(17.036875 235.841133) scale(0.1 -0.1)">
       <use xlink:href="#DejaVuSans-30"/>
       <use xlink:href="#DejaVuSans-2e" x="63.623047"/>
       <use xlink:href="#DejaVuSans-35" x="95.410156"/>
      </g>
     </g>
    </g>
    <g id="ytick_8">
     <g id="line2d_21">
      <g>
       <use xlink:href="#m6ea8f74e31" x="39.94" y="201.786053" style="stroke: #000000; stroke-width: 0.8"/>
      </g>
     </g>
     <g id="text_21">
      <!-- 1.0 -->
      <g transform="translate(17.036875 205.585272) scale(0.1 -0.1)">
       <use xlink:href="#DejaVuSans-31"/>
       <use xlink:href="#DejaVuSans-2e" x="63.623047"/>
       <use xlink:href="#DejaVuSans-30" x="95.410156"/>
      </g>
     </g>
    </g>
    <g id="ytick_9">
     <g id="line2d_22">
      <g>
       <use xlink:href="#m6ea8f74e31" x="39.94" y="171.530193" style="stroke: #000000; stroke-width: 0.8"/>
      </g>
     </g>
     <g id="text_22">
      <!-- 1.5 -->
      <g transform="translate(17.036875 175.329412) scale(0.1 -0.1)">
       <use xlink:href="#DejaVuSans-31"/>
       <use xlink:href="#DejaVuSans-2e" x="63.623047"/>
       <use xlink:href="#DejaVuSans-35" x="95.410156"/>
      </g>
     </g>
    </g>
   </g>
   <g id="line2d_23">
    <path d="M 63.455455 161.6 
L 68.354508 170.049249 
L 73.253561 204.970043 
L 78.152614 210.142569 
L 83.051667 209.607975 
L 87.95072 210.036313 
L 92.849773 210.221907 
L 97.748826 210.393748 
L 102.647879 210.571079 
L 107.546932 210.567606 
L 112.445985 210.932623 
L 117.345038 210.759674 
L 122.244091 210.688145 
L 127.143144 210.931115 
L 132.042197 210.867607 
L 136.94125 211.150469 
L 141.840303 210.973747 
L 146.739356 210.866384 
L 151.638409 211.031799 
L 156.537462 210.923357 
L 161.436515 211.140049 
L 166.335568 211.19423 
L 171.234621 211.011132 
L 176.133674 211.059253 
L 181.032727 211.031802 
L 185.93178 210.782238 
L 190.830833 211.018453 
L 195.729886 210.985361 
L 200.628939 211.16011 
L 205.527992 211.244649 
L 210.427045 211.204488 
L 215.326098 211.16671 
L 220.225152 211.250921 
L 225.124205 211.228739 
L 230.023258 211.302383 
L 234.922311 211.360704 
L 239.821364 211.167248 
L 244.720417 211.278567 
L 249.61947 210.557099 
L 254.518523 211.213533 
L 259.417576 211.412696 
L 264.316629 211.42611 
L 269.215682 211.29571 
L 274.114735 211.327338 
L 279.013788 215.064384 
L 283.912841 225.437165 
L 288.811894 230.291706 
L 293.710947 224.793849 
L 298.61 228.03256 
L 303.509053 230.919347 
L 308.408106 235.125377 
L 313.307159 223.72239 
L 318.206212 229.515213 
L 323.105265 235.271915 
L 328.004318 230.772313 
L 332.903371 238.722683 
L 337.802424 235.32648 
L 342.701477 240.109135 
L 347.60053 233.255959 
L 352.499583 251.619458 
L 357.398636 252.34927 
L 362.297689 255.500605 
L 367.196742 256.045319 
L 372.095795 258.576832 
L 376.994848 256.990889 
L 381.893902 256.634529 
L 386.792955 255.519758 
L 391.692008 230.512459 
L 396.591061 259.708828 
L 401.490114 261.085324 
L 406.389167 260.836661 
L 411.28822 237.104835 
L 416.187273 261.258315 
L 421.086326 261.326398 
L 425.985379 261.3148 
L 430.884432 204.042462 
L 435.783485 261.070972 
L 440.682538 261.397171 
L 445.581591 261.26833 
L 450.480644 261.22886 
L 455.379697 261.44027 
L 460.27875 261.350001 
L 465.177803 261.474915 
L 470.076856 261.48439 
L 474.975909 261.498532 
L 479.874962 261.510645 
L 484.774015 258.970946 
L 489.673068 261.52614 
L 494.572121 261.479545 
L 499.471174 261.547949 
L 504.370227 261.467479 
L 509.26928 261.562993 
L 514.168333 261.572642 
L 519.067386 261.58211 
L 523.966439 261.589315 
L 528.865492 261.59655 
L 533.764545 261.6 
" clip-path="url(#pebc286cf9b)" style="fill: none; stroke: #1f77b4; stroke-width: 1.5; stroke-linecap: square"/>
   </g>
   <g id="patch_8">
    <path d="M 39.94 266.6 
L 39.94 156.6 
" style="fill: none; stroke: #000000; stroke-width: 0.8; stroke-linejoin: miter; stroke-linecap: square"/>
   </g>
   <g id="patch_9">
    <path d="M 557.28 266.6 
L 557.28 156.6 
" style="fill: none; stroke: #000000; stroke-width: 0.8; stroke-linejoin: miter; stroke-linecap: square"/>
   </g>
   <g id="patch_10">
    <path d="M 39.94 266.6 
L 557.28 266.6 
" style="fill: none; stroke: #000000; stroke-width: 0.8; stroke-linejoin: miter; stroke-linecap: square"/>
   </g>
   <g id="patch_11">
    <path d="M 39.94 156.6 
L 557.28 156.6 
" style="fill: none; stroke: #000000; stroke-width: 0.8; stroke-linejoin: miter; stroke-linecap: square"/>
   </g>
   <g id="text_23">
    <!-- loss -->
    <g transform="translate(287.020625 150.6) scale(0.12 -0.12)">
     <defs>
      <path id="DejaVuSans-6c" d="M 603 4863 
L 1178 4863 
L 1178 0 
L 603 0 
L 603 4863 
z
" transform="scale(0.015625)"/>
      <path id="DejaVuSans-73" d="M 2834 3397 
L 2834 2853 
Q 2591 2978 2328 3040 
Q 2066 3103 1784 3103 
Q 1356 3103 1142 2972 
Q 928 2841 928 2578 
Q 928 2378 1081 2264 
Q 1234 2150 1697 2047 
L 1894 2003 
Q 2506 1872 2764 1633 
Q 3022 1394 3022 966 
Q 3022 478 2636 193 
Q 2250 -91 1575 -91 
Q 1294 -91 989 -36 
Q 684 19 347 128 
L 347 722 
Q 666 556 975 473 
Q 1284 391 1588 391 
Q 1994 391 2212 530 
Q 2431 669 2431 922 
Q 2431 1156 2273 1281 
Q 2116 1406 1581 1522 
L 1381 1569 
Q 847 1681 609 1914 
Q 372 2147 372 2553 
Q 372 3047 722 3315 
Q 1072 3584 1716 3584 
Q 2034 3584 2315 3537 
Q 2597 3491 2834 3397 
z
" transform="scale(0.015625)"/>
     </defs>
     <use xlink:href="#DejaVuSans-6c"/>
     <use xlink:href="#DejaVuSans-6f" x="27.783203"/>
     <use xlink:href="#DejaVuSans-73" x="88.964844"/>
     <use xlink:href="#DejaVuSans-73" x="141.064453"/>
    </g>
   </g>
  </g>
  <g id="axes_3">
   <g id="patch_12">
    <path d="M 39.94 408.44 
L 557.28 408.44 
L 557.28 298.44 
L 39.94 298.44 
z
" style="fill: #ffffff"/>
   </g>
   <g id="matplotlib.axis_5">
    <g id="xtick_13">
     <g id="line2d_24">
      <g>
       <use xlink:href="#m609ff0c016" x="63.455455" y="408.44" style="stroke: #000000; stroke-width: 0.8"/>
      </g>
     </g>
     <g id="text_24">
      <!-- 0 -->
      <g transform="translate(60.274205 423.038437) scale(0.1 -0.1)">
       <use xlink:href="#DejaVuSans-30"/>
      </g>
     </g>
    </g>
    <g id="xtick_14">
     <g id="line2d_25">
      <g>
       <use xlink:href="#m609ff0c016" x="161.436515" y="408.44" style="stroke: #000000; stroke-width: 0.8"/>
      </g>
     </g>
     <g id="text_25">
      <!-- 20 -->
      <g transform="translate(155.074015 423.038437) scale(0.1 -0.1)">
       <use xlink:href="#DejaVuSans-32"/>
       <use xlink:href="#DejaVuSans-30" x="63.623047"/>
      </g>
     </g>
    </g>
    <g id="xtick_15">
     <g id="line2d_26">
      <g>
       <use xlink:href="#m609ff0c016" x="259.417576" y="408.44" style="stroke: #000000; stroke-width: 0.8"/>
      </g>
     </g>
     <g id="text_26">
      <!-- 40 -->
      <g transform="translate(253.055076 423.038437) scale(0.1 -0.1)">
       <use xlink:href="#DejaVuSans-34"/>
       <use xlink:href="#DejaVuSans-30" x="63.623047"/>
      </g>
     </g>
    </g>
    <g id="xtick_16">
     <g id="line2d_27">
      <g>
       <use xlink:href="#m609ff0c016" x="357.398636" y="408.44" style="stroke: #000000; stroke-width: 0.8"/>
      </g>
     </g>
     <g id="text_27">
      <!-- 60 -->
      <g transform="translate(351.036136 423.038437) scale(0.1 -0.1)">
       <use xlink:href="#DejaVuSans-36"/>
       <use xlink:href="#DejaVuSans-30" x="63.623047"/>
      </g>
     </g>
    </g>
    <g id="xtick_17">
     <g id="line2d_28">
      <g>
       <use xlink:href="#m609ff0c016" x="455.379697" y="408.44" style="stroke: #000000; stroke-width: 0.8"/>
      </g>
     </g>
     <g id="text_28">
      <!-- 80 -->
      <g transform="translate(449.017197 423.038437) scale(0.1 -0.1)">
       <use xlink:href="#DejaVuSans-38"/>
       <use xlink:href="#DejaVuSans-30" x="63.623047"/>
      </g>
     </g>
    </g>
    <g id="xtick_18">
     <g id="line2d_29">
      <g>
       <use xlink:href="#m609ff0c016" x="553.360758" y="408.44" style="stroke: #000000; stroke-width: 0.8"/>
      </g>
     </g>
     <g id="text_29">
      <!-- 100 -->
      <g transform="translate(543.817008 423.038437) scale(0.1 -0.1)">
       <use xlink:href="#DejaVuSans-31"/>
       <use xlink:href="#DejaVuSans-30" x="63.623047"/>
       <use xlink:href="#DejaVuSans-30" x="127.246094"/>
      </g>
     </g>
    </g>
   </g>
   <g id="matplotlib.axis_6">
    <g id="ytick_10">
     <g id="line2d_30">
      <g>
       <use xlink:href="#m6ea8f74e31" x="39.94" y="403.441006" style="stroke: #000000; stroke-width: 0.8"/>
      </g>
     </g>
     <g id="text_30">
      <!-- 0.0 -->
      <g transform="translate(17.036875 407.240224) scale(0.1 -0.1)">
       <use xlink:href="#DejaVuSans-30"/>
       <use xlink:href="#DejaVuSans-2e" x="63.623047"/>
       <use xlink:href="#DejaVuSans-30" x="95.410156"/>
      </g>
     </g>
    </g>
    <g id="ytick_11">
     <g id="line2d_31">
      <g>
       <use xlink:href="#m6ea8f74e31" x="39.94" y="381.378907" style="stroke: #000000; stroke-width: 0.8"/>
      </g>
     </g>
     <g id="text_31">
      <!-- 0.2 -->
      <g transform="translate(17.036875 385.178125) scale(0.1 -0.1)">
       <use xlink:href="#DejaVuSans-30"/>
       <use xlink:href="#DejaVuSans-2e" x="63.623047"/>
       <use xlink:href="#DejaVuSans-32" x="95.410156"/>
      </g>
     </g>
    </g>
    <g id="ytick_12">
     <g id="line2d_32">
      <g>
       <use xlink:href="#m6ea8f74e31" x="39.94" y="359.316807" style="stroke: #000000; stroke-width: 0.8"/>
      </g>
     </g>
     <g id="text_32">
      <!-- 0.4 -->
      <g transform="translate(17.036875 363.116026) scale(0.1 -0.1)">
       <use xlink:href="#DejaVuSans-30"/>
       <use xlink:href="#DejaVuSans-2e" x="63.623047"/>
       <use xlink:href="#DejaVuSans-34" x="95.410156"/>
      </g>
     </g>
    </g>
    <g id="ytick_13">
     <g id="line2d_33">
      <g>
       <use xlink:href="#m6ea8f74e31" x="39.94" y="337.254708" style="stroke: #000000; stroke-width: 0.8"/>
      </g>
     </g>
     <g id="text_33">
      <!-- 0.6 -->
      <g transform="translate(17.036875 341.053927) scale(0.1 -0.1)">
       <use xlink:href="#DejaVuSans-30"/>
       <use xlink:href="#DejaVuSans-2e" x="63.623047"/>
       <use xlink:href="#DejaVuSans-36" x="95.410156"/>
      </g>
     </g>
    </g>
    <g id="ytick_14">
     <g id="line2d_34">
      <g>
       <use xlink:href="#m6ea8f74e31" x="39.94" y="315.192609" style="stroke: #000000; stroke-width: 0.8"/>
      </g>
     </g>
     <g id="text_34">
      <!-- 0.8 -->
      <g transform="translate(17.036875 318.991828) scale(0.1 -0.1)">
       <use xlink:href="#DejaVuSans-30"/>
       <use xlink:href="#DejaVuSans-2e" x="63.623047"/>
       <use xlink:href="#DejaVuSans-38" x="95.410156"/>
      </g>
     </g>
    </g>
   </g>
   <g id="line2d_35">
    <path d="M 63.455455 327.79 
L 68.354508 322.566208 
L 73.253561 326.3987 
L 78.152614 327.284598 
L 83.051667 325.805509 
L 87.95072 326.720192 
L 92.849773 326.329025 
L 97.748826 326.764823 
L 102.647879 326.973639 
L 107.546932 326.865954 
L 112.445985 327.392981 
L 117.345038 327.00518 
L 122.244091 326.905213 
L 127.143144 327.348047 
L 132.042197 326.977644 
L 136.94125 327.360842 
L 141.840303 327.082213 
L 146.739356 326.795489 
L 151.638409 327.084626 
L 156.537462 326.769722 
L 161.436515 327.158325 
L 166.335568 327.208091 
L 171.234621 326.848661 
L 176.133674 326.888453 
L 181.032727 326.800072 
L 185.93178 326.286129 
L 190.830833 326.719561 
L 195.729886 326.645467 
L 200.628939 327.022571 
L 205.527992 327.027601 
L 210.427045 326.938923 
L 215.326098 326.922269 
L 220.225152 327.004167 
L 225.124205 326.936313 
L 230.023258 327.038022 
L 234.922311 327.121696 
L 239.821364 326.728852 
L 244.720417 326.951468 
L 249.61947 325.52463 
L 254.518523 326.753587 
L 259.417576 327.101247 
L 264.316629 327.120755 
L 269.215682 326.862298 
L 274.114735 326.913333 
L 279.013788 333.817405 
L 283.912841 349.657734 
L 288.811894 357.630778 
L 293.710947 346.546672 
L 298.61 352.237935 
L 303.509053 355.929446 
L 308.408106 363.402783 
L 313.307159 342.770764 
L 318.206212 352.773171 
L 323.105265 363.583474 
L 328.004318 355.972565 
L 332.903371 368.788501 
L 337.802424 364.066379 
L 342.701477 370.327703 
L 347.60053 356.867455 
L 352.499583 388.136928 
L 357.398636 390.56519 
L 362.297689 393.955893 
L 367.196742 395.534942 
L 372.095795 399.469581 
L 376.994848 396.755387 
L 381.893902 396.966268 
L 386.792955 393.655558 
L 391.692008 352.732669 
L 396.591061 401.695138 
L 401.490114 403.248603 
L 406.389167 403.032481 
L 411.28822 361.938832 
L 416.187273 403.367511 
L 421.086326 403.415745 
L 425.985379 403.405543 
L 430.884432 303.44 
L 435.783485 403.393349 
L 440.682538 403.436118 
L 445.581591 403.297805 
L 450.480644 403.257191 
L 455.379697 403.437215 
L 460.27875 403.362509 
L 465.177803 403.437712 
L 470.076856 403.439511 
L 474.975909 403.43972 
L 479.874962 403.438815 
L 484.774015 399.56154 
L 489.673068 403.437028 
L 494.572121 403.404837 
L 499.471174 403.439779 
L 504.370227 403.419261 
L 509.26928 403.439865 
L 514.168333 403.439477 
L 519.067386 403.439852 
L 523.966439 403.44 
L 528.865492 403.439239 
L 533.764545 403.43887 
" clip-path="url(#pcc634da03b)" style="fill: none; stroke: #1f77b4; stroke-width: 1.5; stroke-linecap: square"/>
   </g>
   <g id="patch_13">
    <path d="M 39.94 408.44 
L 39.94 298.44 
" style="fill: none; stroke: #000000; stroke-width: 0.8; stroke-linejoin: miter; stroke-linecap: square"/>
   </g>
   <g id="patch_14">
    <path d="M 557.28 408.44 
L 557.28 298.44 
" style="fill: none; stroke: #000000; stroke-width: 0.8; stroke-linejoin: miter; stroke-linecap: square"/>
   </g>
   <g id="patch_15">
    <path d="M 39.94 408.44 
L 557.28 408.44 
" style="fill: none; stroke: #000000; stroke-width: 0.8; stroke-linejoin: miter; stroke-linecap: square"/>
   </g>
   <g id="patch_16">
    <path d="M 39.94 298.44 
L 557.28 298.44 
" style="fill: none; stroke: #000000; stroke-width: 0.8; stroke-linejoin: miter; stroke-linecap: square"/>
   </g>
   <g id="text_35">
    <!-- L_cls -->
    <g transform="translate(284.175312 292.44) scale(0.12 -0.12)">
     <defs>
      <path id="DejaVuSans-4c" d="M 628 4666 
L 1259 4666 
L 1259 531 
L 3531 531 
L 3531 0 
L 628 0 
L 628 4666 
z
" transform="scale(0.015625)"/>
      <path id="DejaVuSans-5f" d="M 3263 -1063 
L 3263 -1509 
L -63 -1509 
L -63 -1063 
L 3263 -1063 
z
" transform="scale(0.015625)"/>
     </defs>
     <use xlink:href="#DejaVuSans-4c"/>
     <use xlink:href="#DejaVuSans-5f" x="55.712891"/>
     <use xlink:href="#DejaVuSans-63" x="105.712891"/>
     <use xlink:href="#DejaVuSans-6c" x="160.693359"/>
     <use xlink:href="#DejaVuSans-73" x="188.476562"/>
    </g>
   </g>
  </g>
  <g id="axes_4">
   <g id="patch_17">
    <path d="M 39.94 550.28 
L 557.28 550.28 
L 557.28 440.28 
L 39.94 440.28 
z
" style="fill: #ffffff"/>
   </g>
   <g id="matplotlib.axis_7">
    <g id="xtick_19">
     <g id="line2d_36">
      <g>
       <use xlink:href="#m609ff0c016" x="63.455455" y="550.28" style="stroke: #000000; stroke-width: 0.8"/>
      </g>
     </g>
     <g id="text_36">
      <!-- 0 -->
      <g transform="translate(60.274205 564.878438) scale(0.1 -0.1)">
       <use xlink:href="#DejaVuSans-30"/>
      </g>
     </g>
    </g>
    <g id="xtick_20">
     <g id="line2d_37">
      <g>
       <use xlink:href="#m609ff0c016" x="161.436515" y="550.28" style="stroke: #000000; stroke-width: 0.8"/>
      </g>
     </g>
     <g id="text_37">
      <!-- 20 -->
      <g transform="translate(155.074015 564.878438) scale(0.1 -0.1)">
       <use xlink:href="#DejaVuSans-32"/>
       <use xlink:href="#DejaVuSans-30" x="63.623047"/>
      </g>
     </g>
    </g>
    <g id="xtick_21">
     <g id="line2d_38">
      <g>
       <use xlink:href="#m609ff0c016" x="259.417576" y="550.28" style="stroke: #000000; stroke-width: 0.8"/>
      </g>
     </g>
     <g id="text_38">
      <!-- 40 -->
      <g transform="translate(253.055076 564.878438) scale(0.1 -0.1)">
       <use xlink:href="#DejaVuSans-34"/>
       <use xlink:href="#DejaVuSans-30" x="63.623047"/>
      </g>
     </g>
    </g>
    <g id="xtick_22">
     <g id="line2d_39">
      <g>
       <use xlink:href="#m609ff0c016" x="357.398636" y="550.28" style="stroke: #000000; stroke-width: 0.8"/>
      </g>
     </g>
     <g id="text_39">
      <!-- 60 -->
      <g transform="translate(351.036136 564.878438) scale(0.1 -0.1)">
       <use xlink:href="#DejaVuSans-36"/>
       <use xlink:href="#DejaVuSans-30" x="63.623047"/>
      </g>
     </g>
    </g>
    <g id="xtick_23">
     <g id="line2d_40">
      <g>
       <use xlink:href="#m609ff0c016" x="455.379697" y="550.28" style="stroke: #000000; stroke-width: 0.8"/>
      </g>
     </g>
     <g id="text_40">
      <!-- 80 -->
      <g transform="translate(449.017197 564.878438) scale(0.1 -0.1)">
       <use xlink:href="#DejaVuSans-38"/>
       <use xlink:href="#DejaVuSans-30" x="63.623047"/>
      </g>
     </g>
    </g>
    <g id="xtick_24">
     <g id="line2d_41">
      <g>
       <use xlink:href="#m609ff0c016" x="553.360758" y="550.28" style="stroke: #000000; stroke-width: 0.8"/>
      </g>
     </g>
     <g id="text_41">
      <!-- 100 -->
      <g transform="translate(543.817008 564.878438) scale(0.1 -0.1)">
       <use xlink:href="#DejaVuSans-31"/>
       <use xlink:href="#DejaVuSans-30" x="63.623047"/>
       <use xlink:href="#DejaVuSans-30" x="127.246094"/>
      </g>
     </g>
    </g>
   </g>
   <g id="matplotlib.axis_8">
    <g id="ytick_15">
     <g id="line2d_42">
      <g>
       <use xlink:href="#m6ea8f74e31" x="39.94" y="545.284059" style="stroke: #000000; stroke-width: 0.8"/>
      </g>
     </g>
     <g id="text_42">
      <!-- 0 -->
      <g transform="translate(26.5775 549.083278) scale(0.1 -0.1)">
       <use xlink:href="#DejaVuSans-30"/>
      </g>
     </g>
    </g>
    <g id="ytick_16">
     <g id="line2d_43">
      <g>
       <use xlink:href="#m6ea8f74e31" x="39.94" y="502.533891" style="stroke: #000000; stroke-width: 0.8"/>
      </g>
     </g>
     <g id="text_43">
      <!-- 2 -->
      <g transform="translate(26.5775 506.333109) scale(0.1 -0.1)">
       <use xlink:href="#DejaVuSans-32"/>
      </g>
     </g>
    </g>
    <g id="ytick_17">
     <g id="line2d_44">
      <g>
       <use xlink:href="#m6ea8f74e31" x="39.94" y="459.783722" style="stroke: #000000; stroke-width: 0.8"/>
      </g>
     </g>
     <g id="text_44">
      <!-- 4 -->
      <g transform="translate(26.5775 463.582941) scale(0.1 -0.1)">
       <use xlink:href="#DejaVuSans-34"/>
      </g>
     </g>
    </g>
   </g>
   <g id="line2d_45">
    <path d="M 63.455455 445.28 
L 68.354508 464.634062 
L 73.253561 522.167717 
L 78.152614 530.059269 
L 83.051667 530.238096 
L 87.95072 529.982303 
L 92.849773 530.587843 
L 97.748826 530.362608 
L 102.647879 530.364412 
L 107.546932 530.373352 
L 112.445985 530.42872 
L 117.345038 530.417978 
L 122.244091 530.311541 
L 127.143144 530.252112 
L 132.042197 530.433882 
L 136.94125 530.508289 
L 141.840303 530.411771 
L 146.739356 530.446206 
L 151.638409 530.419648 
L 156.537462 530.482133 
L 161.436515 530.440776 
L 166.335568 530.442988 
L 171.234621 530.445494 
L 176.133674 530.450303 
L 181.032727 530.455902 
L 185.93178 530.481227 
L 190.830833 530.449633 
L 195.729886 530.447359 
L 200.628939 530.355849 
L 205.527992 530.46727 
L 210.427045 530.455955 
L 215.326098 530.387465 
L 220.225152 530.432484 
L 225.124205 530.451321 
L 230.023258 530.449381 
L 234.922311 530.446767 
L 239.821364 530.468505 
L 244.720417 530.428481 
L 249.61947 530.516284 
L 254.518523 530.466708 
L 259.417576 530.460995 
L 264.316629 530.444532 
L 269.215682 530.458055 
L 274.114735 530.510438 
L 279.013788 530.511961 
L 283.912841 533.562766 
L 288.811894 534.45444 
L 293.710947 535.503578 
L 298.61 535.733129 
L 303.509053 537.267376 
L 308.408106 537.466762 
L 313.307159 537.326138 
L 318.206212 537.881001 
L 323.105265 537.5891 
L 328.004318 537.027299 
L 332.903371 538.678195 
L 337.802424 537.276037 
L 342.701477 539.676943 
L 347.60053 540.624885 
L 352.499583 542.7684 
L 357.398636 541.714289 
L 362.297689 544.003278 
L 367.196742 543.44447 
L 372.095795 544.121072 
L 376.994848 543.95942 
L 381.893902 543.13168 
L 386.792955 544.380722 
L 391.692008 539.867301 
L 396.591061 544.00222 
L 401.490114 544.952807 
L 406.389167 544.710207 
L 411.28822 542.634618 
L 416.187273 545.134173 
L 421.086326 545.216917 
L 425.985379 545.2028 
L 430.884432 540.889156 
L 435.783485 544.752972 
L 440.682538 545.268462 
L 445.581591 545.148484 
L 450.480644 545.096657 
L 455.379697 545.272213 
L 460.27875 545.157757 
L 465.177803 545.274059 
L 470.076856 545.27757 
L 474.975909 545.278938 
L 479.874962 545.276704 
L 484.774015 544.534441 
L 489.673068 545.273003 
L 494.572121 545.210987 
L 499.471174 545.279029 
L 504.370227 545.155417 
L 509.26928 545.27897 
L 514.168333 545.278201 
L 519.067386 545.279296 
L 523.966439 545.28 
L 528.865492 545.278056 
L 533.764545 545.276647 
" clip-path="url(#p3bba9f9d55)" style="fill: none; stroke: #1f77b4; stroke-width: 1.5; stroke-linecap: square"/>
   </g>
   <g id="patch_18">
    <path d="M 39.94 550.28 
L 39.94 440.28 
" style="fill: none; stroke: #000000; stroke-width: 0.8; stroke-linejoin: miter; stroke-linecap: square"/>
   </g>
   <g id="patch_19">
    <path d="M 557.28 550.28 
L 557.28 440.28 
" style="fill: none; stroke: #000000; stroke-width: 0.8; stroke-linejoin: miter; stroke-linecap: square"/>
   </g>
   <g id="patch_20">
    <path d="M 39.94 550.28 
L 557.28 550.28 
" style="fill: none; stroke: #000000; stroke-width: 0.8; stroke-linejoin: miter; stroke-linecap: square"/>
   </g>
   <g id="patch_21">
    <path d="M 39.94 440.28 
L 557.28 440.28 
" style="fill: none; stroke: #000000; stroke-width: 0.8; stroke-linejoin: miter; stroke-linecap: square"/>
   </g>
   <g id="text_45">
    <!-- L_logic -->
    <g transform="translate(278.15375 434.28) scale(0.12 -0.12)">
     <defs>
      <path id="DejaVuSans-67" d="M 2906 1791 
Q 2906 2416 2648 2759 
Q 2391 3103 1925 3103 
Q 1463 3103 1205 2759 
Q 947 2416 947 1791 
Q 947 1169 1205 825 
Q 1463 481 1925 481 
Q 2391 481 2648 825 
Q 2906 1169 2906 1791 
z
M 3481 434 
Q 3481 -459 3084 -895 
Q 2688 -1331 1869 -1331 
Q 1566 -1331 1297 -1286 
Q 1028 -1241 775 -1147 
L 775 -588 
Q 1028 -725 1275 -790 
Q 1522 -856 1778 -856 
Q 2344 -856 2625 -561 
Q 2906 -266 2906 331 
L 2906 616 
Q 2728 306 2450 153 
Q 2172 0 1784 0 
Q 1141 0 747 490 
Q 353 981 353 1791 
Q 353 2603 747 3093 
Q 1141 3584 1784 3584 
Q 2172 3584 2450 3431 
Q 2728 3278 2906 2969 
L 2906 3500 
L 3481 3500 
L 3481 434 
z
" transform="scale(0.015625)"/>
      <path id="DejaVuSans-69" d="M 603 3500 
L 1178 3500 
L 1178 0 
L 603 0 
L 603 3500 
z
M 603 4863 
L 1178 4863 
L 1178 4134 
L 603 4134 
L 603 4863 
z
" transform="scale(0.015625)"/>
     </defs>
     <use xlink:href="#DejaVuSans-4c"/>
     <use xlink:href="#DejaVuSans-5f" x="55.712891"/>
     <use xlink:href="#DejaVuSans-6c" x="105.712891"/>
     <use xlink:href="#DejaVuSans-6f" x="133.496094"/>
     <use xlink:href="#DejaVuSans-67" x="194.677734"/>
     <use xlink:href="#DejaVuSans-69" x="258.154297"/>
     <use xlink:href="#DejaVuSans-63" x="285.9375"/>
    </g>
   </g>
  </g>
  <g id="axes_5">
   <g id="patch_22">
    <path d="M 39.94 692.12 
L 557.28 692.12 
L 557.28 582.12 
L 39.94 582.12 
z
" style="fill: #ffffff"/>
   </g>
   <g id="matplotlib.axis_9">
    <g id="xtick_25">
     <g id="line2d_46">
      <g>
       <use xlink:href="#m609ff0c016" x="63.455455" y="692.12" style="stroke: #000000; stroke-width: 0.8"/>
      </g>
     </g>
     <g id="text_46">
      <!-- 0 -->
      <g transform="translate(60.274205 706.718438) scale(0.1 -0.1)">
       <use xlink:href="#DejaVuSans-30"/>
      </g>
     </g>
    </g>
    <g id="xtick_26">
     <g id="line2d_47">
      <g>
       <use xlink:href="#m609ff0c016" x="161.436515" y="692.12" style="stroke: #000000; stroke-width: 0.8"/>
      </g>
     </g>
     <g id="text_47">
      <!-- 20 -->
      <g transform="translate(155.074015 706.718438) scale(0.1 -0.1)">
       <use xlink:href="#DejaVuSans-32"/>
       <use xlink:href="#DejaVuSans-30" x="63.623047"/>
      </g>
     </g>
    </g>
    <g id="xtick_27">
     <g id="line2d_48">
      <g>
       <use xlink:href="#m609ff0c016" x="259.417576" y="692.12" style="stroke: #000000; stroke-width: 0.8"/>
      </g>
     </g>
     <g id="text_48">
      <!-- 40 -->
      <g transform="translate(253.055076 706.718438) scale(0.1 -0.1)">
       <use xlink:href="#DejaVuSans-34"/>
       <use xlink:href="#DejaVuSans-30" x="63.623047"/>
      </g>
     </g>
    </g>
    <g id="xtick_28">
     <g id="line2d_49">
      <g>
       <use xlink:href="#m609ff0c016" x="357.398636" y="692.12" style="stroke: #000000; stroke-width: 0.8"/>
      </g>
     </g>
     <g id="text_49">
      <!-- 60 -->
      <g transform="translate(351.036136 706.718438) scale(0.1 -0.1)">
       <use xlink:href="#DejaVuSans-36"/>
       <use xlink:href="#DejaVuSans-30" x="63.623047"/>
      </g>
     </g>
    </g>
    <g id="xtick_29">
     <g id="line2d_50">
      <g>
       <use xlink:href="#m609ff0c016" x="455.379697" y="692.12" style="stroke: #000000; stroke-width: 0.8"/>
      </g>
     </g>
     <g id="text_50">
      <!-- 80 -->
      <g transform="translate(449.017197 706.718438) scale(0.1 -0.1)">
       <use xlink:href="#DejaVuSans-38"/>
       <use xlink:href="#DejaVuSans-30" x="63.623047"/>
      </g>
     </g>
    </g>
    <g id="xtick_30">
     <g id="line2d_51">
      <g>
       <use xlink:href="#m609ff0c016" x="553.360758" y="692.12" style="stroke: #000000; stroke-width: 0.8"/>
      </g>
     </g>
     <g id="text_51">
      <!-- 100 -->
      <g transform="translate(543.817008 706.718438) scale(0.1 -0.1)">
       <use xlink:href="#DejaVuSans-31"/>
       <use xlink:href="#DejaVuSans-30" x="63.623047"/>
       <use xlink:href="#DejaVuSans-30" x="127.246094"/>
      </g>
     </g>
    </g>
   </g>
   <g id="matplotlib.axis_10">
    <g id="ytick_18">
     <g id="line2d_52">
      <g>
       <use xlink:href="#m6ea8f74e31" x="39.94" y="669.730654" style="stroke: #000000; stroke-width: 0.8"/>
      </g>
     </g>
     <g id="text_52">
      <!-- 0.0003 -->
      <g transform="translate(-2.050625 673.529873) scale(0.1 -0.1)">
       <defs>
        <path id="DejaVuSans-33" d="M 2597 2516 
Q 3050 2419 3304 2112 
Q 3559 1806 3559 1356 
Q 3559 666 3084 287 
Q 2609 -91 1734 -91 
Q 1441 -91 1130 -33 
Q 819 25 488 141 
L 488 750 
Q 750 597 1062 519 
Q 1375 441 1716 441 
Q 2309 441 2620 675 
Q 2931 909 2931 1356 
Q 2931 1769 2642 2001 
Q 2353 2234 1838 2234 
L 1294 2234 
L 1294 2753 
L 1863 2753 
Q 2328 2753 2575 2939 
Q 2822 3125 2822 3475 
Q 2822 3834 2567 4026 
Q 2313 4219 1838 4219 
Q 1578 4219 1281 4162 
Q 984 4106 628 3988 
L 628 4550 
Q 988 4650 1302 4700 
Q 1616 4750 1894 4750 
Q 2613 4750 3031 4423 
Q 3450 4097 3450 3541 
Q 3450 3153 3228 2886 
Q 3006 2619 2597 2516 
z
" transform="scale(0.015625)"/>
       </defs>
       <use xlink:href="#DejaVuSans-30"/>
       <use xlink:href="#DejaVuSans-2e" x="63.623047"/>
       <use xlink:href="#DejaVuSans-30" x="95.410156"/>
       <use xlink:href="#DejaVuSans-30" x="159.033203"/>
       <use xlink:href="#DejaVuSans-30" x="222.65625"/>
       <use xlink:href="#DejaVuSans-33" x="286.279297"/>
      </g>
     </g>
    </g>
    <g id="ytick_19">
     <g id="line2d_53">
      <g>
       <use xlink:href="#m6ea8f74e31" x="39.94" y="628.412584" style="stroke: #000000; stroke-width: 0.8"/>
      </g>
     </g>
     <g id="text_53">
      <!-- 0.0004 -->
      <g transform="translate(-2.050625 632.211803) scale(0.1 -0.1)">
       <use xlink:href="#DejaVuSans-30"/>
       <use xlink:href="#DejaVuSans-2e" x="63.623047"/>
       <use xlink:href="#DejaVuSans-30" x="95.410156"/>
       <use xlink:href="#DejaVuSans-30" x="159.033203"/>
       <use xlink:href="#DejaVuSans-30" x="222.65625"/>
       <use xlink:href="#DejaVuSans-34" x="286.279297"/>
      </g>
     </g>
    </g>
    <g id="ytick_20">
     <g id="line2d_54">
      <g>
       <use xlink:href="#m6ea8f74e31" x="39.94" y="587.094514" style="stroke: #000000; stroke-width: 0.8"/>
      </g>
     </g>
     <g id="text_54">
      <!-- 0.0005 -->
      <g transform="translate(-2.050625 590.893733) scale(0.1 -0.1)">
       <use xlink:href="#DejaVuSans-30"/>
       <use xlink:href="#DejaVuSans-2e" x="63.623047"/>
       <use xlink:href="#DejaVuSans-30" x="95.410156"/>
       <use xlink:href="#DejaVuSans-30" x="159.033203"/>
       <use xlink:href="#DejaVuSans-30" x="222.65625"/>
       <use xlink:href="#DejaVuSans-35" x="286.279297"/>
      </g>
     </g>
    </g>
   </g>
   <g id="line2d_55">
    <path d="M 63.455455 587.12 
L 68.354508 587.183704 
L 73.253561 587.272866 
L 78.152614 587.387464 
L 83.051667 587.52747 
L 87.95072 587.69285 
L 92.849773 587.883562 
L 97.748826 588.09956 
L 102.647879 588.34079 
L 107.546932 588.607193 
L 112.445985 588.898703 
L 117.345038 589.215248 
L 122.244091 589.55675 
L 127.143144 589.923125 
L 132.042197 590.314282 
L 136.94125 590.730125 
L 141.840303 591.170551 
L 146.739356 591.635452 
L 151.638409 592.124713 
L 156.537462 592.638213 
L 161.436515 593.175825 
L 166.335568 593.737417 
L 171.234621 594.32285 
L 176.133674 594.93198 
L 181.032727 595.564657 
L 185.93178 596.220724 
L 190.830833 596.900019 
L 195.729886 597.602376 
L 200.628939 598.32762 
L 205.527992 599.075572 
L 210.427045 599.846049 
L 215.326098 600.63886 
L 220.225152 601.453809 
L 225.124205 602.290696 
L 230.023258 603.149314 
L 234.922311 604.02945 
L 239.821364 604.930889 
L 244.720417 605.853406 
L 249.61947 606.796776 
L 254.518523 607.760765 
L 259.417576 608.745135 
L 264.316629 609.749643 
L 269.215682 610.774042 
L 274.114735 611.818078 
L 279.013788 612.881495 
L 283.912841 613.964029 
L 288.811894 615.065414 
L 293.710947 616.185378 
L 298.61 617.323645 
L 303.509053 618.479933 
L 308.408106 619.653958 
L 313.307159 620.845429 
L 318.206212 622.054053 
L 323.105265 623.279532 
L 328.004318 624.521563 
L 332.903371 625.77984 
L 337.802424 627.054052 
L 342.701477 628.343885 
L 347.60053 629.64902 
L 352.499583 630.969137 
L 357.398636 632.303908 
L 362.297689 633.653005 
L 367.196742 635.016094 
L 372.095795 636.39284 
L 376.994848 637.782903 
L 381.893902 639.185939 
L 386.792955 640.601603 
L 391.692008 642.029545 
L 396.591061 643.469413 
L 401.490114 644.920852 
L 406.389167 646.383503 
L 411.28822 647.857006 
L 416.187273 649.340998 
L 421.086326 650.835111 
L 425.985379 652.338977 
L 430.884432 653.852226 
L 435.783485 655.374484 
L 440.682538 656.905375 
L 445.581591 658.444521 
L 450.480644 659.991544 
L 455.379697 661.54606 
L 460.27875 663.107687 
L 465.177803 664.676039 
L 470.076856 666.25073 
L 474.975909 667.83137 
L 479.874962 669.417571 
L 484.774015 671.008939 
L 489.673068 672.605084 
L 494.572121 674.20561 
L 499.471174 675.810123 
L 504.370227 677.418228 
L 509.26928 679.029527 
L 514.168333 680.643622 
L 519.067386 682.260117 
L 523.966439 683.878611 
L 528.865492 685.498705 
L 533.764545 687.12 
" clip-path="url(#p4d333a575b)" style="fill: none; stroke: #1f77b4; stroke-width: 1.5; stroke-linecap: square"/>
   </g>
   <g id="patch_23">
    <path d="M 39.94 692.12 
L 39.94 582.12 
" style="fill: none; stroke: #000000; stroke-width: 0.8; stroke-linejoin: miter; stroke-linecap: square"/>
   </g>
   <g id="patch_24">
    <path d="M 557.28 692.12 
L 557.28 582.12 
" style="fill: none; stroke: #000000; stroke-width: 0.8; stroke-linejoin: miter; stroke-linecap: square"/>
   </g>
   <g id="patch_25">
    <path d="M 39.94 692.12 
L 557.28 692.12 
" style="fill: none; stroke: #000000; stroke-width: 0.8; stroke-linejoin: miter; stroke-linecap: square"/>
   </g>
   <g id="patch_26">
    <path d="M 39.94 582.12 
L 557.28 582.12 
" style="fill: none; stroke: #000000; stroke-width: 0.8; stroke-linejoin: miter; stroke-linecap: square"/>
   </g>
   <g id="text_55">
    <!-- lr -->
    <g transform="translate(294.476562 576.12) scale(0.12 -0.12)">
     <defs>
      <path id="DejaVuSans-72" d="M 2631 2963 
Q 2534 3019 2420 3045 
Q 2306 3072 2169 3072 
Q 1681 3072 1420 2755 
Q 1159 2438 1159 1844 
L 1159 0 
L 581 0 
L 581 3500 
L 1159 3500 
L 1159 2956 
Q 1341 3275 1631 3429 
Q 1922 3584 2338 3584 
Q 2397 3584 2469 3576 
Q 2541 3569 2628 3553 
L 2631 2963 
z
" transform="scale(0.015625)"/>
     </defs>
     <use xlink:href="#DejaVuSans-6c"/>
     <use xlink:href="#DejaVuSans-72" x="27.783203"/>
    </g>
   </g>
  </g>
 </g>
 <defs>
  <clipPath id="p9858baaac1">
   <rect x="39.94" y="14.76" width="517.34" height="110"/>
  </clipPath>
  <clipPath id="pebc286cf9b">
   <rect x="39.94" y="156.6" width="517.34" height="110"/>
  </clipPath>
  <clipPath id="pcc634da03b">
   <rect x="39.94" y="298.44" width="517.34" height="110"/>
  </clipPath>
  <clipPath id="p3bba9f9d55">
   <rect x="39.94" y="440.28" width="517.34" height="110"/>
  </clipPath>
  <clipPath id="p4d333a575b">
   <rect x="39.94" y="582.12" width="517.34" height="110"/>
  </clipPath>
 </defs>
</svg>
