<?xml version="1.0" encoding="utf-8" standalone="no"?>
<!DOCTYPE svg PUBLIC "-//W3C//DTD SVG 1.1//EN"
  "http://www.w3.org/Graphics/SVG/1.1/DTD/svg11.dtd">
<svg xmlns:xlink="http://www.w3.org/1999/xlink" width="576pt" height="576pt" viewBox="0 0 576 576" xmlns="http://www.w3.org/2000/svg" version="1.1">
 <metadata>
  <rdf:RDF xmlns:dc="http://purl.org/dc/elements/1.1/" xmlns:cc="http://creativecommons.org/ns#" xmlns:rdf="http://www.w3.org/1999/02/22-rdf-syntax-ns#">
   <cc:Work>
    <dc:type rdf:resource="http://purl.org/dc/dcmitype/StillImage"/>
    <dc:date>2025-02-25T10:14:50.914141</dc:date>
    <dc:format>image/svg+xml</dc:format>
    <dc:creator>
     <cc:Agent>
      <dc:title>Matplotlib v3.8.3, https://matplotlib.org/</dc:title>
     </cc:Agent>
    </dc:creator>
   </cc:Work>
  </rdf:RDF>
 </metadata>
 <defs>
  <style type="text/css">*{stroke-linejoin: round; stroke-linecap: butt}</style>
 </defs>
 <g id="figure_1">
  <g id="patch_1">
   <path d="M 0 576 
L 576 576 
L 576 0 
L 0 0 
z
" style="fill: #ffffff"/>
  </g>
  <g id="axes_1">
   <g id="patch_2">
    <path d="M 39.94 124.22 
L 557.28 124.22 
L 557.28 14.76 
L 39.94 14.76 
z
" style="fill: #ffffff"/>
   </g>
   <g id="matplotlib.axis_1">
    <g id="xtick_1">
     <g id="line2d_1">
      <defs>
       <path id="m7e7a8f910f" d="M 0 0 
L 0 3.5 
" style="stroke: #000000; stroke-width: 0.8"/>
      </defs>
      <g>
       <use xlink:href="#m7e7a8f910f" x="63.455455" y="124.22" style="stroke: #000000; stroke-width: 0.8"/>
      </g>
     </g>
     <g id="text_1">
      <!-- 0 -->
      <g transform="translate(60.274205 138.818437) scale(0.1 -0.1)">
       <defs>
        <path id="DejaVuSans-30" d="M 2034 4250 
Q 1547 4250 1301 3770 
Q 1056 3291 1056 2328 
Q 1056 1369 1301 889 
Q 1547 409 2034 409 
Q 2525 409 2770 889 
Q 3016 1369 3016 2328 
Q 3016 3291 2770 3770 
Q 2525 4250 2034 4250 
z
M 2034 4750 
Q 2819 4750 3233 4129 
Q 3647 3509 3647 2328 
Q 3647 1150 3233 529 
Q 2819 -91 2034 -91 
Q 1250 -91 836 529 
Q 422 1150 422 2328 
Q 422 3509 836 4129 
Q 1250 4750 2034 4750 
z
" transform="scale(0.015625)"/>
       </defs>
       <use xlink:href="#DejaVuSans-30"/>
      </g>
     </g>
    </g>
    <g id="xtick_2">
     <g id="line2d_2">
      <g>
       <use xlink:href="#m7e7a8f910f" x="154.777608" y="124.22" style="stroke: #000000; stroke-width: 0.8"/>
      </g>
     </g>
     <g id="text_2">
      <!-- 20 -->
      <g transform="translate(148.415108 138.818437) scale(0.1 -0.1)">
       <defs>
        <path id="DejaVuSans-32" d="M 1228 531 
L 3431 531 
L 3431 0 
L 469 0 
L 469 531 
Q 828 903 1448 1529 
Q 2069 2156 2228 2338 
Q 2531 2678 2651 2914 
Q 2772 3150 2772 3378 
Q 2772 3750 2511 3984 
Q 2250 4219 1831 4219 
Q 1534 4219 1204 4116 
Q 875 4013 500 3803 
L 500 4441 
Q 881 4594 1212 4672 
Q 1544 4750 1819 4750 
Q 2544 4750 2975 4387 
Q 3406 4025 3406 3419 
Q 3406 3131 3298 2873 
Q 3191 2616 2906 2266 
Q 2828 2175 2409 1742 
Q 1991 1309 1228 531 
z
" transform="scale(0.015625)"/>
       </defs>
       <use xlink:href="#DejaVuSans-32"/>
       <use xlink:href="#DejaVuSans-30" x="63.623047"/>
      </g>
     </g>
    </g>
    <g id="xtick_3">
     <g id="line2d_3">
      <g>
       <use xlink:href="#m7e7a8f910f" x="246.099762" y="124.22" style="stroke: #000000; stroke-width: 0.8"/>
      </g>
     </g>
     <g id="text_3">
      <!-- 40 -->
      <g transform="translate(239.737262 138.818437) scale(0.1 -0.1)">
       <defs>
        <path id="DejaVuSans-34" d="M 2419 4116 
L 825 1625 
L 2419 1625 
L 2419 4116 
z
M 2253 4666 
L 3047 4666 
L 3047 1625 
L 3713 1625 
L 3713 1100 
L 3047 1100 
L 3047 0 
L 2419 0 
L 2419 1100 
L 313 1100 
L 313 1709 
L 2253 4666 
z
" transform="scale(0.015625)"/>
       </defs>
       <use xlink:href="#DejaVuSans-34"/>
       <use xlink:href="#DejaVuSans-30" x="63.623047"/>
      </g>
     </g>
    </g>
    <g id="xtick_4">
     <g id="line2d_4">
      <g>
       <use xlink:href="#m7e7a8f910f" x="337.421915" y="124.22" style="stroke: #000000; stroke-width: 0.8"/>
      </g>
     </g>
     <g id="text_4">
      <!-- 60 -->
      <g transform="translate(331.059415 138.818437) scale(0.1 -0.1)">
       <defs>
        <path id="DejaVuSans-36" d="M 2113 2584 
Q 1688 2584 1439 2293 
Q 1191 2003 1191 1497 
Q 1191 994 1439 701 
Q 1688 409 2113 409 
Q 2538 409 2786 701 
Q 3034 994 3034 1497 
Q 3034 2003 2786 2293 
Q 2538 2584 2113 2584 
z
M 3366 4563 
L 3366 3988 
Q 3128 4100 2886 4159 
Q 2644 4219 2406 4219 
Q 1781 4219 1451 3797 
Q 1122 3375 1075 2522 
Q 1259 2794 1537 2939 
Q 1816 3084 2150 3084 
Q 2853 3084 3261 2657 
Q 3669 2231 3669 1497 
Q 3669 778 3244 343 
Q 2819 -91 2113 -91 
Q 1303 -91 875 529 
Q 447 1150 447 2328 
Q 447 3434 972 4092 
Q 1497 4750 2381 4750 
Q 2619 4750 2861 4703 
Q 3103 4656 3366 4563 
z
" transform="scale(0.015625)"/>
       </defs>
       <use xlink:href="#DejaVuSans-36"/>
       <use xlink:href="#DejaVuSans-30" x="63.623047"/>
      </g>
     </g>
    </g>
    <g id="xtick_5">
     <g id="line2d_5">
      <g>
       <use xlink:href="#m7e7a8f910f" x="428.744069" y="124.22" style="stroke: #000000; stroke-width: 0.8"/>
      </g>
     </g>
     <g id="text_5">
      <!-- 80 -->
      <g transform="translate(422.381569 138.818437) scale(0.1 -0.1)">
       <defs>
        <path id="DejaVuSans-38" d="M 2034 2216 
Q 1584 2216 1326 1975 
Q 1069 1734 1069 1313 
Q 1069 891 1326 650 
Q 1584 409 2034 409 
Q 2484 409 2743 651 
Q 3003 894 3003 1313 
Q 3003 1734 2745 1975 
Q 2488 2216 2034 2216 
z
M 1403 2484 
Q 997 2584 770 2862 
Q 544 3141 544 3541 
Q 544 4100 942 4425 
Q 1341 4750 2034 4750 
Q 2731 4750 3128 4425 
Q 3525 4100 3525 3541 
Q 3525 3141 3298 2862 
Q 3072 2584 2669 2484 
Q 3125 2378 3379 2068 
Q 3634 1759 3634 1313 
Q 3634 634 3220 271 
Q 2806 -91 2034 -91 
Q 1263 -91 848 271 
Q 434 634 434 1313 
Q 434 1759 690 2068 
Q 947 2378 1403 2484 
z
M 1172 3481 
Q 1172 3119 1398 2916 
Q 1625 2713 2034 2713 
Q 2441 2713 2670 2916 
Q 2900 3119 2900 3481 
Q 2900 3844 2670 4047 
Q 2441 4250 2034 4250 
Q 1625 4250 1398 4047 
Q 1172 3844 1172 3481 
z
" transform="scale(0.015625)"/>
       </defs>
       <use xlink:href="#DejaVuSans-38"/>
       <use xlink:href="#DejaVuSans-30" x="63.623047"/>
      </g>
     </g>
    </g>
    <g id="xtick_6">
     <g id="line2d_6">
      <g>
       <use xlink:href="#m7e7a8f910f" x="520.066222" y="124.22" style="stroke: #000000; stroke-width: 0.8"/>
      </g>
     </g>
     <g id="text_6">
      <!-- 100 -->
      <g transform="translate(510.522472 138.818437) scale(0.1 -0.1)">
       <defs>
        <path id="DejaVuSans-31" d="M 794 531 
L 1825 531 
L 1825 4091 
L 703 3866 
L 703 4441 
L 1819 4666 
L 2450 4666 
L 2450 531 
L 3481 531 
L 3481 0 
L 794 0 
L 794 531 
z
" transform="scale(0.015625)"/>
       </defs>
       <use xlink:href="#DejaVuSans-31"/>
       <use xlink:href="#DejaVuSans-30" x="63.623047"/>
       <use xlink:href="#DejaVuSans-30" x="127.246094"/>
      </g>
     </g>
    </g>
   </g>
   <g id="matplotlib.axis_2">
    <g id="ytick_1">
     <g id="line2d_7">
      <defs>
       <path id="m0546ecadd6" d="M 0 0 
L -3.5 0 
" style="stroke: #000000; stroke-width: 0.8"/>
      </defs>
      <g>
       <use xlink:href="#m0546ecadd6" x="39.94" y="119.244545" style="stroke: #000000; stroke-width: 0.8"/>
      </g>
     </g>
     <g id="text_7">
      <!-- 0 -->
      <g transform="translate(26.5775 123.043764) scale(0.1 -0.1)">
       <use xlink:href="#DejaVuSans-30"/>
      </g>
     </g>
    </g>
    <g id="ytick_2">
     <g id="line2d_8">
      <g>
       <use xlink:href="#m0546ecadd6" x="39.94" y="95.091853" style="stroke: #000000; stroke-width: 0.8"/>
      </g>
     </g>
     <g id="text_8">
      <!-- 25 -->
      <g transform="translate(20.215 98.891072) scale(0.1 -0.1)">
       <defs>
        <path id="DejaVuSans-35" d="M 691 4666 
L 3169 4666 
L 3169 4134 
L 1269 4134 
L 1269 2991 
Q 1406 3038 1543 3061 
Q 1681 3084 1819 3084 
Q 2600 3084 3056 2656 
Q 3513 2228 3513 1497 
Q 3513 744 3044 326 
Q 2575 -91 1722 -91 
Q 1428 -91 1123 -41 
Q 819 9 494 109 
L 494 744 
Q 775 591 1075 516 
Q 1375 441 1709 441 
Q 2250 441 2565 725 
Q 2881 1009 2881 1497 
Q 2881 1984 2565 2268 
Q 2250 2553 1709 2553 
Q 1456 2553 1204 2497 
Q 953 2441 691 2322 
L 691 4666 
z
" transform="scale(0.015625)"/>
       </defs>
       <use xlink:href="#DejaVuSans-32"/>
       <use xlink:href="#DejaVuSans-35" x="63.623047"/>
      </g>
     </g>
    </g>
    <g id="ytick_3">
     <g id="line2d_9">
      <g>
       <use xlink:href="#m0546ecadd6" x="39.94" y="70.939162" style="stroke: #000000; stroke-width: 0.8"/>
      </g>
     </g>
     <g id="text_9">
      <!-- 50 -->
      <g transform="translate(20.215 74.73838) scale(0.1 -0.1)">
       <use xlink:href="#DejaVuSans-35"/>
       <use xlink:href="#DejaVuSans-30" x="63.623047"/>
      </g>
     </g>
    </g>
    <g id="ytick_4">
     <g id="line2d_10">
      <g>
       <use xlink:href="#m0546ecadd6" x="39.94" y="46.78647" style="stroke: #000000; stroke-width: 0.8"/>
      </g>
     </g>
     <g id="text_10">
      <!-- 75 -->
      <g transform="translate(20.215 50.585688) scale(0.1 -0.1)">
       <defs>
        <path id="DejaVuSans-37" d="M 525 4666 
L 3525 4666 
L 3525 4397 
L 1831 0 
L 1172 0 
L 2766 4134 
L 525 4134 
L 525 4666 
z
" transform="scale(0.015625)"/>
       </defs>
       <use xlink:href="#DejaVuSans-37"/>
       <use xlink:href="#DejaVuSans-35" x="63.623047"/>
      </g>
     </g>
    </g>
    <g id="ytick_5">
     <g id="line2d_11">
      <g>
       <use xlink:href="#m0546ecadd6" x="39.94" y="22.633778" style="stroke: #000000; stroke-width: 0.8"/>
      </g>
     </g>
     <g id="text_11">
      <!-- 100 -->
      <g transform="translate(13.8525 26.432996) scale(0.1 -0.1)">
       <use xlink:href="#DejaVuSans-31"/>
       <use xlink:href="#DejaVuSans-30" x="63.623047"/>
       <use xlink:href="#DejaVuSans-30" x="127.246094"/>
      </g>
     </g>
    </g>
   </g>
   <g id="line2d_12">
    <path d="M 63.455455 119.244545 
L 68.021562 118.278438 
L 72.58767 117.31233 
L 77.153778 116.346222 
L 81.719885 115.380115 
L 86.285993 114.414007 
L 90.852101 113.447899 
L 95.418208 112.481792 
L 99.984316 111.515684 
L 104.550424 110.549576 
L 109.116531 109.583469 
L 113.682639 108.617361 
L 118.248747 107.651253 
L 122.814854 106.685146 
L 127.380962 105.719038 
L 131.94707 104.75293 
L 136.513177 103.786823 
L 141.079285 102.820715 
L 145.645393 101.854607 
L 150.2115 100.8885 
L 154.777608 99.922392 
L 159.343716 98.956284 
L 163.909823 97.990177 
L 168.475931 97.024069 
L 173.042039 96.057961 
L 177.608147 95.091853 
L 182.174254 94.125746 
L 186.740362 93.159638 
L 191.30647 92.19353 
L 195.872577 91.227423 
L 200.438685 90.261315 
L 205.004793 89.295207 
L 209.5709 88.3291 
L 214.137008 87.362992 
L 218.703116 86.396884 
L 223.269223 85.430777 
L 227.835331 84.464669 
L 232.401439 83.498561 
L 236.967546 82.532454 
L 241.533654 81.566346 
L 246.099762 80.600238 
L 250.665869 79.634131 
L 255.231977 78.668023 
L 259.798085 77.701915 
L 264.364192 76.735808 
L 268.9303 75.7697 
L 273.496408 74.803592 
L 278.062515 73.837485 
L 282.628623 72.871377 
L 287.194731 71.905269 
L 291.760838 70.939162 
L 296.326946 69.973054 
L 300.893054 69.006946 
L 305.459162 68.040838 
L 310.025269 67.074731 
L 314.591377 66.108623 
L 319.157485 65.142515 
L 323.723592 64.176408 
L 328.2897 63.2103 
L 332.855808 62.244192 
L 337.421915 61.278085 
L 341.988023 60.311977 
L 346.554131 59.345869 
L 351.120238 58.379762 
L 355.686346 57.413654 
L 360.252454 56.447546 
L 364.818561 55.481439 
L 369.384669 54.515331 
L 373.950777 53.549223 
L 378.516884 52.583116 
L 383.082992 51.617008 
L 387.6491 50.6509 
L 392.215207 49.684793 
L 396.781315 48.718685 
L 401.347423 47.752577 
L 405.91353 46.78647 
L 410.479638 45.820362 
L 415.045746 44.854254 
L 419.611853 43.888147 
L 424.177961 42.922039 
L 428.744069 41.955931 
L 433.310177 40.989823 
L 437.876284 40.023716 
L 442.442392 39.057608 
L 447.0085 38.0915 
L 451.574607 37.125393 
L 456.140715 36.159285 
L 460.706823 35.193177 
L 465.27293 34.22707 
L 469.839038 33.260962 
L 474.405146 32.294854 
L 478.971253 31.328747 
L 483.537361 30.362639 
L 488.103469 29.396531 
L 492.669576 28.430424 
L 497.235684 27.464316 
L 501.801792 26.498208 
L 506.367899 25.532101 
L 510.934007 24.565993 
L 515.500115 23.599885 
L 520.066222 22.633778 
L 524.63233 21.66767 
L 529.198438 20.701562 
L 533.764545 19.735455 
" clip-path="url(#p9f1c8b8131)" style="fill: none; stroke: #1f77b4; stroke-width: 1.5; stroke-linecap: square"/>
   </g>
   <g id="patch_3">
    <path d="M 39.94 124.22 
L 39.94 14.76 
" style="fill: none; stroke: #000000; stroke-width: 0.8; stroke-linejoin: miter; stroke-linecap: square"/>
   </g>
   <g id="patch_4">
    <path d="M 557.28 124.22 
L 557.28 14.76 
" style="fill: none; stroke: #000000; stroke-width: 0.8; stroke-linejoin: miter; stroke-linecap: square"/>
   </g>
   <g id="patch_5">
    <path d="M 39.94 124.22 
L 557.28 124.22 
" style="fill: none; stroke: #000000; stroke-width: 0.8; stroke-linejoin: miter; stroke-linecap: square"/>
   </g>
   <g id="patch_6">
    <path d="M 39.94 14.76 
L 557.28 14.76 
" style="fill: none; stroke: #000000; stroke-width: 0.8; stroke-linejoin: miter; stroke-linecap: square"/>
   </g>
   <g id="text_12">
    <!-- epoch -->
    <g transform="translate(280.33625 8.76) scale(0.12 -0.12)">
     <defs>
      <path id="DejaVuSans-65" d="M 3597 1894 
L 3597 1613 
L 953 1613 
Q 991 1019 1311 708 
Q 1631 397 2203 397 
Q 2534 397 2845 478 
Q 3156 559 3463 722 
L 3463 178 
Q 3153 47 2828 -22 
Q 2503 -91 2169 -91 
Q 1331 -91 842 396 
Q 353 884 353 1716 
Q 353 2575 817 3079 
Q 1281 3584 2069 3584 
Q 2775 3584 3186 3129 
Q 3597 2675 3597 1894 
z
M 3022 2063 
Q 3016 2534 2758 2815 
Q 2500 3097 2075 3097 
Q 1594 3097 1305 2825 
Q 1016 2553 972 2059 
L 3022 2063 
z
" transform="scale(0.015625)"/>
      <path id="DejaVuSans-70" d="M 1159 525 
L 1159 -1331 
L 581 -1331 
L 581 3500 
L 1159 3500 
L 1159 2969 
Q 1341 3281 1617 3432 
Q 1894 3584 2278 3584 
Q 2916 3584 3314 3078 
Q 3713 2572 3713 1747 
Q 3713 922 3314 415 
Q 2916 -91 2278 -91 
Q 1894 -91 1617 61 
Q 1341 213 1159 525 
z
M 3116 1747 
Q 3116 2381 2855 2742 
Q 2594 3103 2138 3103 
Q 1681 3103 1420 2742 
Q 1159 2381 1159 1747 
Q 1159 1113 1420 752 
Q 1681 391 2138 391 
Q 2594 391 2855 752 
Q 3116 1113 3116 1747 
z
" transform="scale(0.015625)"/>
      <path id="DejaVuSans-6f" d="M 1959 3097 
Q 1497 3097 1228 2736 
Q 959 2375 959 1747 
Q 959 1119 1226 758 
Q 1494 397 1959 397 
Q 2419 397 2687 759 
Q 2956 1122 2956 1747 
Q 2956 2369 2687 2733 
Q 2419 3097 1959 3097 
z
M 1959 3584 
Q 2709 3584 3137 3096 
Q 3566 2609 3566 1747 
Q 3566 888 3137 398 
Q 2709 -91 1959 -91 
Q 1206 -91 779 398 
Q 353 888 353 1747 
Q 353 2609 779 3096 
Q 1206 3584 1959 3584 
z
" transform="scale(0.015625)"/>
      <path id="DejaVuSans-63" d="M 3122 3366 
L 3122 2828 
Q 2878 2963 2633 3030 
Q 2388 3097 2138 3097 
Q 1578 3097 1268 2742 
Q 959 2388 959 1747 
Q 959 1106 1268 751 
Q 1578 397 2138 397 
Q 2388 397 2633 464 
Q 2878 531 3122 666 
L 3122 134 
Q 2881 22 2623 -34 
Q 2366 -91 2075 -91 
Q 1284 -91 818 406 
Q 353 903 353 1747 
Q 353 2603 823 3093 
Q 1294 3584 2113 3584 
Q 2378 3584 2631 3529 
Q 2884 3475 3122 3366 
z
" transform="scale(0.015625)"/>
      <path id="DejaVuSans-68" d="M 3513 2113 
L 3513 0 
L 2938 0 
L 2938 2094 
Q 2938 2591 2744 2837 
Q 2550 3084 2163 3084 
Q 1697 3084 1428 2787 
Q 1159 2491 1159 1978 
L 1159 0 
L 581 0 
L 581 4863 
L 1159 4863 
L 1159 2956 
Q 1366 3272 1645 3428 
Q 1925 3584 2291 3584 
Q 2894 3584 3203 3211 
Q 3513 2838 3513 2113 
z
" transform="scale(0.015625)"/>
     </defs>
     <use xlink:href="#DejaVuSans-65"/>
     <use xlink:href="#DejaVuSans-70" x="61.523438"/>
     <use xlink:href="#DejaVuSans-6f" x="125"/>
     <use xlink:href="#DejaVuSans-63" x="186.181641"/>
     <use xlink:href="#DejaVuSans-68" x="241.162109"/>
    </g>
   </g>
  </g>
  <g id="axes_2">
   <g id="patch_7">
    <path d="M 39.94 265.52 
L 557.28 265.52 
L 557.28 156.06 
L 39.94 156.06 
z
" style="fill: #ffffff"/>
   </g>
   <g id="matplotlib.axis_3">
    <g id="xtick_7">
     <g id="line2d_13">
      <g>
       <use xlink:href="#m7e7a8f910f" x="63.455455" y="265.52" style="stroke: #000000; stroke-width: 0.8"/>
      </g>
     </g>
     <g id="text_13">
      <!-- 0 -->
      <g transform="translate(60.274205 280.118437) scale(0.1 -0.1)">
       <use xlink:href="#DejaVuSans-30"/>
      </g>
     </g>
    </g>
    <g id="xtick_8">
     <g id="line2d_14">
      <g>
       <use xlink:href="#m7e7a8f910f" x="154.777608" y="265.52" style="stroke: #000000; stroke-width: 0.8"/>
      </g>
     </g>
     <g id="text_14">
      <!-- 20 -->
      <g transform="translate(148.415108 280.118437) scale(0.1 -0.1)">
       <use xlink:href="#DejaVuSans-32"/>
       <use xlink:href="#DejaVuSans-30" x="63.623047"/>
      </g>
     </g>
    </g>
    <g id="xtick_9">
     <g id="line2d_15">
      <g>
       <use xlink:href="#m7e7a8f910f" x="246.099762" y="265.52" style="stroke: #000000; stroke-width: 0.8"/>
      </g>
     </g>
     <g id="text_15">
      <!-- 40 -->
      <g transform="translate(239.737262 280.118437) scale(0.1 -0.1)">
       <use xlink:href="#DejaVuSans-34"/>
       <use xlink:href="#DejaVuSans-30" x="63.623047"/>
      </g>
     </g>
    </g>
    <g id="xtick_10">
     <g id="line2d_16">
      <g>
       <use xlink:href="#m7e7a8f910f" x="337.421915" y="265.52" style="stroke: #000000; stroke-width: 0.8"/>
      </g>
     </g>
     <g id="text_16">
      <!-- 60 -->
      <g transform="translate(331.059415 280.118437) scale(0.1 -0.1)">
       <use xlink:href="#DejaVuSans-36"/>
       <use xlink:href="#DejaVuSans-30" x="63.623047"/>
      </g>
     </g>
    </g>
    <g id="xtick_11">
     <g id="line2d_17">
      <g>
       <use xlink:href="#m7e7a8f910f" x="428.744069" y="265.52" style="stroke: #000000; stroke-width: 0.8"/>
      </g>
     </g>
     <g id="text_17">
      <!-- 80 -->
      <g transform="translate(422.381569 280.118437) scale(0.1 -0.1)">
       <use xlink:href="#DejaVuSans-38"/>
       <use xlink:href="#DejaVuSans-30" x="63.623047"/>
      </g>
     </g>
    </g>
    <g id="xtick_12">
     <g id="line2d_18">
      <g>
       <use xlink:href="#m7e7a8f910f" x="520.066222" y="265.52" style="stroke: #000000; stroke-width: 0.8"/>
      </g>
     </g>
     <g id="text_18">
      <!-- 100 -->
      <g transform="translate(510.522472 280.118437) scale(0.1 -0.1)">
       <use xlink:href="#DejaVuSans-31"/>
       <use xlink:href="#DejaVuSans-30" x="63.623047"/>
       <use xlink:href="#DejaVuSans-30" x="127.246094"/>
      </g>
     </g>
    </g>
   </g>
   <g id="matplotlib.axis_4">
    <g id="ytick_6">
     <g id="line2d_19">
      <g>
       <use xlink:href="#m0546ecadd6" x="39.94" y="262.273879" style="stroke: #000000; stroke-width: 0.8"/>
      </g>
     </g>
     <g id="text_19">
      <!-- 0.0 -->
      <g transform="translate(17.036875 266.073098) scale(0.1 -0.1)">
       <defs>
        <path id="DejaVuSans-2e" d="M 684 794 
L 1344 794 
L 1344 0 
L 684 0 
L 684 794 
z
" transform="scale(0.015625)"/>
       </defs>
       <use xlink:href="#DejaVuSans-30"/>
       <use xlink:href="#DejaVuSans-2e" x="63.623047"/>
       <use xlink:href="#DejaVuSans-30" x="95.410156"/>
      </g>
     </g>
    </g>
    <g id="ytick_7">
     <g id="line2d_20">
      <g>
       <use xlink:href="#m0546ecadd6" x="39.94" y="233.285192" style="stroke: #000000; stroke-width: 0.8"/>
      </g>
     </g>
     <g id="text_20">
      <!-- 0.2 -->
      <g transform="translate(17.036875 237.084411) scale(0.1 -0.1)">
       <use xlink:href="#DejaVuSans-30"/>
       <use xlink:href="#DejaVuSans-2e" x="63.623047"/>
       <use xlink:href="#DejaVuSans-32" x="95.410156"/>
      </g>
     </g>
    </g>
    <g id="ytick_8">
     <g id="line2d_21">
      <g>
       <use xlink:href="#m0546ecadd6" x="39.94" y="204.296505" style="stroke: #000000; stroke-width: 0.8"/>
      </g>
     </g>
     <g id="text_21">
      <!-- 0.4 -->
      <g transform="translate(17.036875 208.095724) scale(0.1 -0.1)">
       <use xlink:href="#DejaVuSans-30"/>
       <use xlink:href="#DejaVuSans-2e" x="63.623047"/>
       <use xlink:href="#DejaVuSans-34" x="95.410156"/>
      </g>
     </g>
    </g>
    <g id="ytick_9">
     <g id="line2d_22">
      <g>
       <use xlink:href="#m0546ecadd6" x="39.94" y="175.307818" style="stroke: #000000; stroke-width: 0.8"/>
      </g>
     </g>
     <g id="text_22">
      <!-- 0.6 -->
      <g transform="translate(17.036875 179.107037) scale(0.1 -0.1)">
       <use xlink:href="#DejaVuSans-30"/>
       <use xlink:href="#DejaVuSans-2e" x="63.623047"/>
       <use xlink:href="#DejaVuSans-36" x="95.410156"/>
      </g>
     </g>
    </g>
   </g>
   <g id="line2d_23">
    <path d="M 63.455455 161.035455 
L 68.021562 163.200714 
L 72.58767 195.01827 
L 77.153778 205.405657 
L 81.719885 220.045692 
L 86.285993 219.990116 
L 90.852101 221.06691 
L 95.418208 235.262553 
L 99.984316 236.808962 
L 104.550424 245.71016 
L 109.116531 240.95211 
L 113.682639 233.784282 
L 118.248747 252.330789 
L 122.814854 251.85395 
L 127.380962 250.602447 
L 131.94707 250.614979 
L 136.513177 246.214476 
L 141.079285 244.163869 
L 145.645393 255.89261 
L 150.2115 253.268114 
L 154.777608 256.000583 
L 159.343716 258.036422 
L 163.909823 251.542874 
L 168.475931 256.584523 
L 173.042039 259.299862 
L 177.608147 258.573448 
L 182.174254 256.61656 
L 186.740362 258.30641 
L 191.30647 249.886908 
L 195.872577 253.935447 
L 200.438685 257.294146 
L 205.004793 249.237343 
L 209.5709 258.498846 
L 214.137008 256.171044 
L 218.703116 254.942925 
L 223.269223 258.21581 
L 227.835331 254.372277 
L 232.401439 258.98332 
L 236.967546 259.514917 
L 241.533654 259.305137 
L 246.099762 258.56625 
L 250.665869 258.952789 
L 255.231977 250.861981 
L 259.798085 259.827215 
L 264.364192 258.430647 
L 268.9303 259.178155 
L 273.496408 257.206566 
L 278.062515 259.80832 
L 282.628623 259.28344 
L 287.194731 257.612681 
L 291.760838 258.492387 
L 296.326946 249.266455 
L 300.893054 259.555367 
L 305.459162 259.90975 
L 310.025269 257.942419 
L 314.591377 259.070918 
L 319.157485 259.953414 
L 323.723592 258.426007 
L 328.2897 259.599989 
L 332.855808 248.616723 
L 337.421915 255.210073 
L 341.988023 260.216829 
L 346.554131 259.374787 
L 351.120238 256.684694 
L 355.686346 259.956975 
L 360.252454 258.805737 
L 364.818561 258.507401 
L 369.384669 252.801397 
L 373.950777 259.574456 
L 378.516884 260.263199 
L 383.082992 260.257339 
L 387.6491 260.296565 
L 392.215207 259.761853 
L 396.781315 251.285685 
L 401.347423 259.346618 
L 405.91353 259.094432 
L 410.479638 260.157547 
L 415.045746 254.456757 
L 419.611853 260.36847 
L 424.177961 260.369075 
L 428.744069 260.292973 
L 433.310177 257.378848 
L 437.876284 260.228657 
L 442.442392 255.976225 
L 447.0085 260.350662 
L 451.574607 260.329529 
L 456.140715 260.364567 
L 460.706823 260.407103 
L 465.27293 260.367536 
L 469.839038 260.324471 
L 474.405146 260.443906 
L 478.971253 254.479838 
L 483.537361 260.401542 
L 488.103469 260.252439 
L 492.669576 260.221446 
L 497.235684 260.457537 
L 501.801792 257.550737 
L 506.367899 260.356879 
L 510.934007 260.492606 
L 515.500115 260.514863 
L 520.066222 260.094075 
L 524.63233 260.417445 
L 529.198438 260.544545 
L 533.764545 260.533735 
" clip-path="url(#p5348819230)" style="fill: none; stroke: #1f77b4; stroke-width: 1.5; stroke-linecap: square"/>
   </g>
   <g id="patch_8">
    <path d="M 39.94 265.52 
L 39.94 156.06 
" style="fill: none; stroke: #000000; stroke-width: 0.8; stroke-linejoin: miter; stroke-linecap: square"/>
   </g>
   <g id="patch_9">
    <path d="M 557.28 265.52 
L 557.28 156.06 
" style="fill: none; stroke: #000000; stroke-width: 0.8; stroke-linejoin: miter; stroke-linecap: square"/>
   </g>
   <g id="patch_10">
    <path d="M 39.94 265.52 
L 557.28 265.52 
" style="fill: none; stroke: #000000; stroke-width: 0.8; stroke-linejoin: miter; stroke-linecap: square"/>
   </g>
   <g id="patch_11">
    <path d="M 39.94 156.06 
L 557.28 156.06 
" style="fill: none; stroke: #000000; stroke-width: 0.8; stroke-linejoin: miter; stroke-linecap: square"/>
   </g>
   <g id="text_23">
    <!-- loss -->
    <g transform="translate(287.020625 150.06) scale(0.12 -0.12)">
     <defs>
      <path id="DejaVuSans-6c" d="M 603 4863 
L 1178 4863 
L 1178 0 
L 603 0 
L 603 4863 
z
" transform="scale(0.015625)"/>
      <path id="DejaVuSans-73" d="M 2834 3397 
L 2834 2853 
Q 2591 2978 2328 3040 
Q 2066 3103 1784 3103 
Q 1356 3103 1142 2972 
Q 928 2841 928 2578 
Q 928 2378 1081 2264 
Q 1234 2150 1697 2047 
L 1894 2003 
Q 2506 1872 2764 1633 
Q 3022 1394 3022 966 
Q 3022 478 2636 193 
Q 2250 -91 1575 -91 
Q 1294 -91 989 -36 
Q 684 19 347 128 
L 347 722 
Q 666 556 975 473 
Q 1284 391 1588 391 
Q 1994 391 2212 530 
Q 2431 669 2431 922 
Q 2431 1156 2273 1281 
Q 2116 1406 1581 1522 
L 1381 1569 
Q 847 1681 609 1914 
Q 372 2147 372 2553 
Q 372 3047 722 3315 
Q 1072 3584 1716 3584 
Q 2034 3584 2315 3537 
Q 2597 3491 2834 3397 
z
" transform="scale(0.015625)"/>
     </defs>
     <use xlink:href="#DejaVuSans-6c"/>
     <use xlink:href="#DejaVuSans-6f" x="27.783203"/>
     <use xlink:href="#DejaVuSans-73" x="88.964844"/>
     <use xlink:href="#DejaVuSans-73" x="141.064453"/>
    </g>
   </g>
  </g>
  <g id="axes_3">
   <g id="patch_12">
    <path d="M 39.94 406.82 
L 557.28 406.82 
L 557.28 297.36 
L 39.94 297.36 
z
" style="fill: #ffffff"/>
   </g>
   <g id="matplotlib.axis_5">
    <g id="xtick_13">
     <g id="line2d_24">
      <g>
       <use xlink:href="#m7e7a8f910f" x="63.455455" y="406.82" style="stroke: #000000; stroke-width: 0.8"/>
      </g>
     </g>
     <g id="text_24">
      <!-- 0 -->
      <g transform="translate(60.274205 421.418437) scale(0.1 -0.1)">
       <use xlink:href="#DejaVuSans-30"/>
      </g>
     </g>
    </g>
    <g id="xtick_14">
     <g id="line2d_25">
      <g>
       <use xlink:href="#m7e7a8f910f" x="154.777608" y="406.82" style="stroke: #000000; stroke-width: 0.8"/>
      </g>
     </g>
     <g id="text_25">
      <!-- 20 -->
      <g transform="translate(148.415108 421.418437) scale(0.1 -0.1)">
       <use xlink:href="#DejaVuSans-32"/>
       <use xlink:href="#DejaVuSans-30" x="63.623047"/>
      </g>
     </g>
    </g>
    <g id="xtick_15">
     <g id="line2d_26">
      <g>
       <use xlink:href="#m7e7a8f910f" x="246.099762" y="406.82" style="stroke: #000000; stroke-width: 0.8"/>
      </g>
     </g>
     <g id="text_26">
      <!-- 40 -->
      <g transform="translate(239.737262 421.418437) scale(0.1 -0.1)">
       <use xlink:href="#DejaVuSans-34"/>
       <use xlink:href="#DejaVuSans-30" x="63.623047"/>
      </g>
     </g>
    </g>
    <g id="xtick_16">
     <g id="line2d_27">
      <g>
       <use xlink:href="#m7e7a8f910f" x="337.421915" y="406.82" style="stroke: #000000; stroke-width: 0.8"/>
      </g>
     </g>
     <g id="text_27">
      <!-- 60 -->
      <g transform="translate(331.059415 421.418437) scale(0.1 -0.1)">
       <use xlink:href="#DejaVuSans-36"/>
       <use xlink:href="#DejaVuSans-30" x="63.623047"/>
      </g>
     </g>
    </g>
    <g id="xtick_17">
     <g id="line2d_28">
      <g>
       <use xlink:href="#m7e7a8f910f" x="428.744069" y="406.82" style="stroke: #000000; stroke-width: 0.8"/>
      </g>
     </g>
     <g id="text_28">
      <!-- 80 -->
      <g transform="translate(422.381569 421.418437) scale(0.1 -0.1)">
       <use xlink:href="#DejaVuSans-38"/>
       <use xlink:href="#DejaVuSans-30" x="63.623047"/>
      </g>
     </g>
    </g>
    <g id="xtick_18">
     <g id="line2d_29">
      <g>
       <use xlink:href="#m7e7a8f910f" x="520.066222" y="406.82" style="stroke: #000000; stroke-width: 0.8"/>
      </g>
     </g>
     <g id="text_29">
      <!-- 100 -->
      <g transform="translate(510.522472 421.418437) scale(0.1 -0.1)">
       <use xlink:href="#DejaVuSans-31"/>
       <use xlink:href="#DejaVuSans-30" x="63.623047"/>
       <use xlink:href="#DejaVuSans-30" x="127.246094"/>
      </g>
     </g>
    </g>
   </g>
   <g id="matplotlib.axis_6">
    <g id="ytick_10">
     <g id="line2d_30">
      <g>
       <use xlink:href="#m0546ecadd6" x="39.94" y="401.851411" style="stroke: #000000; stroke-width: 0.8"/>
      </g>
     </g>
     <g id="text_30">
      <!-- 0.0 -->
      <g transform="translate(17.036875 405.65063) scale(0.1 -0.1)">
       <use xlink:href="#DejaVuSans-30"/>
       <use xlink:href="#DejaVuSans-2e" x="63.623047"/>
       <use xlink:href="#DejaVuSans-30" x="95.410156"/>
      </g>
     </g>
    </g>
    <g id="ytick_11">
     <g id="line2d_31">
      <g>
       <use xlink:href="#m0546ecadd6" x="39.94" y="373.128912" style="stroke: #000000; stroke-width: 0.8"/>
      </g>
     </g>
     <g id="text_31">
      <!-- 0.2 -->
      <g transform="translate(17.036875 376.92813) scale(0.1 -0.1)">
       <use xlink:href="#DejaVuSans-30"/>
       <use xlink:href="#DejaVuSans-2e" x="63.623047"/>
       <use xlink:href="#DejaVuSans-32" x="95.410156"/>
      </g>
     </g>
    </g>
    <g id="ytick_12">
     <g id="line2d_32">
      <g>
       <use xlink:href="#m0546ecadd6" x="39.94" y="344.406412" style="stroke: #000000; stroke-width: 0.8"/>
      </g>
     </g>
     <g id="text_32">
      <!-- 0.4 -->
      <g transform="translate(17.036875 348.205631) scale(0.1 -0.1)">
       <use xlink:href="#DejaVuSans-30"/>
       <use xlink:href="#DejaVuSans-2e" x="63.623047"/>
       <use xlink:href="#DejaVuSans-34" x="95.410156"/>
      </g>
     </g>
    </g>
    <g id="ytick_13">
     <g id="line2d_33">
      <g>
       <use xlink:href="#m0546ecadd6" x="39.94" y="315.683912" style="stroke: #000000; stroke-width: 0.8"/>
      </g>
     </g>
     <g id="text_33">
      <!-- 0.6 -->
      <g transform="translate(17.036875 319.483131) scale(0.1 -0.1)">
       <use xlink:href="#DejaVuSans-30"/>
       <use xlink:href="#DejaVuSans-2e" x="63.623047"/>
       <use xlink:href="#DejaVuSans-36" x="95.410156"/>
      </g>
     </g>
    </g>
   </g>
   <g id="line2d_34">
    <path d="M 63.455455 302.335455 
L 68.021562 304.398194 
L 72.58767 336.390678 
L 77.153778 346.827929 
L 81.719885 361.409563 
L 86.285993 361.422856 
L 90.852101 362.552263 
L 95.418208 376.680418 
L 99.984316 378.261289 
L 104.550424 387.120792 
L 109.116531 382.446272 
L 113.682639 375.374034 
L 118.248747 393.777796 
L 122.814854 393.332464 
L 127.380962 392.114393 
L 131.94707 392.149615 
L 136.513177 387.810992 
L 141.079285 385.797272 
L 145.645393 397.436203 
L 150.2115 394.852789 
L 154.777608 397.575921 
L 159.343716 399.606999 
L 163.909823 393.188117 
L 168.475931 398.193708 
L 173.042039 400.89409 
L 177.608147 400.186339 
L 182.174254 398.258341 
L 186.740362 399.943328 
L 191.30647 391.609177 
L 195.872577 395.627609 
L 200.438685 398.962629 
L 205.004793 390.985453 
L 209.5709 400.168731 
L 214.137008 397.870714 
L 218.703116 396.656615 
L 223.269223 399.905863 
L 227.835331 396.102206 
L 232.401439 400.671912 
L 236.967546 401.200399 
L 241.533654 400.997062 
L 246.099762 400.265788 
L 250.665869 400.649491 
L 255.231977 392.63342 
L 259.798085 401.518049 
L 264.364192 400.134719 
L 268.9303 400.873849 
L 273.496408 398.921927 
L 278.062515 401.495501 
L 282.628623 400.972732 
L 287.194731 399.316678 
L 291.760838 400.1838 
L 296.326946 391.037022 
L 300.893054 401.229594 
L 305.459162 401.575379 
L 310.025269 399.620935 
L 314.591377 400.736668 
L 319.157485 401.60448 
L 323.723592 400.081655 
L 328.2897 401.236664 
L 332.855808 390.346035 
L 337.421915 396.872292 
L 341.988023 401.823773 
L 346.554131 400.980896 
L 351.120238 398.310557 
L 355.686346 401.545977 
L 360.252454 400.401154 
L 364.818561 400.097487 
L 369.384669 394.43358 
L 373.950777 401.138946 
L 378.516884 401.816258 
L 383.082992 401.799402 
L 387.6491 401.825639 
L 392.215207 401.285369 
L 396.781315 392.879143 
L 401.347423 400.855605 
L 405.91353 400.601656 
L 410.479638 401.647024 
L 415.045746 395.992028 
L 419.611853 401.844545 
L 424.177961 401.83481 
L 428.744069 401.755662 
L 433.310177 398.86304 
L 437.876284 401.683993 
L 442.442392 397.461874 
L 447.0085 401.786904 
L 451.574607 401.758501 
L 456.140715 401.784816 
L 460.706823 401.820322 
L 465.27293 401.774838 
L 469.839038 401.725481 
L 474.405146 401.839104 
L 478.971253 395.920878 
L 483.537361 401.780894 
L 488.103469 401.627544 
L 492.669576 401.588929 
L 497.235684 401.814038 
L 501.801792 398.925649 
L 506.367899 401.697921 
L 510.934007 401.823939 
L 515.500115 401.837039 
L 520.066222 401.409903 
L 524.63233 401.723338 
L 529.198438 401.843371 
L 533.764545 401.828013 
" clip-path="url(#p99c4b07fa5)" style="fill: none; stroke: #1f77b4; stroke-width: 1.5; stroke-linecap: square"/>
   </g>
   <g id="patch_13">
    <path d="M 39.94 406.82 
L 39.94 297.36 
" style="fill: none; stroke: #000000; stroke-width: 0.8; stroke-linejoin: miter; stroke-linecap: square"/>
   </g>
   <g id="patch_14">
    <path d="M 557.28 406.82 
L 557.28 297.36 
" style="fill: none; stroke: #000000; stroke-width: 0.8; stroke-linejoin: miter; stroke-linecap: square"/>
   </g>
   <g id="patch_15">
    <path d="M 39.94 406.82 
L 557.28 406.82 
" style="fill: none; stroke: #000000; stroke-width: 0.8; stroke-linejoin: miter; stroke-linecap: square"/>
   </g>
   <g id="patch_16">
    <path d="M 39.94 297.36 
L 557.28 297.36 
" style="fill: none; stroke: #000000; stroke-width: 0.8; stroke-linejoin: miter; stroke-linecap: square"/>
   </g>
   <g id="text_34">
    <!-- L_cls -->
    <g transform="translate(284.175312 291.36) scale(0.12 -0.12)">
     <defs>
      <path id="DejaVuSans-4c" d="M 628 4666 
L 1259 4666 
L 1259 531 
L 3531 531 
L 3531 0 
L 628 0 
L 628 4666 
z
" transform="scale(0.015625)"/>
      <path id="DejaVuSans-5f" d="M 3263 -1063 
L 3263 -1509 
L -63 -1509 
L -63 -1063 
L 3263 -1063 
z
" transform="scale(0.015625)"/>
     </defs>
     <use xlink:href="#DejaVuSans-4c"/>
     <use xlink:href="#DejaVuSans-5f" x="55.712891"/>
     <use xlink:href="#DejaVuSans-63" x="105.712891"/>
     <use xlink:href="#DejaVuSans-6c" x="160.693359"/>
     <use xlink:href="#DejaVuSans-73" x="188.476562"/>
    </g>
   </g>
  </g>
  <g id="axes_4">
   <g id="patch_17">
    <path d="M 39.94 548.12 
L 557.28 548.12 
L 557.28 438.66 
L 39.94 438.66 
z
" style="fill: #ffffff"/>
   </g>
   <g id="matplotlib.axis_7">
    <g id="xtick_19">
     <g id="line2d_35">
      <g>
       <use xlink:href="#m7e7a8f910f" x="63.455455" y="548.12" style="stroke: #000000; stroke-width: 0.8"/>
      </g>
     </g>
     <g id="text_35">
      <!-- 0 -->
      <g transform="translate(60.274205 562.718437) scale(0.1 -0.1)">
       <use xlink:href="#DejaVuSans-30"/>
      </g>
     </g>
    </g>
    <g id="xtick_20">
     <g id="line2d_36">
      <g>
       <use xlink:href="#m7e7a8f910f" x="154.777608" y="548.12" style="stroke: #000000; stroke-width: 0.8"/>
      </g>
     </g>
     <g id="text_36">
      <!-- 20 -->
      <g transform="translate(148.415108 562.718437) scale(0.1 -0.1)">
       <use xlink:href="#DejaVuSans-32"/>
       <use xlink:href="#DejaVuSans-30" x="63.623047"/>
      </g>
     </g>
    </g>
    <g id="xtick_21">
     <g id="line2d_37">
      <g>
       <use xlink:href="#m7e7a8f910f" x="246.099762" y="548.12" style="stroke: #000000; stroke-width: 0.8"/>
      </g>
     </g>
     <g id="text_37">
      <!-- 40 -->
      <g transform="translate(239.737262 562.718437) scale(0.1 -0.1)">
       <use xlink:href="#DejaVuSans-34"/>
       <use xlink:href="#DejaVuSans-30" x="63.623047"/>
      </g>
     </g>
    </g>
    <g id="xtick_22">
     <g id="line2d_38">
      <g>
       <use xlink:href="#m7e7a8f910f" x="337.421915" y="548.12" style="stroke: #000000; stroke-width: 0.8"/>
      </g>
     </g>
     <g id="text_38">
      <!-- 60 -->
      <g transform="translate(331.059415 562.718437) scale(0.1 -0.1)">
       <use xlink:href="#DejaVuSans-36"/>
       <use xlink:href="#DejaVuSans-30" x="63.623047"/>
      </g>
     </g>
    </g>
    <g id="xtick_23">
     <g id="line2d_39">
      <g>
       <use xlink:href="#m7e7a8f910f" x="428.744069" y="548.12" style="stroke: #000000; stroke-width: 0.8"/>
      </g>
     </g>
     <g id="text_39">
      <!-- 80 -->
      <g transform="translate(422.381569 562.718437) scale(0.1 -0.1)">
       <use xlink:href="#DejaVuSans-38"/>
       <use xlink:href="#DejaVuSans-30" x="63.623047"/>
      </g>
     </g>
    </g>
    <g id="xtick_24">
     <g id="line2d_40">
      <g>
       <use xlink:href="#m7e7a8f910f" x="520.066222" y="548.12" style="stroke: #000000; stroke-width: 0.8"/>
      </g>
     </g>
     <g id="text_40">
      <!-- 100 -->
      <g transform="translate(510.522472 562.718437) scale(0.1 -0.1)">
       <use xlink:href="#DejaVuSans-31"/>
       <use xlink:href="#DejaVuSans-30" x="63.623047"/>
       <use xlink:href="#DejaVuSans-30" x="127.246094"/>
      </g>
     </g>
    </g>
   </g>
   <g id="matplotlib.axis_8">
    <g id="ytick_14">
     <g id="line2d_41">
      <g>
       <use xlink:href="#m0546ecadd6" x="39.94" y="517.461946" style="stroke: #000000; stroke-width: 0.8"/>
      </g>
     </g>
     <g id="text_41">
      <!-- 0.0003 -->
      <g transform="translate(-2.050625 521.261164) scale(0.1 -0.1)">
       <defs>
        <path id="DejaVuSans-33" d="M 2597 2516 
Q 3050 2419 3304 2112 
Q 3559 1806 3559 1356 
Q 3559 666 3084 287 
Q 2609 -91 1734 -91 
Q 1441 -91 1130 -33 
Q 819 25 488 141 
L 488 750 
Q 750 597 1062 519 
Q 1375 441 1716 441 
Q 2309 441 2620 675 
Q 2931 909 2931 1356 
Q 2931 1769 2642 2001 
Q 2353 2234 1838 2234 
L 1294 2234 
L 1294 2753 
L 1863 2753 
Q 2328 2753 2575 2939 
Q 2822 3125 2822 3475 
Q 2822 3834 2567 4026 
Q 2313 4219 1838 4219 
Q 1578 4219 1281 4162 
Q 984 4106 628 3988 
L 628 4550 
Q 988 4650 1302 4700 
Q 1616 4750 1894 4750 
Q 2613 4750 3031 4423 
Q 3450 4097 3450 3541 
Q 3450 3153 3228 2886 
Q 3006 2619 2597 2516 
z
" transform="scale(0.015625)"/>
       </defs>
       <use xlink:href="#DejaVuSans-30"/>
       <use xlink:href="#DejaVuSans-2e" x="63.623047"/>
       <use xlink:href="#DejaVuSans-30" x="95.410156"/>
       <use xlink:href="#DejaVuSans-30" x="159.033203"/>
       <use xlink:href="#DejaVuSans-30" x="222.65625"/>
       <use xlink:href="#DejaVuSans-33" x="286.279297"/>
      </g>
     </g>
    </g>
    <g id="ytick_15">
     <g id="line2d_42">
      <g>
       <use xlink:href="#m0546ecadd6" x="39.94" y="480.537312" style="stroke: #000000; stroke-width: 0.8"/>
      </g>
     </g>
     <g id="text_42">
      <!-- 0.0004 -->
      <g transform="translate(-2.050625 484.336531) scale(0.1 -0.1)">
       <use xlink:href="#DejaVuSans-30"/>
       <use xlink:href="#DejaVuSans-2e" x="63.623047"/>
       <use xlink:href="#DejaVuSans-30" x="95.410156"/>
       <use xlink:href="#DejaVuSans-30" x="159.033203"/>
       <use xlink:href="#DejaVuSans-30" x="222.65625"/>
       <use xlink:href="#DejaVuSans-34" x="286.279297"/>
      </g>
     </g>
    </g>
    <g id="ytick_16">
     <g id="line2d_43">
      <g>
       <use xlink:href="#m0546ecadd6" x="39.94" y="443.612679" style="stroke: #000000; stroke-width: 0.8"/>
      </g>
     </g>
     <g id="text_43">
      <!-- 0.0005 -->
      <g transform="translate(-2.050625 447.411897) scale(0.1 -0.1)">
       <use xlink:href="#DejaVuSans-30"/>
       <use xlink:href="#DejaVuSans-2e" x="63.623047"/>
       <use xlink:href="#DejaVuSans-30" x="95.410156"/>
       <use xlink:href="#DejaVuSans-30" x="159.033203"/>
       <use xlink:href="#DejaVuSans-30" x="222.65625"/>
       <use xlink:href="#DejaVuSans-35" x="286.279297"/>
      </g>
     </g>
    </g>
   </g>
   <g id="line2d_44">
    <path d="M 63.455455 443.635455 
L 68.021562 443.692385 
L 72.58767 443.772066 
L 77.153778 443.874479 
L 81.719885 443.999598 
L 86.285993 444.147392 
L 90.852101 444.317826 
L 95.418208 444.510856 
L 99.984316 444.726436 
L 104.550424 444.964511 
L 109.116531 445.225024 
L 113.682639 445.507911 
L 118.248747 445.8131 
L 122.814854 446.140517 
L 127.380962 446.490082 
L 131.94707 446.861708 
L 136.513177 447.255302 
L 141.079285 447.670769 
L 145.645393 448.108006 
L 150.2115 448.566904 
L 154.777608 449.047351 
L 159.343716 449.549228 
L 163.909823 450.072411 
L 168.475931 450.616771 
L 173.042039 451.182173 
L 177.608147 451.768479 
L 182.174254 452.375544 
L 186.740362 453.003217 
L 191.30647 453.651345 
L 195.872577 454.319766 
L 200.438685 455.008316 
L 205.004793 455.716826 
L 209.5709 456.44512 
L 214.137008 457.193019 
L 218.703116 457.960338 
L 223.269223 458.746888 
L 227.835331 459.552474 
L 232.401439 460.376899 
L 236.967546 461.219958 
L 241.533654 462.081444 
L 246.099762 462.961144 
L 250.665869 463.85884 
L 255.231977 464.774313 
L 259.798085 465.707335 
L 264.364192 466.657676 
L 268.9303 467.625102 
L 273.496408 468.609375 
L 278.062515 469.61025 
L 282.628623 470.627483 
L 287.194731 471.66082 
L 291.760838 472.710009 
L 296.326946 473.774788 
L 300.893054 474.854897 
L 305.459162 475.950068 
L 310.025269 477.060031 
L 314.591377 478.184513 
L 319.157485 479.323235 
L 323.723592 480.475918 
L 328.2897 481.642276 
L 332.855808 482.822021 
L 337.421915 484.014863 
L 341.988023 485.220508 
L 346.554131 486.438657 
L 351.120238 487.669011 
L 355.686346 488.911265 
L 360.252454 490.165114 
L 364.818561 491.430247 
L 369.384669 492.706353 
L 373.950777 493.993117 
L 378.516884 495.290222 
L 383.082992 496.597346 
L 387.6491 497.914169 
L 392.215207 499.240364 
L 396.781315 500.575605 
L 401.347423 501.919562 
L 405.91353 503.271904 
L 410.479638 504.632297 
L 415.045746 506.000405 
L 419.611853 507.375891 
L 424.177961 508.758415 
L 428.744069 510.147637 
L 433.310177 511.543213 
L 437.876284 512.944799 
L 442.442392 514.352049 
L 447.0085 515.764617 
L 451.574607 517.182153 
L 456.140715 518.604308 
L 460.706823 520.030731 
L 465.27293 521.46107 
L 469.839038 522.894972 
L 474.405146 524.332084 
L 478.971253 525.77205 
L 483.537361 527.214515 
L 488.103469 528.659124 
L 492.669576 530.105521 
L 497.235684 531.553347 
L 501.801792 533.002246 
L 506.367899 534.451861 
L 510.934007 535.901834 
L 515.500115 537.351807 
L 520.066222 538.801422 
L 524.63233 540.250322 
L 529.198438 541.698149 
L 533.764545 543.144545 
" clip-path="url(#p713bb7dc03)" style="fill: none; stroke: #1f77b4; stroke-width: 1.5; stroke-linecap: square"/>
   </g>
   <g id="patch_18">
    <path d="M 39.94 548.12 
L 39.94 438.66 
" style="fill: none; stroke: #000000; stroke-width: 0.8; stroke-linejoin: miter; stroke-linecap: square"/>
   </g>
   <g id="patch_19">
    <path d="M 557.28 548.12 
L 557.28 438.66 
" style="fill: none; stroke: #000000; stroke-width: 0.8; stroke-linejoin: miter; stroke-linecap: square"/>
   </g>
   <g id="patch_20">
    <path d="M 39.94 548.12 
L 557.28 548.12 
" style="fill: none; stroke: #000000; stroke-width: 0.8; stroke-linejoin: miter; stroke-linecap: square"/>
   </g>
   <g id="patch_21">
    <path d="M 39.94 438.66 
L 557.28 438.66 
" style="fill: none; stroke: #000000; stroke-width: 0.8; stroke-linejoin: miter; stroke-linecap: square"/>
   </g>
   <g id="text_44">
    <!-- lr -->
    <g transform="translate(294.476562 432.66) scale(0.12 -0.12)">
     <defs>
      <path id="DejaVuSans-72" d="M 2631 2963 
Q 2534 3019 2420 3045 
Q 2306 3072 2169 3072 
Q 1681 3072 1420 2755 
Q 1159 2438 1159 1844 
L 1159 0 
L 581 0 
L 581 3500 
L 1159 3500 
L 1159 2956 
Q 1341 3275 1631 3429 
Q 1922 3584 2338 3584 
Q 2397 3584 2469 3576 
Q 2541 3569 2628 3553 
L 2631 2963 
z
" transform="scale(0.015625)"/>
     </defs>
     <use xlink:href="#DejaVuSans-6c"/>
     <use xlink:href="#DejaVuSans-72" x="27.783203"/>
    </g>
   </g>
  </g>
 </g>
 <defs>
  <clipPath id="p9f1c8b8131">
   <rect x="39.94" y="14.76" width="517.34" height="109.46"/>
  </clipPath>
  <clipPath id="p5348819230">
   <rect x="39.94" y="156.06" width="517.34" height="109.46"/>
  </clipPath>
  <clipPath id="p99c4b07fa5">
   <rect x="39.94" y="297.36" width="517.34" height="109.46"/>
  </clipPath>
  <clipPath id="p713bb7dc03">
   <rect x="39.94" y="438.66" width="517.34" height="109.46"/>
  </clipPath>
 </defs>
</svg>
