<?xml version="1.0" encoding="utf-8" standalone="no"?>
<!DOCTYPE svg PUBLIC "-//W3C//DTD SVG 1.1//EN"
  "http://www.w3.org/Graphics/SVG/1.1/DTD/svg11.dtd">
<svg xmlns:xlink="http://www.w3.org/1999/xlink" width="576pt" height="720pt" viewBox="0 0 576 720" xmlns="http://www.w3.org/2000/svg" version="1.1">
 <metadata>
  <rdf:RDF xmlns:dc="http://purl.org/dc/elements/1.1/" xmlns:cc="http://creativecommons.org/ns#" xmlns:rdf="http://www.w3.org/1999/02/22-rdf-syntax-ns#">
   <cc:Work>
    <dc:type rdf:resource="http://purl.org/dc/dcmitype/StillImage"/>
    <dc:date>2025-02-25T11:14:56.674476</dc:date>
    <dc:format>image/svg+xml</dc:format>
    <dc:creator>
     <cc:Agent>
      <dc:title>Matplotlib v3.8.3, https://matplotlib.org/</dc:title>
     </cc:Agent>
    </dc:creator>
   </cc:Work>
  </rdf:RDF>
 </metadata>
 <defs>
  <style type="text/css">*{stroke-linejoin: round; stroke-linecap: butt}</style>
 </defs>
 <g id="figure_1">
  <g id="patch_1">
   <path d="M 0 720 
L 576 720 
L 576 0 
L 0 0 
z
" style="fill: #ffffff"/>
  </g>
  <g id="axes_1">
   <g id="patch_2">
    <path d="M 39.94 124.76 
L 557.28 124.76 
L 557.28 14.76 
L 39.94 14.76 
z
" style="fill: #ffffff"/>
   </g>
   <g id="matplotlib.axis_1">
    <g id="xtick_1">
     <g id="line2d_1">
      <defs>
       <path id="m6a646433c3" d="M 0 0 
L 0 3.5 
" style="stroke: #000000; stroke-width: 0.8"/>
      </defs>
      <g>
       <use xlink:href="#m6a646433c3" x="63.455455" y="124.76" style="stroke: #000000; stroke-width: 0.8"/>
      </g>
     </g>
     <g id="text_1">
      <!-- 0 -->
      <g transform="translate(60.274205 139.358438) scale(0.1 -0.1)">
       <defs>
        <path id="DejaVuSans-30" d="M 2034 4250 
Q 1547 4250 1301 3770 
Q 1056 3291 1056 2328 
Q 1056 1369 1301 889 
Q 1547 409 2034 409 
Q 2525 409 2770 889 
Q 3016 1369 3016 2328 
Q 3016 3291 2770 3770 
Q 2525 4250 2034 4250 
z
M 2034 4750 
Q 2819 4750 3233 4129 
Q 3647 3509 3647 2328 
Q 3647 1150 3233 529 
Q 2819 -91 2034 -91 
Q 1250 -91 836 529 
Q 422 1150 422 2328 
Q 422 3509 836 4129 
Q 1250 4750 2034 4750 
z
" transform="scale(0.015625)"/>
       </defs>
       <use xlink:href="#DejaVuSans-30"/>
      </g>
     </g>
    </g>
    <g id="xtick_2">
     <g id="line2d_2">
      <g>
       <use xlink:href="#m6a646433c3" x="163.521219" y="124.76" style="stroke: #000000; stroke-width: 0.8"/>
      </g>
     </g>
     <g id="text_2">
      <!-- 20 -->
      <g transform="translate(157.158719 139.358438) scale(0.1 -0.1)">
       <defs>
        <path id="DejaVuSans-32" d="M 1228 531 
L 3431 531 
L 3431 0 
L 469 0 
L 469 531 
Q 828 903 1448 1529 
Q 2069 2156 2228 2338 
Q 2531 2678 2651 2914 
Q 2772 3150 2772 3378 
Q 2772 3750 2511 3984 
Q 2250 4219 1831 4219 
Q 1534 4219 1204 4116 
Q 875 4013 500 3803 
L 500 4441 
Q 881 4594 1212 4672 
Q 1544 4750 1819 4750 
Q 2544 4750 2975 4387 
Q 3406 4025 3406 3419 
Q 3406 3131 3298 2873 
Q 3191 2616 2906 2266 
Q 2828 2175 2409 1742 
Q 1991 1309 1228 531 
z
" transform="scale(0.015625)"/>
       </defs>
       <use xlink:href="#DejaVuSans-32"/>
       <use xlink:href="#DejaVuSans-30" x="63.623047"/>
      </g>
     </g>
    </g>
    <g id="xtick_3">
     <g id="line2d_3">
      <g>
       <use xlink:href="#m6a646433c3" x="263.586983" y="124.76" style="stroke: #000000; stroke-width: 0.8"/>
      </g>
     </g>
     <g id="text_3">
      <!-- 40 -->
      <g transform="translate(257.224483 139.358438) scale(0.1 -0.1)">
       <defs>
        <path id="DejaVuSans-34" d="M 2419 4116 
L 825 1625 
L 2419 1625 
L 2419 4116 
z
M 2253 4666 
L 3047 4666 
L 3047 1625 
L 3713 1625 
L 3713 1100 
L 3047 1100 
L 3047 0 
L 2419 0 
L 2419 1100 
L 313 1100 
L 313 1709 
L 2253 4666 
z
" transform="scale(0.015625)"/>
       </defs>
       <use xlink:href="#DejaVuSans-34"/>
       <use xlink:href="#DejaVuSans-30" x="63.623047"/>
      </g>
     </g>
    </g>
    <g id="xtick_4">
     <g id="line2d_4">
      <g>
       <use xlink:href="#m6a646433c3" x="363.652747" y="124.76" style="stroke: #000000; stroke-width: 0.8"/>
      </g>
     </g>
     <g id="text_4">
      <!-- 60 -->
      <g transform="translate(357.290247 139.358438) scale(0.1 -0.1)">
       <defs>
        <path id="DejaVuSans-36" d="M 2113 2584 
Q 1688 2584 1439 2293 
Q 1191 2003 1191 1497 
Q 1191 994 1439 701 
Q 1688 409 2113 409 
Q 2538 409 2786 701 
Q 3034 994 3034 1497 
Q 3034 2003 2786 2293 
Q 2538 2584 2113 2584 
z
M 3366 4563 
L 3366 3988 
Q 3128 4100 2886 4159 
Q 2644 4219 2406 4219 
Q 1781 4219 1451 3797 
Q 1122 3375 1075 2522 
Q 1259 2794 1537 2939 
Q 1816 3084 2150 3084 
Q 2853 3084 3261 2657 
Q 3669 2231 3669 1497 
Q 3669 778 3244 343 
Q 2819 -91 2113 -91 
Q 1303 -91 875 529 
Q 447 1150 447 2328 
Q 447 3434 972 4092 
Q 1497 4750 2381 4750 
Q 2619 4750 2861 4703 
Q 3103 4656 3366 4563 
z
" transform="scale(0.015625)"/>
       </defs>
       <use xlink:href="#DejaVuSans-36"/>
       <use xlink:href="#DejaVuSans-30" x="63.623047"/>
      </g>
     </g>
    </g>
    <g id="xtick_5">
     <g id="line2d_5">
      <g>
       <use xlink:href="#m6a646433c3" x="463.718511" y="124.76" style="stroke: #000000; stroke-width: 0.8"/>
      </g>
     </g>
     <g id="text_5">
      <!-- 80 -->
      <g transform="translate(457.356011 139.358438) scale(0.1 -0.1)">
       <defs>
        <path id="DejaVuSans-38" d="M 2034 2216 
Q 1584 2216 1326 1975 
Q 1069 1734 1069 1313 
Q 1069 891 1326 650 
Q 1584 409 2034 409 
Q 2484 409 2743 651 
Q 3003 894 3003 1313 
Q 3003 1734 2745 1975 
Q 2488 2216 2034 2216 
z
M 1403 2484 
Q 997 2584 770 2862 
Q 544 3141 544 3541 
Q 544 4100 942 4425 
Q 1341 4750 2034 4750 
Q 2731 4750 3128 4425 
Q 3525 4100 3525 3541 
Q 3525 3141 3298 2862 
Q 3072 2584 2669 2484 
Q 3125 2378 3379 2068 
Q 3634 1759 3634 1313 
Q 3634 634 3220 271 
Q 2806 -91 2034 -91 
Q 1263 -91 848 271 
Q 434 634 434 1313 
Q 434 1759 690 2068 
Q 947 2378 1403 2484 
z
M 1172 3481 
Q 1172 3119 1398 2916 
Q 1625 2713 2034 2713 
Q 2441 2713 2670 2916 
Q 2900 3119 2900 3481 
Q 2900 3844 2670 4047 
Q 2441 4250 2034 4250 
Q 1625 4250 1398 4047 
Q 1172 3844 1172 3481 
z
" transform="scale(0.015625)"/>
       </defs>
       <use xlink:href="#DejaVuSans-38"/>
       <use xlink:href="#DejaVuSans-30" x="63.623047"/>
      </g>
     </g>
    </g>
   </g>
   <g id="matplotlib.axis_2">
    <g id="ytick_1">
     <g id="line2d_6">
      <defs>
       <path id="mdc2c1da3b6" d="M 0 0 
L -3.5 0 
" style="stroke: #000000; stroke-width: 0.8"/>
      </defs>
      <g>
       <use xlink:href="#mdc2c1da3b6" x="39.94" y="119.76" style="stroke: #000000; stroke-width: 0.8"/>
      </g>
     </g>
     <g id="text_6">
      <!-- 0 -->
      <g transform="translate(26.5775 123.559219) scale(0.1 -0.1)">
       <use xlink:href="#DejaVuSans-30"/>
      </g>
     </g>
    </g>
    <g id="ytick_2">
     <g id="line2d_7">
      <g>
       <use xlink:href="#mdc2c1da3b6" x="39.94" y="93.164255" style="stroke: #000000; stroke-width: 0.8"/>
      </g>
     </g>
     <g id="text_7">
      <!-- 25 -->
      <g transform="translate(20.215 96.963474) scale(0.1 -0.1)">
       <defs>
        <path id="DejaVuSans-35" d="M 691 4666 
L 3169 4666 
L 3169 4134 
L 1269 4134 
L 1269 2991 
Q 1406 3038 1543 3061 
Q 1681 3084 1819 3084 
Q 2600 3084 3056 2656 
Q 3513 2228 3513 1497 
Q 3513 744 3044 326 
Q 2575 -91 1722 -91 
Q 1428 -91 1123 -41 
Q 819 9 494 109 
L 494 744 
Q 775 591 1075 516 
Q 1375 441 1709 441 
Q 2250 441 2565 725 
Q 2881 1009 2881 1497 
Q 2881 1984 2565 2268 
Q 2250 2553 1709 2553 
Q 1456 2553 1204 2497 
Q 953 2441 691 2322 
L 691 4666 
z
" transform="scale(0.015625)"/>
       </defs>
       <use xlink:href="#DejaVuSans-32"/>
       <use xlink:href="#DejaVuSans-35" x="63.623047"/>
      </g>
     </g>
    </g>
    <g id="ytick_3">
     <g id="line2d_8">
      <g>
       <use xlink:href="#mdc2c1da3b6" x="39.94" y="66.568511" style="stroke: #000000; stroke-width: 0.8"/>
      </g>
     </g>
     <g id="text_8">
      <!-- 50 -->
      <g transform="translate(20.215 70.367729) scale(0.1 -0.1)">
       <use xlink:href="#DejaVuSans-35"/>
       <use xlink:href="#DejaVuSans-30" x="63.623047"/>
      </g>
     </g>
    </g>
    <g id="ytick_4">
     <g id="line2d_9">
      <g>
       <use xlink:href="#mdc2c1da3b6" x="39.94" y="39.972766" style="stroke: #000000; stroke-width: 0.8"/>
      </g>
     </g>
     <g id="text_9">
      <!-- 75 -->
      <g transform="translate(20.215 43.771985) scale(0.1 -0.1)">
       <defs>
        <path id="DejaVuSans-37" d="M 525 4666 
L 3525 4666 
L 3525 4397 
L 1831 0 
L 1172 0 
L 2766 4134 
L 525 4134 
L 525 4666 
z
" transform="scale(0.015625)"/>
       </defs>
       <use xlink:href="#DejaVuSans-37"/>
       <use xlink:href="#DejaVuSans-35" x="63.623047"/>
      </g>
     </g>
    </g>
   </g>
   <g id="line2d_10">
    <path d="M 63.455455 119.76 
L 68.458743 118.69617 
L 73.462031 117.63234 
L 78.465319 116.568511 
L 83.468607 115.504681 
L 88.471896 114.440851 
L 93.475184 113.377021 
L 98.478472 112.313191 
L 103.48176 111.249362 
L 108.485048 110.185532 
L 113.488337 109.121702 
L 118.491625 108.057872 
L 123.494913 106.994043 
L 128.498201 105.930213 
L 133.501489 104.866383 
L 138.504778 103.802553 
L 143.508066 102.738723 
L 148.511354 101.674894 
L 153.514642 100.611064 
L 158.51793 99.547234 
L 163.521219 98.483404 
L 168.524507 97.419574 
L 173.527795 96.355745 
L 178.531083 95.291915 
L 183.534371 94.228085 
L 188.53766 93.164255 
L 193.540948 92.100426 
L 198.544236 91.036596 
L 203.547524 89.972766 
L 208.550812 88.908936 
L 213.554101 87.845106 
L 218.557389 86.781277 
L 223.560677 85.717447 
L 228.563965 84.653617 
L 233.567253 83.589787 
L 238.570542 82.525957 
L 243.57383 81.462128 
L 248.577118 80.398298 
L 253.580406 79.334468 
L 258.583694 78.270638 
L 263.586983 77.206809 
L 268.590271 76.142979 
L 273.593559 75.079149 
L 278.596847 74.015319 
L 283.600135 72.951489 
L 288.603424 71.88766 
L 293.606712 70.82383 
L 298.61 69.76 
L 303.613288 68.69617 
L 308.616576 67.63234 
L 313.619865 66.568511 
L 318.623153 65.504681 
L 323.626441 64.440851 
L 328.629729 63.377021 
L 333.633017 62.313191 
L 338.636306 61.249362 
L 343.639594 60.185532 
L 348.642882 59.121702 
L 353.64617 58.057872 
L 358.649458 56.994043 
L 363.652747 55.930213 
L 368.656035 54.866383 
L 373.659323 53.802553 
L 378.662611 52.738723 
L 383.665899 51.674894 
L 388.669188 50.611064 
L 393.672476 49.547234 
L 398.675764 48.483404 
L 403.679052 47.419574 
L 408.68234 46.355745 
L 413.685629 45.291915 
L 418.688917 44.228085 
L 423.692205 43.164255 
L 428.695493 42.100426 
L 433.698781 41.036596 
L 438.70207 39.972766 
L 443.705358 38.908936 
L 448.708646 37.845106 
L 453.711934 36.781277 
L 458.715222 35.717447 
L 463.718511 34.653617 
L 468.721799 33.589787 
L 473.725087 32.525957 
L 478.728375 31.462128 
L 483.731663 30.398298 
L 488.734952 29.334468 
L 493.73824 28.270638 
L 498.741528 27.206809 
L 503.744816 26.142979 
L 508.748104 25.079149 
L 513.751393 24.015319 
L 518.754681 22.951489 
L 523.757969 21.88766 
L 528.761257 20.82383 
L 533.764545 19.76 
" clip-path="url(#p3c6f75d1be)" style="fill: none; stroke: #1f77b4; stroke-width: 1.5; stroke-linecap: square"/>
   </g>
   <g id="patch_3">
    <path d="M 39.94 124.76 
L 39.94 14.76 
" style="fill: none; stroke: #000000; stroke-width: 0.8; stroke-linejoin: miter; stroke-linecap: square"/>
   </g>
   <g id="patch_4">
    <path d="M 557.28 124.76 
L 557.28 14.76 
" style="fill: none; stroke: #000000; stroke-width: 0.8; stroke-linejoin: miter; stroke-linecap: square"/>
   </g>
   <g id="patch_5">
    <path d="M 39.94 124.76 
L 557.28 124.76 
" style="fill: none; stroke: #000000; stroke-width: 0.8; stroke-linejoin: miter; stroke-linecap: square"/>
   </g>
   <g id="patch_6">
    <path d="M 39.94 14.76 
L 557.28 14.76 
" style="fill: none; stroke: #000000; stroke-width: 0.8; stroke-linejoin: miter; stroke-linecap: square"/>
   </g>
   <g id="text_10">
    <!-- epoch -->
    <g transform="translate(280.33625 8.76) scale(0.12 -0.12)">
     <defs>
      <path id="DejaVuSans-65" d="M 3597 1894 
L 3597 1613 
L 953 1613 
Q 991 1019 1311 708 
Q 1631 397 2203 397 
Q 2534 397 2845 478 
Q 3156 559 3463 722 
L 3463 178 
Q 3153 47 2828 -22 
Q 2503 -91 2169 -91 
Q 1331 -91 842 396 
Q 353 884 353 1716 
Q 353 2575 817 3079 
Q 1281 3584 2069 3584 
Q 2775 3584 3186 3129 
Q 3597 2675 3597 1894 
z
M 3022 2063 
Q 3016 2534 2758 2815 
Q 2500 3097 2075 3097 
Q 1594 3097 1305 2825 
Q 1016 2553 972 2059 
L 3022 2063 
z
" transform="scale(0.015625)"/>
      <path id="DejaVuSans-70" d="M 1159 525 
L 1159 -1331 
L 581 -1331 
L 581 3500 
L 1159 3500 
L 1159 2969 
Q 1341 3281 1617 3432 
Q 1894 3584 2278 3584 
Q 2916 3584 3314 3078 
Q 3713 2572 3713 1747 
Q 3713 922 3314 415 
Q 2916 -91 2278 -91 
Q 1894 -91 1617 61 
Q 1341 213 1159 525 
z
M 3116 1747 
Q 3116 2381 2855 2742 
Q 2594 3103 2138 3103 
Q 1681 3103 1420 2742 
Q 1159 2381 1159 1747 
Q 1159 1113 1420 752 
Q 1681 391 2138 391 
Q 2594 391 2855 752 
Q 3116 1113 3116 1747 
z
" transform="scale(0.015625)"/>
      <path id="DejaVuSans-6f" d="M 1959 3097 
Q 1497 3097 1228 2736 
Q 959 2375 959 1747 
Q 959 1119 1226 758 
Q 1494 397 1959 397 
Q 2419 397 2687 759 
Q 2956 1122 2956 1747 
Q 2956 2369 2687 2733 
Q 2419 3097 1959 3097 
z
M 1959 3584 
Q 2709 3584 3137 3096 
Q 3566 2609 3566 1747 
Q 3566 888 3137 398 
Q 2709 -91 1959 -91 
Q 1206 -91 779 398 
Q 353 888 353 1747 
Q 353 2609 779 3096 
Q 1206 3584 1959 3584 
z
" transform="scale(0.015625)"/>
      <path id="DejaVuSans-63" d="M 3122 3366 
L 3122 2828 
Q 2878 2963 2633 3030 
Q 2388 3097 2138 3097 
Q 1578 3097 1268 2742 
Q 959 2388 959 1747 
Q 959 1106 1268 751 
Q 1578 397 2138 397 
Q 2388 397 2633 464 
Q 2878 531 3122 666 
L 3122 134 
Q 2881 22 2623 -34 
Q 2366 -91 2075 -91 
Q 1284 -91 818 406 
Q 353 903 353 1747 
Q 353 2603 823 3093 
Q 1294 3584 2113 3584 
Q 2378 3584 2631 3529 
Q 2884 3475 3122 3366 
z
" transform="scale(0.015625)"/>
      <path id="DejaVuSans-68" d="M 3513 2113 
L 3513 0 
L 2938 0 
L 2938 2094 
Q 2938 2591 2744 2837 
Q 2550 3084 2163 3084 
Q 1697 3084 1428 2787 
Q 1159 2491 1159 1978 
L 1159 0 
L 581 0 
L 581 4863 
L 1159 4863 
L 1159 2956 
Q 1366 3272 1645 3428 
Q 1925 3584 2291 3584 
Q 2894 3584 3203 3211 
Q 3513 2838 3513 2113 
z
" transform="scale(0.015625)"/>
     </defs>
     <use xlink:href="#DejaVuSans-65"/>
     <use xlink:href="#DejaVuSans-70" x="61.523438"/>
     <use xlink:href="#DejaVuSans-6f" x="125"/>
     <use xlink:href="#DejaVuSans-63" x="186.181641"/>
     <use xlink:href="#DejaVuSans-68" x="241.162109"/>
    </g>
   </g>
  </g>
  <g id="axes_2">
   <g id="patch_7">
    <path d="M 39.94 266.6 
L 557.28 266.6 
L 557.28 156.6 
L 39.94 156.6 
z
" style="fill: #ffffff"/>
   </g>
   <g id="matplotlib.axis_3">
    <g id="xtick_6">
     <g id="line2d_11">
      <g>
       <use xlink:href="#m6a646433c3" x="63.455455" y="266.6" style="stroke: #000000; stroke-width: 0.8"/>
      </g>
     </g>
     <g id="text_11">
      <!-- 0 -->
      <g transform="translate(60.274205 281.198438) scale(0.1 -0.1)">
       <use xlink:href="#DejaVuSans-30"/>
      </g>
     </g>
    </g>
    <g id="xtick_7">
     <g id="line2d_12">
      <g>
       <use xlink:href="#m6a646433c3" x="163.521219" y="266.6" style="stroke: #000000; stroke-width: 0.8"/>
      </g>
     </g>
     <g id="text_12">
      <!-- 20 -->
      <g transform="translate(157.158719 281.198438) scale(0.1 -0.1)">
       <use xlink:href="#DejaVuSans-32"/>
       <use xlink:href="#DejaVuSans-30" x="63.623047"/>
      </g>
     </g>
    </g>
    <g id="xtick_8">
     <g id="line2d_13">
      <g>
       <use xlink:href="#m6a646433c3" x="263.586983" y="266.6" style="stroke: #000000; stroke-width: 0.8"/>
      </g>
     </g>
     <g id="text_13">
      <!-- 40 -->
      <g transform="translate(257.224483 281.198438) scale(0.1 -0.1)">
       <use xlink:href="#DejaVuSans-34"/>
       <use xlink:href="#DejaVuSans-30" x="63.623047"/>
      </g>
     </g>
    </g>
    <g id="xtick_9">
     <g id="line2d_14">
      <g>
       <use xlink:href="#m6a646433c3" x="363.652747" y="266.6" style="stroke: #000000; stroke-width: 0.8"/>
      </g>
     </g>
     <g id="text_14">
      <!-- 60 -->
      <g transform="translate(357.290247 281.198438) scale(0.1 -0.1)">
       <use xlink:href="#DejaVuSans-36"/>
       <use xlink:href="#DejaVuSans-30" x="63.623047"/>
      </g>
     </g>
    </g>
    <g id="xtick_10">
     <g id="line2d_15">
      <g>
       <use xlink:href="#m6a646433c3" x="463.718511" y="266.6" style="stroke: #000000; stroke-width: 0.8"/>
      </g>
     </g>
     <g id="text_15">
      <!-- 80 -->
      <g transform="translate(457.356011 281.198438) scale(0.1 -0.1)">
       <use xlink:href="#DejaVuSans-38"/>
       <use xlink:href="#DejaVuSans-30" x="63.623047"/>
      </g>
     </g>
    </g>
   </g>
   <g id="matplotlib.axis_4">
    <g id="ytick_5">
     <g id="line2d_16">
      <g>
       <use xlink:href="#mdc2c1da3b6" x="39.94" y="262.202183" style="stroke: #000000; stroke-width: 0.8"/>
      </g>
     </g>
     <g id="text_16">
      <!-- 0.0 -->
      <g transform="translate(17.036875 266.001402) scale(0.1 -0.1)">
       <defs>
        <path id="DejaVuSans-2e" d="M 684 794 
L 1344 794 
L 1344 0 
L 684 0 
L 684 794 
z
" transform="scale(0.015625)"/>
       </defs>
       <use xlink:href="#DejaVuSans-30"/>
       <use xlink:href="#DejaVuSans-2e" x="63.623047"/>
       <use xlink:href="#DejaVuSans-30" x="95.410156"/>
      </g>
     </g>
    </g>
    <g id="ytick_6">
     <g id="line2d_17">
      <g>
       <use xlink:href="#mdc2c1da3b6" x="39.94" y="232.487156" style="stroke: #000000; stroke-width: 0.8"/>
      </g>
     </g>
     <g id="text_17">
      <!-- 0.5 -->
      <g transform="translate(17.036875 236.286375) scale(0.1 -0.1)">
       <use xlink:href="#DejaVuSans-30"/>
       <use xlink:href="#DejaVuSans-2e" x="63.623047"/>
       <use xlink:href="#DejaVuSans-35" x="95.410156"/>
      </g>
     </g>
    </g>
    <g id="ytick_7">
     <g id="line2d_18">
      <g>
       <use xlink:href="#mdc2c1da3b6" x="39.94" y="202.77213" style="stroke: #000000; stroke-width: 0.8"/>
      </g>
     </g>
     <g id="text_18">
      <!-- 1.0 -->
      <g transform="translate(17.036875 206.571349) scale(0.1 -0.1)">
       <defs>
        <path id="DejaVuSans-31" d="M 794 531 
L 1825 531 
L 1825 4091 
L 703 3866 
L 703 4441 
L 1819 4666 
L 2450 4666 
L 2450 531 
L 3481 531 
L 3481 0 
L 794 0 
L 794 531 
z
" transform="scale(0.015625)"/>
       </defs>
       <use xlink:href="#DejaVuSans-31"/>
       <use xlink:href="#DejaVuSans-2e" x="63.623047"/>
       <use xlink:href="#DejaVuSans-30" x="95.410156"/>
      </g>
     </g>
    </g>
    <g id="ytick_8">
     <g id="line2d_19">
      <g>
       <use xlink:href="#mdc2c1da3b6" x="39.94" y="173.057104" style="stroke: #000000; stroke-width: 0.8"/>
      </g>
     </g>
     <g id="text_19">
      <!-- 1.5 -->
      <g transform="translate(17.036875 176.856322) scale(0.1 -0.1)">
       <use xlink:href="#DejaVuSans-31"/>
       <use xlink:href="#DejaVuSans-2e" x="63.623047"/>
       <use xlink:href="#DejaVuSans-35" x="95.410156"/>
      </g>
     </g>
    </g>
   </g>
   <g id="line2d_20">
    <path d="M 63.455455 163.292925 
L 68.458743 173.532163 
L 73.462031 209.199916 
L 78.465319 208.918093 
L 83.468607 210.071355 
L 88.471896 211.00475 
L 93.475184 211.232665 
L 98.478472 210.865402 
L 103.48176 211.227543 
L 108.485048 211.470078 
L 113.488337 211.891169 
L 118.491625 211.619871 
L 123.494913 211.717752 
L 128.498201 218.678669 
L 133.501489 237.331166 
L 138.504778 243.119638 
L 143.508066 242.122135 
L 148.511354 240.74829 
L 153.514642 216.752214 
L 158.51793 244.811897 
L 163.521219 247.751074 
L 168.524507 248.36701 
L 173.527795 213.835269 
L 178.531083 239.44911 
L 183.534371 254.904447 
L 188.53766 216.172398 
L 193.540948 236.493485 
L 198.544236 255.899434 
L 203.547524 237.486957 
L 208.550812 259.186873 
L 213.554101 259.420403 
L 218.557389 257.475365 
L 223.560677 260.467187 
L 228.563965 253.691879 
L 233.567253 257.87928 
L 238.570542 248.831233 
L 243.57383 260.162153 
L 248.577118 260.67445 
L 253.580406 260.408435 
L 258.583694 260.672225 
L 263.586983 231.971064 
L 268.590271 260.960823 
L 273.593559 260.980667 
L 278.596847 260.996653 
L 283.600135 260.815334 
L 288.603424 260.207938 
L 293.606712 261.056998 
L 298.61 191.22372 
L 303.613288 261.115398 
L 308.616576 261.128378 
L 313.619865 261.150044 
L 318.623153 221.708805 
L 323.626441 257.618312 
L 328.629729 250.152176 
L 333.633017 230.228454 
L 338.636306 261.20584 
L 343.639594 261.220975 
L 348.642882 261.215489 
L 353.64617 261.242429 
L 358.649458 261.266683 
L 363.652747 248.084554 
L 368.656035 261.271677 
L 373.659323 259.478581 
L 378.662611 243.947158 
L 383.665899 261.323132 
L 388.669188 260.905915 
L 393.672476 161.6 
L 398.675764 261.091864 
L 403.679052 261.366754 
L 408.68234 259.569519 
L 413.685629 260.744658 
L 418.688917 261.204793 
L 423.692205 250.766351 
L 428.695493 261.090072 
L 433.698781 261.437027 
L 438.70207 261.452088 
L 443.705358 261.460364 
L 448.708646 261.465344 
L 453.711934 261.410849 
L 458.715222 261.481959 
L 463.718511 261.474532 
L 468.721799 248.942763 
L 473.725087 261.507822 
L 478.728375 261.521342 
L 483.731663 261.533459 
L 488.734952 261.528061 
L 493.73824 259.9669 
L 498.741528 260.03911 
L 503.744816 261.545154 
L 508.748104 261.562649 
L 513.751393 261.574395 
L 518.754681 261.55338 
L 523.757969 261.566816 
L 528.761257 261.59693 
L 533.764545 261.6 
" clip-path="url(#pd4cb889e7f)" style="fill: none; stroke: #1f77b4; stroke-width: 1.5; stroke-linecap: square"/>
   </g>
   <g id="patch_8">
    <path d="M 39.94 266.6 
L 39.94 156.6 
" style="fill: none; stroke: #000000; stroke-width: 0.8; stroke-linejoin: miter; stroke-linecap: square"/>
   </g>
   <g id="patch_9">
    <path d="M 557.28 266.6 
L 557.28 156.6 
" style="fill: none; stroke: #000000; stroke-width: 0.8; stroke-linejoin: miter; stroke-linecap: square"/>
   </g>
   <g id="patch_10">
    <path d="M 39.94 266.6 
L 557.28 266.6 
" style="fill: none; stroke: #000000; stroke-width: 0.8; stroke-linejoin: miter; stroke-linecap: square"/>
   </g>
   <g id="patch_11">
    <path d="M 39.94 156.6 
L 557.28 156.6 
" style="fill: none; stroke: #000000; stroke-width: 0.8; stroke-linejoin: miter; stroke-linecap: square"/>
   </g>
   <g id="text_20">
    <!-- loss -->
    <g transform="translate(287.020625 150.6) scale(0.12 -0.12)">
     <defs>
      <path id="DejaVuSans-6c" d="M 603 4863 
L 1178 4863 
L 1178 0 
L 603 0 
L 603 4863 
z
" transform="scale(0.015625)"/>
      <path id="DejaVuSans-73" d="M 2834 3397 
L 2834 2853 
Q 2591 2978 2328 3040 
Q 2066 3103 1784 3103 
Q 1356 3103 1142 2972 
Q 928 2841 928 2578 
Q 928 2378 1081 2264 
Q 1234 2150 1697 2047 
L 1894 2003 
Q 2506 1872 2764 1633 
Q 3022 1394 3022 966 
Q 3022 478 2636 193 
Q 2250 -91 1575 -91 
Q 1294 -91 989 -36 
Q 684 19 347 128 
L 347 722 
Q 666 556 975 473 
Q 1284 391 1588 391 
Q 1994 391 2212 530 
Q 2431 669 2431 922 
Q 2431 1156 2273 1281 
Q 2116 1406 1581 1522 
L 1381 1569 
Q 847 1681 609 1914 
Q 372 2147 372 2553 
Q 372 3047 722 3315 
Q 1072 3584 1716 3584 
Q 2034 3584 2315 3537 
Q 2597 3491 2834 3397 
z
" transform="scale(0.015625)"/>
     </defs>
     <use xlink:href="#DejaVuSans-6c"/>
     <use xlink:href="#DejaVuSans-6f" x="27.783203"/>
     <use xlink:href="#DejaVuSans-73" x="88.964844"/>
     <use xlink:href="#DejaVuSans-73" x="141.064453"/>
    </g>
   </g>
  </g>
  <g id="axes_3">
   <g id="patch_12">
    <path d="M 39.94 408.44 
L 557.28 408.44 
L 557.28 298.44 
L 39.94 298.44 
z
" style="fill: #ffffff"/>
   </g>
   <g id="matplotlib.axis_5">
    <g id="xtick_11">
     <g id="line2d_21">
      <g>
       <use xlink:href="#m6a646433c3" x="63.455455" y="408.44" style="stroke: #000000; stroke-width: 0.8"/>
      </g>
     </g>
     <g id="text_21">
      <!-- 0 -->
      <g transform="translate(60.274205 423.038437) scale(0.1 -0.1)">
       <use xlink:href="#DejaVuSans-30"/>
      </g>
     </g>
    </g>
    <g id="xtick_12">
     <g id="line2d_22">
      <g>
       <use xlink:href="#m6a646433c3" x="163.521219" y="408.44" style="stroke: #000000; stroke-width: 0.8"/>
      </g>
     </g>
     <g id="text_22">
      <!-- 20 -->
      <g transform="translate(157.158719 423.038437) scale(0.1 -0.1)">
       <use xlink:href="#DejaVuSans-32"/>
       <use xlink:href="#DejaVuSans-30" x="63.623047"/>
      </g>
     </g>
    </g>
    <g id="xtick_13">
     <g id="line2d_23">
      <g>
       <use xlink:href="#m6a646433c3" x="263.586983" y="408.44" style="stroke: #000000; stroke-width: 0.8"/>
      </g>
     </g>
     <g id="text_23">
      <!-- 40 -->
      <g transform="translate(257.224483 423.038437) scale(0.1 -0.1)">
       <use xlink:href="#DejaVuSans-34"/>
       <use xlink:href="#DejaVuSans-30" x="63.623047"/>
      </g>
     </g>
    </g>
    <g id="xtick_14">
     <g id="line2d_24">
      <g>
       <use xlink:href="#m6a646433c3" x="363.652747" y="408.44" style="stroke: #000000; stroke-width: 0.8"/>
      </g>
     </g>
     <g id="text_24">
      <!-- 60 -->
      <g transform="translate(357.290247 423.038437) scale(0.1 -0.1)">
       <use xlink:href="#DejaVuSans-36"/>
       <use xlink:href="#DejaVuSans-30" x="63.623047"/>
      </g>
     </g>
    </g>
    <g id="xtick_15">
     <g id="line2d_25">
      <g>
       <use xlink:href="#m6a646433c3" x="463.718511" y="408.44" style="stroke: #000000; stroke-width: 0.8"/>
      </g>
     </g>
     <g id="text_25">
      <!-- 80 -->
      <g transform="translate(457.356011 423.038437) scale(0.1 -0.1)">
       <use xlink:href="#DejaVuSans-38"/>
       <use xlink:href="#DejaVuSans-30" x="63.623047"/>
      </g>
     </g>
    </g>
   </g>
   <g id="matplotlib.axis_6">
    <g id="ytick_9">
     <g id="line2d_26">
      <g>
       <use xlink:href="#mdc2c1da3b6" x="39.94" y="403.440211" style="stroke: #000000; stroke-width: 0.8"/>
      </g>
     </g>
     <g id="text_26">
      <!-- 0.0 -->
      <g transform="translate(17.036875 407.23943) scale(0.1 -0.1)">
       <use xlink:href="#DejaVuSans-30"/>
       <use xlink:href="#DejaVuSans-2e" x="63.623047"/>
       <use xlink:href="#DejaVuSans-30" x="95.410156"/>
      </g>
     </g>
    </g>
    <g id="ytick_10">
     <g id="line2d_27">
      <g>
       <use xlink:href="#mdc2c1da3b6" x="39.94" y="373.378124" style="stroke: #000000; stroke-width: 0.8"/>
      </g>
     </g>
     <g id="text_27">
      <!-- 0.5 -->
      <g transform="translate(17.036875 377.177343) scale(0.1 -0.1)">
       <use xlink:href="#DejaVuSans-30"/>
       <use xlink:href="#DejaVuSans-2e" x="63.623047"/>
       <use xlink:href="#DejaVuSans-35" x="95.410156"/>
      </g>
     </g>
    </g>
    <g id="ytick_11">
     <g id="line2d_28">
      <g>
       <use xlink:href="#mdc2c1da3b6" x="39.94" y="343.316038" style="stroke: #000000; stroke-width: 0.8"/>
      </g>
     </g>
     <g id="text_28">
      <!-- 1.0 -->
      <g transform="translate(17.036875 347.115256) scale(0.1 -0.1)">
       <use xlink:href="#DejaVuSans-31"/>
       <use xlink:href="#DejaVuSans-2e" x="63.623047"/>
       <use xlink:href="#DejaVuSans-30" x="95.410156"/>
      </g>
     </g>
    </g>
    <g id="ytick_12">
     <g id="line2d_29">
      <g>
       <use xlink:href="#mdc2c1da3b6" x="39.94" y="313.253951" style="stroke: #000000; stroke-width: 0.8"/>
      </g>
     </g>
     <g id="text_29">
      <!-- 1.5 -->
      <g transform="translate(17.036875 317.053169) scale(0.1 -0.1)">
       <use xlink:href="#DejaVuSans-31"/>
       <use xlink:href="#DejaVuSans-2e" x="63.623047"/>
       <use xlink:href="#DejaVuSans-35" x="95.410156"/>
      </g>
     </g>
    </g>
   </g>
   <g id="line2d_30">
    <path d="M 63.455455 362.124796 
L 68.458743 360.679437 
L 73.462031 361.279531 
L 78.465319 359.513805 
L 83.468607 360.75387 
L 88.471896 361.686239 
L 93.475184 361.603754 
L 98.478472 361.289146 
L 103.48176 361.598715 
L 108.485048 361.797194 
L 113.488337 362.187166 
L 118.491625 361.904521 
L 123.494913 361.904077 
L 128.498201 368.50661 
L 133.501489 384.975506 
L 138.504778 389.153885 
L 143.508066 388.905024 
L 148.511354 387.312524 
L 153.514642 363.338646 
L 158.51793 390.215024 
L 163.521219 392.406157 
L 168.524507 392.777797 
L 173.527795 358.484461 
L 178.531083 385.377749 
L 183.534371 398.964806 
L 188.53766 361.003598 
L 193.540948 381.04258 
L 198.544236 399.601911 
L 203.547524 382.778716 
L 208.550812 402.534356 
L 213.554101 402.54781 
L 218.557389 400.370774 
L 223.560677 403.297617 
L 228.563965 396.779775 
L 233.567253 400.618341 
L 238.570542 391.586257 
L 243.57383 402.927698 
L 248.577118 403.383406 
L 253.580406 403.11281 
L 258.583694 403.420696 
L 263.586983 375.34648 
L 268.590271 403.43726 
L 273.593559 403.43808 
L 278.596847 403.424023 
L 283.600135 403.301041 
L 288.603424 402.932413 
L 293.606712 403.425564 
L 298.61 333.900341 
L 303.613288 403.439131 
L 308.616576 403.437763 
L 313.619865 403.438836 
L 318.623153 365.972414 
L 323.626441 400.395437 
L 328.629729 392.3426 
L 333.633017 373.097279 
L 338.636306 403.43956 
L 343.639594 403.437267 
L 348.642882 403.427043 
L 353.64617 403.438963 
L 358.649458 403.439718 
L 363.652747 391.081413 
L 368.656035 403.43848 
L 373.659323 401.822708 
L 378.662611 388.464707 
L 383.665899 403.439341 
L 388.669188 403.171158 
L 393.672476 303.44 
L 398.675764 403.305568 
L 403.679052 403.437775 
L 408.68234 401.936559 
L 413.685629 402.825208 
L 418.688917 403.318043 
L 423.692205 393.690927 
L 428.695493 403.166514 
L 433.698781 403.439879 
L 438.70207 403.44 
L 443.705358 403.439971 
L 448.708646 403.438316 
L 453.711934 403.406899 
L 458.715222 403.439856 
L 463.718511 403.432118 
L 468.721799 391.621074 
L 473.725087 403.439396 
L 478.728375 403.43992 
L 483.731663 403.439847 
L 488.734952 403.436909 
L 493.73824 402.009425 
L 498.741528 402.479858 
L 503.744816 403.437579 
L 508.748104 403.439837 
L 513.751393 403.439785 
L 518.754681 403.426389 
L 523.757969 403.429514 
L 528.761257 403.439899 
L 533.764545 403.438773 
" clip-path="url(#pb8cab747af)" style="fill: none; stroke: #1f77b4; stroke-width: 1.5; stroke-linecap: square"/>
   </g>
   <g id="patch_13">
    <path d="M 39.94 408.44 
L 39.94 298.44 
" style="fill: none; stroke: #000000; stroke-width: 0.8; stroke-linejoin: miter; stroke-linecap: square"/>
   </g>
   <g id="patch_14">
    <path d="M 557.28 408.44 
L 557.28 298.44 
" style="fill: none; stroke: #000000; stroke-width: 0.8; stroke-linejoin: miter; stroke-linecap: square"/>
   </g>
   <g id="patch_15">
    <path d="M 39.94 408.44 
L 557.28 408.44 
" style="fill: none; stroke: #000000; stroke-width: 0.8; stroke-linejoin: miter; stroke-linecap: square"/>
   </g>
   <g id="patch_16">
    <path d="M 39.94 298.44 
L 557.28 298.44 
" style="fill: none; stroke: #000000; stroke-width: 0.8; stroke-linejoin: miter; stroke-linecap: square"/>
   </g>
   <g id="text_30">
    <!-- L_cls -->
    <g transform="translate(284.175312 292.44) scale(0.12 -0.12)">
     <defs>
      <path id="DejaVuSans-4c" d="M 628 4666 
L 1259 4666 
L 1259 531 
L 3531 531 
L 3531 0 
L 628 0 
L 628 4666 
z
" transform="scale(0.015625)"/>
      <path id="DejaVuSans-5f" d="M 3263 -1063 
L 3263 -1509 
L -63 -1509 
L -63 -1063 
L 3263 -1063 
z
" transform="scale(0.015625)"/>
     </defs>
     <use xlink:href="#DejaVuSans-4c"/>
     <use xlink:href="#DejaVuSans-5f" x="55.712891"/>
     <use xlink:href="#DejaVuSans-63" x="105.712891"/>
     <use xlink:href="#DejaVuSans-6c" x="160.693359"/>
     <use xlink:href="#DejaVuSans-73" x="188.476562"/>
    </g>
   </g>
  </g>
  <g id="axes_4">
   <g id="patch_17">
    <path d="M 39.94 550.28 
L 557.28 550.28 
L 557.28 440.28 
L 39.94 440.28 
z
" style="fill: #ffffff"/>
   </g>
   <g id="matplotlib.axis_7">
    <g id="xtick_16">
     <g id="line2d_31">
      <g>
       <use xlink:href="#m6a646433c3" x="63.455455" y="550.28" style="stroke: #000000; stroke-width: 0.8"/>
      </g>
     </g>
     <g id="text_31">
      <!-- 0 -->
      <g transform="translate(60.274205 564.878438) scale(0.1 -0.1)">
       <use xlink:href="#DejaVuSans-30"/>
      </g>
     </g>
    </g>
    <g id="xtick_17">
     <g id="line2d_32">
      <g>
       <use xlink:href="#m6a646433c3" x="163.521219" y="550.28" style="stroke: #000000; stroke-width: 0.8"/>
      </g>
     </g>
     <g id="text_32">
      <!-- 20 -->
      <g transform="translate(157.158719 564.878438) scale(0.1 -0.1)">
       <use xlink:href="#DejaVuSans-32"/>
       <use xlink:href="#DejaVuSans-30" x="63.623047"/>
      </g>
     </g>
    </g>
    <g id="xtick_18">
     <g id="line2d_33">
      <g>
       <use xlink:href="#m6a646433c3" x="263.586983" y="550.28" style="stroke: #000000; stroke-width: 0.8"/>
      </g>
     </g>
     <g id="text_33">
      <!-- 40 -->
      <g transform="translate(257.224483 564.878438) scale(0.1 -0.1)">
       <use xlink:href="#DejaVuSans-34"/>
       <use xlink:href="#DejaVuSans-30" x="63.623047"/>
      </g>
     </g>
    </g>
    <g id="xtick_19">
     <g id="line2d_34">
      <g>
       <use xlink:href="#m6a646433c3" x="363.652747" y="550.28" style="stroke: #000000; stroke-width: 0.8"/>
      </g>
     </g>
     <g id="text_34">
      <!-- 60 -->
      <g transform="translate(357.290247 564.878438) scale(0.1 -0.1)">
       <use xlink:href="#DejaVuSans-36"/>
       <use xlink:href="#DejaVuSans-30" x="63.623047"/>
      </g>
     </g>
    </g>
    <g id="xtick_20">
     <g id="line2d_35">
      <g>
       <use xlink:href="#m6a646433c3" x="463.718511" y="550.28" style="stroke: #000000; stroke-width: 0.8"/>
      </g>
     </g>
     <g id="text_35">
      <!-- 80 -->
      <g transform="translate(457.356011 564.878438) scale(0.1 -0.1)">
       <use xlink:href="#DejaVuSans-38"/>
       <use xlink:href="#DejaVuSans-30" x="63.623047"/>
      </g>
     </g>
    </g>
   </g>
   <g id="matplotlib.axis_8">
    <g id="ytick_13">
     <g id="line2d_36">
      <g>
       <use xlink:href="#mdc2c1da3b6" x="39.94" y="545.282201" style="stroke: #000000; stroke-width: 0.8"/>
      </g>
     </g>
     <g id="text_36">
      <!-- 0 -->
      <g transform="translate(26.5775 549.08142) scale(0.1 -0.1)">
       <use xlink:href="#DejaVuSans-30"/>
      </g>
     </g>
    </g>
    <g id="ytick_14">
     <g id="line2d_37">
      <g>
       <use xlink:href="#mdc2c1da3b6" x="39.94" y="502.476604" style="stroke: #000000; stroke-width: 0.8"/>
      </g>
     </g>
     <g id="text_37">
      <!-- 2 -->
      <g transform="translate(26.5775 506.275823) scale(0.1 -0.1)">
       <use xlink:href="#DejaVuSans-32"/>
      </g>
     </g>
    </g>
    <g id="ytick_15">
     <g id="line2d_38">
      <g>
       <use xlink:href="#mdc2c1da3b6" x="39.94" y="459.671007" style="stroke: #000000; stroke-width: 0.8"/>
      </g>
     </g>
     <g id="text_38">
      <!-- 4 -->
      <g transform="translate(26.5775 463.470226) scale(0.1 -0.1)">
       <use xlink:href="#DejaVuSans-34"/>
      </g>
     </g>
    </g>
   </g>
   <g id="line2d_39">
    <path d="M 63.455455 445.28 
L 68.458743 465.690228 
L 73.462031 528.441592 
L 78.465319 530.678791 
L 83.468607 530.253768 
L 88.471896 530.136209 
L 93.475184 530.587288 
L 98.478472 530.394716 
L 103.48176 530.396678 
L 108.485048 530.400963 
L 113.488337 530.391189 
L 118.491625 530.338091 
L 123.494913 530.455041 
L 128.498201 531.286966 
L 133.501489 535.645251 
L 138.504778 538.665003 
L 143.508066 537.333474 
L 148.511354 537.709723 
L 153.514642 537.185704 
L 158.51793 539.88298 
L 163.521219 541.287743 
L 168.524507 541.752136 
L 173.527795 540.624171 
L 178.531083 538.884898 
L 183.534371 542.543961 
L 188.53766 540.375892 
L 193.540948 541.309269 
L 198.544236 543.226754 
L 203.547524 540.022404 
L 208.550812 543.935578 
L 213.554101 544.337496 
L 218.557389 544.722056 
L 223.560677 544.898311 
L 228.563965 544.310309 
L 233.567253 545.041726 
L 238.570542 544.767703 
L 243.57383 544.991236 
L 248.577118 545.13304 
L 253.580406 545.009622 
L 258.583694 544.925949 
L 263.586983 543.137485 
L 268.590271 545.268003 
L 273.593559 545.269968 
L 278.596847 545.238859 
L 283.600135 545.089311 
L 288.603424 544.631326 
L 293.606712 545.245745 
L 298.61 543.233599 
L 303.613288 545.27506 
L 308.616576 545.27156 
L 313.619865 545.275257 
L 318.623153 540.920039 
L 323.626441 544.310473 
L 328.629729 545.203778 
L 333.633017 543.544671 
L 338.636306 545.277218 
L 343.639594 545.26581 
L 348.642882 545.249002 
L 353.64617 545.273111 
L 358.649458 545.278664 
L 363.652747 543.518716 
L 368.656035 545.265748 
L 373.659323 544.87038 
L 378.662611 540.643376 
L 383.665899 545.25701 
L 388.669188 544.983755 
L 393.672476 543.66779 
L 398.675764 545.022563 
L 403.679052 545.267234 
L 408.68234 544.670325 
L 413.685629 545.175941 
L 418.688917 545.119351 
L 423.692205 543.453571 
L 428.695493 545.162394 
L 433.698781 545.279423 
L 438.70207 545.28 
L 443.705358 545.279876 
L 448.708646 545.275333 
L 453.711934 545.226913 
L 458.715222 545.279274 
L 463.718511 545.25247 
L 468.721799 543.69575 
L 473.725087 545.277114 
L 478.728375 545.279195 
L 483.731663 545.279274 
L 488.734952 545.263148 
L 493.73824 544.973439 
L 498.741528 544.255167 
L 503.744816 545.267121 
L 508.748104 545.278797 
L 513.751393 545.279145 
L 518.754681 545.253639 
L 523.757969 545.257805 
L 528.761257 545.278809 
L 533.764545 545.27627 
" clip-path="url(#pb433c89f69)" style="fill: none; stroke: #1f77b4; stroke-width: 1.5; stroke-linecap: square"/>
   </g>
   <g id="patch_18">
    <path d="M 39.94 550.28 
L 39.94 440.28 
" style="fill: none; stroke: #000000; stroke-width: 0.8; stroke-linejoin: miter; stroke-linecap: square"/>
   </g>
   <g id="patch_19">
    <path d="M 557.28 550.28 
L 557.28 440.28 
" style="fill: none; stroke: #000000; stroke-width: 0.8; stroke-linejoin: miter; stroke-linecap: square"/>
   </g>
   <g id="patch_20">
    <path d="M 39.94 550.28 
L 557.28 550.28 
" style="fill: none; stroke: #000000; stroke-width: 0.8; stroke-linejoin: miter; stroke-linecap: square"/>
   </g>
   <g id="patch_21">
    <path d="M 39.94 440.28 
L 557.28 440.28 
" style="fill: none; stroke: #000000; stroke-width: 0.8; stroke-linejoin: miter; stroke-linecap: square"/>
   </g>
   <g id="text_39">
    <!-- L_logic -->
    <g transform="translate(278.15375 434.28) scale(0.12 -0.12)">
     <defs>
      <path id="DejaVuSans-67" d="M 2906 1791 
Q 2906 2416 2648 2759 
Q 2391 3103 1925 3103 
Q 1463 3103 1205 2759 
Q 947 2416 947 1791 
Q 947 1169 1205 825 
Q 1463 481 1925 481 
Q 2391 481 2648 825 
Q 2906 1169 2906 1791 
z
M 3481 434 
Q 3481 -459 3084 -895 
Q 2688 -1331 1869 -1331 
Q 1566 -1331 1297 -1286 
Q 1028 -1241 775 -1147 
L 775 -588 
Q 1028 -725 1275 -790 
Q 1522 -856 1778 -856 
Q 2344 -856 2625 -561 
Q 2906 -266 2906 331 
L 2906 616 
Q 2728 306 2450 153 
Q 2172 0 1784 0 
Q 1141 0 747 490 
Q 353 981 353 1791 
Q 353 2603 747 3093 
Q 1141 3584 1784 3584 
Q 2172 3584 2450 3431 
Q 2728 3278 2906 2969 
L 2906 3500 
L 3481 3500 
L 3481 434 
z
" transform="scale(0.015625)"/>
      <path id="DejaVuSans-69" d="M 603 3500 
L 1178 3500 
L 1178 0 
L 603 0 
L 603 3500 
z
M 603 4863 
L 1178 4863 
L 1178 4134 
L 603 4134 
L 603 4863 
z
" transform="scale(0.015625)"/>
     </defs>
     <use xlink:href="#DejaVuSans-4c"/>
     <use xlink:href="#DejaVuSans-5f" x="55.712891"/>
     <use xlink:href="#DejaVuSans-6c" x="105.712891"/>
     <use xlink:href="#DejaVuSans-6f" x="133.496094"/>
     <use xlink:href="#DejaVuSans-67" x="194.677734"/>
     <use xlink:href="#DejaVuSans-69" x="258.154297"/>
     <use xlink:href="#DejaVuSans-63" x="285.9375"/>
    </g>
   </g>
  </g>
  <g id="axes_5">
   <g id="patch_22">
    <path d="M 39.94 692.12 
L 557.28 692.12 
L 557.28 582.12 
L 39.94 582.12 
z
" style="fill: #ffffff"/>
   </g>
   <g id="matplotlib.axis_9">
    <g id="xtick_21">
     <g id="line2d_40">
      <g>
       <use xlink:href="#m6a646433c3" x="63.455455" y="692.12" style="stroke: #000000; stroke-width: 0.8"/>
      </g>
     </g>
     <g id="text_40">
      <!-- 0 -->
      <g transform="translate(60.274205 706.718438) scale(0.1 -0.1)">
       <use xlink:href="#DejaVuSans-30"/>
      </g>
     </g>
    </g>
    <g id="xtick_22">
     <g id="line2d_41">
      <g>
       <use xlink:href="#m6a646433c3" x="163.521219" y="692.12" style="stroke: #000000; stroke-width: 0.8"/>
      </g>
     </g>
     <g id="text_41">
      <!-- 20 -->
      <g transform="translate(157.158719 706.718438) scale(0.1 -0.1)">
       <use xlink:href="#DejaVuSans-32"/>
       <use xlink:href="#DejaVuSans-30" x="63.623047"/>
      </g>
     </g>
    </g>
    <g id="xtick_23">
     <g id="line2d_42">
      <g>
       <use xlink:href="#m6a646433c3" x="263.586983" y="692.12" style="stroke: #000000; stroke-width: 0.8"/>
      </g>
     </g>
     <g id="text_42">
      <!-- 40 -->
      <g transform="translate(257.224483 706.718438) scale(0.1 -0.1)">
       <use xlink:href="#DejaVuSans-34"/>
       <use xlink:href="#DejaVuSans-30" x="63.623047"/>
      </g>
     </g>
    </g>
    <g id="xtick_24">
     <g id="line2d_43">
      <g>
       <use xlink:href="#m6a646433c3" x="363.652747" y="692.12" style="stroke: #000000; stroke-width: 0.8"/>
      </g>
     </g>
     <g id="text_43">
      <!-- 60 -->
      <g transform="translate(357.290247 706.718438) scale(0.1 -0.1)">
       <use xlink:href="#DejaVuSans-36"/>
       <use xlink:href="#DejaVuSans-30" x="63.623047"/>
      </g>
     </g>
    </g>
    <g id="xtick_25">
     <g id="line2d_44">
      <g>
       <use xlink:href="#m6a646433c3" x="463.718511" y="692.12" style="stroke: #000000; stroke-width: 0.8"/>
      </g>
     </g>
     <g id="text_44">
      <!-- 80 -->
      <g transform="translate(457.356011 706.718438) scale(0.1 -0.1)">
       <use xlink:href="#DejaVuSans-38"/>
       <use xlink:href="#DejaVuSans-30" x="63.623047"/>
      </g>
     </g>
    </g>
   </g>
   <g id="matplotlib.axis_10">
    <g id="ytick_16">
     <g id="line2d_45">
      <g>
       <use xlink:href="#mdc2c1da3b6" x="39.94" y="672.49809" style="stroke: #000000; stroke-width: 0.8"/>
      </g>
     </g>
     <g id="text_45">
      <!-- 0.0003 -->
      <g transform="translate(-2.050625 676.297309) scale(0.1 -0.1)">
       <defs>
        <path id="DejaVuSans-33" d="M 2597 2516 
Q 3050 2419 3304 2112 
Q 3559 1806 3559 1356 
Q 3559 666 3084 287 
Q 2609 -91 1734 -91 
Q 1441 -91 1130 -33 
Q 819 25 488 141 
L 488 750 
Q 750 597 1062 519 
Q 1375 441 1716 441 
Q 2309 441 2620 675 
Q 2931 909 2931 1356 
Q 2931 1769 2642 2001 
Q 2353 2234 1838 2234 
L 1294 2234 
L 1294 2753 
L 1863 2753 
Q 2328 2753 2575 2939 
Q 2822 3125 2822 3475 
Q 2822 3834 2567 4026 
Q 2313 4219 1838 4219 
Q 1578 4219 1281 4162 
Q 984 4106 628 3988 
L 628 4550 
Q 988 4650 1302 4700 
Q 1616 4750 1894 4750 
Q 2613 4750 3031 4423 
Q 3450 4097 3450 3541 
Q 3450 3153 3228 2886 
Q 3006 2619 2597 2516 
z
" transform="scale(0.015625)"/>
       </defs>
       <use xlink:href="#DejaVuSans-30"/>
       <use xlink:href="#DejaVuSans-2e" x="63.623047"/>
       <use xlink:href="#DejaVuSans-30" x="95.410156"/>
       <use xlink:href="#DejaVuSans-30" x="159.033203"/>
       <use xlink:href="#DejaVuSans-30" x="222.65625"/>
       <use xlink:href="#DejaVuSans-33" x="286.279297"/>
      </g>
     </g>
    </g>
    <g id="ytick_17">
     <g id="line2d_46">
      <g>
       <use xlink:href="#mdc2c1da3b6" x="39.94" y="629.795875" style="stroke: #000000; stroke-width: 0.8"/>
      </g>
     </g>
     <g id="text_46">
      <!-- 0.0004 -->
      <g transform="translate(-2.050625 633.595094) scale(0.1 -0.1)">
       <use xlink:href="#DejaVuSans-30"/>
       <use xlink:href="#DejaVuSans-2e" x="63.623047"/>
       <use xlink:href="#DejaVuSans-30" x="95.410156"/>
       <use xlink:href="#DejaVuSans-30" x="159.033203"/>
       <use xlink:href="#DejaVuSans-30" x="222.65625"/>
       <use xlink:href="#DejaVuSans-34" x="286.279297"/>
      </g>
     </g>
    </g>
    <g id="ytick_18">
     <g id="line2d_47">
      <g>
       <use xlink:href="#mdc2c1da3b6" x="39.94" y="587.09366" style="stroke: #000000; stroke-width: 0.8"/>
      </g>
     </g>
     <g id="text_47">
      <!-- 0.0005 -->
      <g transform="translate(-2.050625 590.892879) scale(0.1 -0.1)">
       <use xlink:href="#DejaVuSans-30"/>
       <use xlink:href="#DejaVuSans-2e" x="63.623047"/>
       <use xlink:href="#DejaVuSans-30" x="95.410156"/>
       <use xlink:href="#DejaVuSans-30" x="159.033203"/>
       <use xlink:href="#DejaVuSans-30" x="222.65625"/>
       <use xlink:href="#DejaVuSans-35" x="286.279297"/>
      </g>
     </g>
    </g>
   </g>
   <g id="line2d_48">
    <path d="M 63.455455 587.12 
L 68.458743 587.185838 
L 73.462031 587.277987 
L 78.465319 587.396424 
L 83.468607 587.54112 
L 88.471896 587.71204 
L 93.475184 587.909141 
L 98.478472 588.132375 
L 103.48176 588.381686 
L 108.485048 588.657014 
L 113.488337 588.958289 
L 118.491625 589.285438 
L 123.494913 589.638381 
L 128.498201 590.017029 
L 133.501489 590.42129 
L 138.504778 590.851063 
L 143.508066 591.306244 
L 148.511354 591.786719 
L 153.514642 592.292369 
L 158.51793 592.823071 
L 163.521219 593.378693 
L 168.524507 593.959099 
L 173.527795 594.564144 
L 178.531083 595.19368 
L 183.534371 595.847551 
L 188.53766 596.525596 
L 193.540948 597.227647 
L 198.544236 597.953533 
L 203.547524 598.703072 
L 208.550812 599.476081 
L 213.554101 600.272369 
L 218.557389 601.091739 
L 223.560677 601.933988 
L 228.563965 602.798911 
L 233.567253 603.686292 
L 238.570542 604.595913 
L 243.57383 605.527549 
L 248.577118 606.480971 
L 253.580406 607.455943 
L 258.583694 608.452225 
L 263.586983 609.469571 
L 268.590271 610.50773 
L 273.593559 611.566446 
L 278.596847 612.645458 
L 283.600135 613.744498 
L 288.603424 614.863297 
L 293.606712 616.001579 
L 298.61 617.159061 
L 303.613288 618.335459 
L 308.616576 619.530483 
L 313.619865 620.743837 
L 318.623153 621.975222 
L 323.626441 623.224335 
L 328.629729 624.490867 
L 333.633017 625.774506 
L 338.636306 627.074935 
L 343.639594 628.391833 
L 348.642882 629.724875 
L 353.64617 631.073732 
L 358.649458 632.438072 
L 363.652747 633.817557 
L 368.656035 635.211849 
L 373.659323 636.620601 
L 378.662611 638.043468 
L 383.665899 639.480097 
L 388.669188 640.930135 
L 393.672476 642.393223 
L 398.675764 643.869001 
L 403.679052 645.357105 
L 408.68234 646.857166 
L 413.685629 648.368816 
L 418.688917 649.891681 
L 423.692205 651.425386 
L 428.695493 652.969551 
L 433.698781 654.523797 
L 438.70207 656.087739 
L 443.705358 657.660992 
L 448.708646 659.243167 
L 453.711934 660.833875 
L 458.715222 662.432722 
L 463.718511 664.039315 
L 468.721799 665.653256 
L 473.725087 667.274148 
L 478.728375 668.90159 
L 483.731663 670.535181 
L 488.734952 672.174519 
L 493.73824 673.819198 
L 498.741528 675.468813 
L 503.744816 677.122956 
L 508.748104 678.78122 
L 513.751393 680.443196 
L 518.754681 682.108473 
L 523.757969 683.77664 
L 528.761257 685.447287 
L 533.764545 687.12 
" clip-path="url(#p04795b0b92)" style="fill: none; stroke: #1f77b4; stroke-width: 1.5; stroke-linecap: square"/>
   </g>
   <g id="patch_23">
    <path d="M 39.94 692.12 
L 39.94 582.12 
" style="fill: none; stroke: #000000; stroke-width: 0.8; stroke-linejoin: miter; stroke-linecap: square"/>
   </g>
   <g id="patch_24">
    <path d="M 557.28 692.12 
L 557.28 582.12 
" style="fill: none; stroke: #000000; stroke-width: 0.8; stroke-linejoin: miter; stroke-linecap: square"/>
   </g>
   <g id="patch_25">
    <path d="M 39.94 692.12 
L 557.28 692.12 
" style="fill: none; stroke: #000000; stroke-width: 0.8; stroke-linejoin: miter; stroke-linecap: square"/>
   </g>
   <g id="patch_26">
    <path d="M 39.94 582.12 
L 557.28 582.12 
" style="fill: none; stroke: #000000; stroke-width: 0.8; stroke-linejoin: miter; stroke-linecap: square"/>
   </g>
   <g id="text_48">
    <!-- lr -->
    <g transform="translate(294.476562 576.12) scale(0.12 -0.12)">
     <defs>
      <path id="DejaVuSans-72" d="M 2631 2963 
Q 2534 3019 2420 3045 
Q 2306 3072 2169 3072 
Q 1681 3072 1420 2755 
Q 1159 2438 1159 1844 
L 1159 0 
L 581 0 
L 581 3500 
L 1159 3500 
L 1159 2956 
Q 1341 3275 1631 3429 
Q 1922 3584 2338 3584 
Q 2397 3584 2469 3576 
Q 2541 3569 2628 3553 
L 2631 2963 
z
" transform="scale(0.015625)"/>
     </defs>
     <use xlink:href="#DejaVuSans-6c"/>
     <use xlink:href="#DejaVuSans-72" x="27.783203"/>
    </g>
   </g>
  </g>
 </g>
 <defs>
  <clipPath id="p3c6f75d1be">
   <rect x="39.94" y="14.76" width="517.34" height="110"/>
  </clipPath>
  <clipPath id="pd4cb889e7f">
   <rect x="39.94" y="156.6" width="517.34" height="110"/>
  </clipPath>
  <clipPath id="pb8cab747af">
   <rect x="39.94" y="298.44" width="517.34" height="110"/>
  </clipPath>
  <clipPath id="pb433c89f69">
   <rect x="39.94" y="440.28" width="517.34" height="110"/>
  </clipPath>
  <clipPath id="p04795b0b92">
   <rect x="39.94" y="582.12" width="517.34" height="110"/>
  </clipPath>
 </defs>
</svg>
